Grenze-Black.ufo
<glyph name="exclam" format="2">
  <advance width="324"/>
  <unicode hex="0021"/>
  <outline>
    <contour>
      <point x="127" y="191" type="curve" smooth="yes"/>
      <point x="145" y="191"/>
      <point x="191" y="199"/>
      <point x="222" y="204" type="curve"/>
      <point x="252" y="628" type="line" smooth="yes"/>
      <point x="252" y="634"/>
      <point x="227" y="658"/>
      <point x="220" y="658" type="curve" smooth="yes"/>
      <point x="201" y="658"/>
      <point x="126" y="644"/>
      <point x="72" y="634" type="curve"/>
      <point x="100" y="210" type="line" smooth="yes"/>
      <point x="100" y="205"/>
      <point x="121" y="191"/>
    </contour>
    <contour>
      <point x="115" y="-9" type="curve" smooth="yes"/>
      <point x="161" y="-9"/>
      <point x="199" y="-5"/>
      <point x="245" y="1" type="curve"/>
      <point x="236" y="128" type="line"/>
      <point x="90" y="128" type="line"/>
      <point x="80" y="26" type="line" smooth="yes"/>
      <point x="79" y="17"/>
      <point x="105" y="-9"/>
    </contour>
  </outline>
</glyph>
<glyph name="quotedbl" format="2">
  <advance width="401"/>
  <unicode hex="0022"/>
  <outline>
    <contour>
      <point x="45" y="481" type="line"/>
      <point x="154" y="482" type="line"/>
      <point x="165" y="540"/>
      <point x="175" y="606"/>
      <point x="182" y="665" type="curve" smooth="yes"/>
      <point x="183" y="670"/>
      <point x="158" y="697"/>
      <point x="147" y="697" type="curve" smooth="yes"/>
      <point x="105" y="697"/>
      <point x="66" y="691"/>
      <point x="25" y="683" type="curve"/>
    </contour>
    <contour>
      <point x="239" y="481" type="line"/>
      <point x="348" y="482" type="line"/>
      <point x="359" y="540"/>
      <point x="369" y="607"/>
      <point x="376" y="665" type="curve" smooth="yes"/>
      <point x="377" y="670"/>
      <point x="352" y="697"/>
      <point x="341" y="697" type="curve" smooth="yes"/>
      <point x="299" y="697"/>
      <point x="260" y="691"/>
      <point x="219" y="683" type="curve"/>
    </contour>
  </outline>
</glyph>
<glyph name="numbersign" format="2">
  <advance width="547"/>
  <unicode hex="0023"/>
  <outline>
    <contour>
      <point x="271" y="-31" type="line"/>
      <point x="374" y="-31" type="line"/>
      <point x="447" y="500" type="line"/>
      <point x="342" y="500" type="line"/>
    </contour>
    <contour>
      <point x="24" y="96" type="line"/>
      <point x="479" y="96" type="line"/>
      <point x="491" y="200" type="line"/>
      <point x="36" y="200" type="line"/>
    </contour>
    <contour>
      <point x="94" y="-31" type="line"/>
      <point x="198" y="-31" type="line"/>
      <point x="270" y="500" type="line"/>
      <point x="165" y="500" type="line"/>
    </contour>
    <contour>
      <point x="53" y="281" type="line"/>
      <point x="507" y="281" type="line"/>
      <point x="518" y="385" type="line"/>
      <point x="64" y="385" type="line"/>
    </contour>
  </outline>
</glyph>
<glyph name="dollar" format="2">
  <advance width="541"/>
  <unicode hex="0024"/>
  <outline>
    <contour>
      <point x="289" y="-13" type="curve" smooth="yes"/>
      <point x="336" y="-13"/>
      <point x="458" y="68"/>
      <point x="491" y="126" type="curve"/>
      <point x="493" y="139"/>
      <point x="496" y="161"/>
      <point x="496" y="179" type="curve" smooth="yes"/>
      <point x="496" y="264"/>
      <point x="388" y="310"/>
      <point x="310" y="355" type="curve" smooth="yes"/>
      <point x="267" y="381"/>
      <point x="234" y="406"/>
      <point x="234" y="437" type="curve" smooth="yes"/>
      <point x="234" y="455"/>
      <point x="241" y="477"/>
      <point x="248" y="477" type="curve" smooth="yes"/>
      <point x="270" y="477"/>
      <point x="335" y="464"/>
      <point x="368" y="458" type="curve"/>
      <point x="381" y="367" type="line"/>
      <point x="470" y="367" type="line"/>
      <point x="478" y="551" type="line"/>
      <point x="400" y="563"/>
      <point x="290" y="575"/>
      <point x="265" y="575" type="curve" smooth="yes"/>
      <point x="222" y="575"/>
      <point x="90" y="485"/>
      <point x="62" y="434" type="curve"/>
      <point x="59" y="416"/>
      <point x="58" y="401"/>
      <point x="58" y="386" type="curve" smooth="yes"/>
      <point x="58" y="301"/>
      <point x="139" y="252"/>
      <point x="210" y="212" type="curve" smooth="yes"/>
      <point x="265" y="181"/>
      <point x="314" y="156"/>
      <point x="314" y="125" type="curve" smooth="yes"/>
      <point x="314" y="108"/>
      <point x="301" y="86"/>
      <point x="299" y="86" type="curve" smooth="yes"/>
      <point x="284" y="86"/>
      <point x="224" y="94"/>
      <point x="173" y="103" type="curve"/>
      <point x="152" y="203" type="line"/>
      <point x="62" y="203" type="line"/>
      <point x="55" y="5" type="line"/>
      <point x="127" y="-1"/>
      <point x="227" y="-13"/>
    </contour>
    <contour>
      <point x="224" y="-122" type="line"/>
      <point x="332" y="-122" type="line"/>
      <point x="332" y="15" type="line"/>
      <point x="225" y="15" type="line"/>
    </contour>
    <contour>
      <point x="223" y="547" type="line"/>
      <point x="329" y="547" type="line"/>
      <point x="329" y="679" type="line"/>
      <point x="223" y="679" type="line"/>
    </contour>
  </outline>
</glyph>
<glyph name="percent" format="2">
  <advance width="864"/>
  <unicode hex="0025"/>
  <outline>
    <contour>
      <point x="236" y="-9" type="line"/>
      <point x="350" y="-9" type="line"/>
      <point x="631" y="611" type="line"/>
      <point x="517" y="611" type="line"/>
    </contour>
    <contour>
      <point x="229" y="288" type="curve" smooth="yes"/>
      <point x="330" y="288"/>
      <point x="384" y="358"/>
      <point x="384" y="458" type="curve" smooth="yes"/>
      <point x="384" y="561"/>
      <point x="341" y="613"/>
      <point x="233" y="613" type="curve" smooth="yes"/>
      <point x="128" y="613"/>
      <point x="76" y="547"/>
      <point x="76" y="449" type="curve" smooth="yes"/>
      <point x="76" y="343"/>
      <point x="118" y="288"/>
    </contour>
    <contour>
      <point x="230" y="365" type="curve" smooth="yes"/>
      <point x="193" y="365"/>
      <point x="180" y="397"/>
      <point x="180" y="451" type="curve" smooth="yes"/>
      <point x="180" y="471"/>
      <point x="181" y="497"/>
      <point x="185" y="521" type="curve"/>
      <point x="200" y="529"/>
      <point x="217" y="535"/>
      <point x="232" y="535" type="curve" smooth="yes"/>
      <point x="267" y="535"/>
      <point x="279" y="509"/>
      <point x="279" y="463" type="curve" smooth="yes"/>
      <point x="279" y="440"/>
      <point x="277" y="410"/>
      <point x="272" y="380" type="curve"/>
      <point x="259" y="371"/>
      <point x="244" y="365"/>
    </contour>
    <contour>
      <point x="634" y="-15" type="curve" smooth="yes"/>
      <point x="735" y="-15"/>
      <point x="789" y="55"/>
      <point x="789" y="155" type="curve" smooth="yes"/>
      <point x="789" y="258"/>
      <point x="746" y="310"/>
      <point x="638" y="310" type="curve" smooth="yes"/>
      <point x="533" y="310"/>
      <point x="481" y="244"/>
      <point x="481" y="146" type="curve" smooth="yes"/>
      <point x="481" y="40"/>
      <point x="523" y="-15"/>
    </contour>
    <contour>
      <point x="635" y="62" type="curve" smooth="yes"/>
      <point x="598" y="62"/>
      <point x="585" y="94"/>
      <point x="585" y="148" type="curve" smooth="yes"/>
      <point x="585" y="168"/>
      <point x="586" y="194"/>
      <point x="590" y="218" type="curve"/>
      <point x="605" y="226"/>
      <point x="622" y="232"/>
      <point x="637" y="232" type="curve" smooth="yes"/>
      <point x="672" y="232"/>
      <point x="684" y="206"/>
      <point x="684" y="160" type="curve" smooth="yes"/>
      <point x="684" y="137"/>
      <point x="682" y="107"/>
      <point x="677" y="77" type="curve"/>
      <point x="664" y="68"/>
      <point x="649" y="62"/>
    </contour>
  </outline>
</glyph>
<glyph name="ampersand" format="2">
  <advance width="630"/>
  <unicode hex="0026"/>
  <outline>
    <contour>
      <point x="415" y="0" type="curve"/>
      <point x="625" y="0" type="line"/>
      <point x="625" y="71" type="line"/>
      <point x="574" y="84" type="line"/>
      <point x="492" y="147"/>
      <point x="343" y="336"/>
      <point x="293" y="414" type="curve" smooth="yes"/>
      <point x="274" y="444"/>
      <point x="255" y="488"/>
      <point x="255" y="525" type="curve" smooth="yes"/>
      <point x="255" y="543"/>
      <point x="260" y="555"/>
      <point x="269" y="557" type="curve"/>
      <point x="297" y="557"/>
      <point x="321" y="547"/>
      <point x="323" y="518" type="curve"/>
      <point x="327" y="431" type="line"/>
      <point x="421" y="431" type="line"/>
      <point x="430" y="469"/>
      <point x="439" y="511"/>
      <point x="439" y="532" type="curve" smooth="yes"/>
      <point x="439" y="603"/>
      <point x="356" y="625"/>
      <point x="278" y="625" type="curve" smooth="yes"/>
      <point x="251" y="625"/>
      <point x="134" y="570"/>
      <point x="93" y="536" type="curve"/>
      <point x="86" y="525"/>
      <point x="82" y="505"/>
      <point x="82" y="483" type="curve" smooth="yes"/>
      <point x="82" y="423"/>
      <point x="115" y="366"/>
      <point x="152" y="316" type="curve" smooth="yes"/>
      <point x="223" y="220"/>
      <point x="392" y="10"/>
    </contour>
    <contour>
      <point x="231" y="-9" type="curve" smooth="yes"/>
      <point x="245" y="-9"/>
      <point x="316" y="11"/>
      <point x="358" y="29" type="curve"/>
      <point x="391" y="60"/>
      <point x="577" y="309"/>
      <point x="616" y="372" type="curve"/>
      <point x="478" y="372" type="line"/>
      <point x="445" y="298"/>
      <point x="321" y="86"/>
      <point x="287" y="71" type="curve" smooth="yes"/>
      <point x="278" y="67"/>
      <point x="265" y="65"/>
      <point x="259" y="65" type="curve" smooth="yes"/>
      <point x="223" y="65"/>
      <point x="195" y="121"/>
      <point x="195" y="184" type="curve" smooth="yes"/>
      <point x="195" y="236"/>
      <point x="213" y="278"/>
      <point x="246" y="306" type="curve"/>
      <point x="192" y="365" type="line"/>
      <point x="104" y="327"/>
      <point x="20" y="263"/>
      <point x="20" y="163" type="curve" smooth="yes"/>
      <point x="20" y="49"/>
      <point x="96" y="-9"/>
    </contour>
    <contour>
      <point x="502" y="276" type="line"/>
      <point x="623" y="297" type="line"/>
      <point x="624" y="372" type="line"/>
      <point x="396" y="372" type="line"/>
      <point x="395" y="305" type="line"/>
    </contour>
  </outline>
</glyph>
<glyph name="quotesingle" format="2">
  <advance width="207"/>
  <unicode hex="0027"/>
  <outline>
    <contour>
      <point x="45" y="481" type="line"/>
      <point x="154" y="482" type="line"/>
      <point x="165" y="540"/>
      <point x="175" y="606"/>
      <point x="182" y="665" type="curve" smooth="yes"/>
      <point x="183" y="670"/>
      <point x="158" y="697"/>
      <point x="147" y="697" type="curve" smooth="yes"/>
      <point x="105" y="697"/>
      <point x="66" y="691"/>
      <point x="25" y="683" type="curve"/>
    </contour>
  </outline>
</glyph>
<glyph name="parenleft" format="2">
  <advance width="299"/>
  <unicode hex="0028"/>
  <outline>
    <contour>
      <point x="204" y="-122" type="curve"/>
      <point x="279" y="-76" type="line"/>
      <point x="227" y="29"/>
      <point x="200" y="163"/>
      <point x="200" y="294" type="curve" smooth="yes"/>
      <point x="200" y="422"/>
      <point x="226" y="548"/>
      <point x="279" y="644" type="curve"/>
      <point x="204" y="690" type="line"/>
      <point x="85" y="591"/>
      <point x="26" y="442"/>
      <point x="26" y="291" type="curve" smooth="yes"/>
      <point x="26" y="140"/>
      <point x="85" y="-13"/>
    </contour>
  </outline>
</glyph>
<glyph name="parenright" format="2">
  <advance width="299"/>
  <unicode hex="0029"/>
  <outline>
    <contour>
      <point x="95" y="-122" type="line"/>
      <point x="214" y="-23"/>
      <point x="273" y="126"/>
      <point x="273" y="277" type="curve" smooth="yes"/>
      <point x="273" y="428"/>
      <point x="214" y="581"/>
      <point x="95" y="690" type="curve"/>
      <point x="20" y="644" type="line"/>
      <point x="72" y="539"/>
      <point x="99" y="405"/>
      <point x="99" y="274" type="curve" smooth="yes"/>
      <point x="99" y="146"/>
      <point x="73" y="20"/>
      <point x="20" y="-76" type="curve"/>
    </contour>
  </outline>
</glyph>
<glyph name="asterisk" format="2">
  <advance width="331"/>
  <unicode hex="002A"/>
  <outline>
    <contour>
      <point x="132" y="372" type="line"/>
      <point x="226" y="381" type="line"/>
      <point x="203" y="471" type="line"/>
      <point x="258" y="420" type="line"/>
      <point x="288" y="422" type="line"/>
      <point x="322" y="505" type="line"/>
      <point x="238" y="533" type="line"/>
      <point x="328" y="557" type="line"/>
      <point x="286" y="640" type="line"/>
      <point x="258" y="645" type="line"/>
      <point x="203" y="595" type="line"/>
      <point x="223" y="674" type="line"/>
      <point x="204" y="695" type="line"/>
      <point x="112" y="688" type="line"/>
      <point x="134" y="595" type="line"/>
      <point x="75" y="648" type="line"/>
      <point x="47" y="644" type="line"/>
      <point x="16" y="560" type="line"/>
      <point x="98" y="533" type="line"/>
      <point x="14" y="509" type="line"/>
      <point x="51" y="423" type="line"/>
      <point x="81" y="419" type="line"/>
      <point x="134" y="471" type="line"/>
      <point x="115" y="395" type="line"/>
    </contour>
  </outline>
</glyph>
<glyph name="plus" format="2">
  <advance width="592"/>
  <unicode hex="002B"/>
  <outline>
    <contour>
      <point x="238" y="28" type="line"/>
      <point x="356" y="28" type="line"/>
      <point x="356" y="479" type="line"/>
      <point x="238" y="479" type="line"/>
    </contour>
    <contour>
      <point x="90" y="199" type="line"/>
      <point x="502" y="199" type="line"/>
      <point x="502" y="309" type="line"/>
      <point x="90" y="309" type="line"/>
    </contour>
  </outline>
</glyph>
<glyph name="comma" format="2">
  <advance width="253"/>
  <unicode hex="002C"/>
  <outline>
    <contour>
      <point x="114" y="-160" type="line"/>
      <point x="155" y="-110"/>
      <point x="213" y="-31"/>
      <point x="213" y="42" type="curve" smooth="yes"/>
      <point x="213" y="94" type="line"/>
      <point x="213" y="106"/>
      <point x="178" y="144"/>
      <point x="169" y="144" type="curve" smooth="yes"/>
      <point x="140" y="144"/>
      <point x="79" y="134"/>
      <point x="46" y="126" type="curve"/>
      <point x="40" y="33" type="line" smooth="yes"/>
      <point x="39" y="22"/>
      <point x="65" y="3"/>
      <point x="74" y="-5" type="curve"/>
      <point x="67" y="-47"/>
      <point x="55" y="-87"/>
      <point x="43" y="-124" type="curve"/>
    </contour>
  </outline>
</glyph>
<glyph name="hyphen" format="2">
  <advance width="308"/>
  <unicode hex="002D"/>
  <outline>
    <contour>
      <point x="30" y="186" type="line"/>
      <point x="278" y="186" type="line"/>
      <point x="278" y="302" type="line"/>
      <point x="30" y="302" type="line"/>
    </contour>
  </outline>
</glyph>
<glyph name="period" format="2">
  <advance width="247"/>
  <unicode hex="002E"/>
  <outline>
    <contour>
      <point x="82" y="-16" type="curve" smooth="yes"/>
      <point x="87" y="-16"/>
      <point x="153" y="-7"/>
      <point x="202" y="-1" type="curve"/>
      <point x="211" y="87" type="line" smooth="yes"/>
      <point x="212" y="98"/>
      <point x="177" y="137"/>
      <point x="168" y="137" type="curve" smooth="yes"/>
      <point x="136" y="137"/>
      <point x="68" y="125"/>
      <point x="36" y="117" type="curve"/>
      <point x="39" y="33" type="line" smooth="yes"/>
      <point x="39" y="19"/>
      <point x="73" y="-16"/>
    </contour>
  </outline>
</glyph>
<glyph name="slash" format="2">
  <advance width="406"/>
  <unicode hex="002F"/>
  <outline>
    <contour>
      <point x="35" y="-118" type="line"/>
      <point x="168" y="-118" type="line"/>
      <point x="371" y="687" type="line"/>
      <point x="238" y="687" type="line"/>
    </contour>
  </outline>
</glyph>
<glyph name="zero" format="2">
  <advance width="553"/>
  <unicode hex="0030"/>
  <outline>
    <contour>
      <point x="277" y="-13" type="curve" smooth="yes"/>
      <point x="459" y="-13"/>
      <point x="523" y="127"/>
      <point x="523" y="243" type="curve" smooth="yes"/>
      <point x="523" y="402"/>
      <point x="444" y="494"/>
      <point x="275" y="494" type="curve" smooth="yes"/>
      <point x="88" y="494"/>
      <point x="30" y="358"/>
      <point x="30" y="243" type="curve" smooth="yes"/>
      <point x="30" y="82"/>
      <point x="107" y="-13"/>
    </contour>
    <contour>
      <point x="256" y="71" type="curve" smooth="yes"/>
      <point x="226" y="71"/>
      <point x="215" y="120"/>
      <point x="215" y="243" type="curve" smooth="yes"/>
      <point x="215" y="303"/>
      <point x="215" y="355"/>
      <point x="225" y="389" type="curve"/>
      <point x="243" y="399"/>
      <point x="269" y="406"/>
      <point x="293" y="406" type="curve" smooth="yes"/>
      <point x="323" y="406"/>
      <point x="338" y="362"/>
      <point x="338" y="243" type="curve" smooth="yes"/>
      <point x="338" y="164"/>
      <point x="335" y="120"/>
      <point x="326" y="88" type="curve"/>
      <point x="305" y="78"/>
      <point x="282" y="71"/>
    </contour>
  </outline>
</glyph>
<glyph name="one" format="2">
  <advance width="392"/>
  <unicode hex="0031"/>
  <outline>
    <contour>
      <point x="44" y="0" type="line"/>
      <point x="377" y="0" type="line"/>
      <point x="377" y="72" type="line"/>
      <point x="302" y="97" type="line"/>
      <point x="302" y="467" type="line"/>
      <point x="229" y="494" type="line"/>
      <point x="35" y="433" type="line"/>
      <point x="35" y="348" type="line"/>
      <point x="129" y="358" type="line"/>
      <point x="129" y="97" type="line"/>
      <point x="44" y="72" type="line"/>
    </contour>
  </outline>
</glyph>
<glyph name="two" format="2">
  <advance width="472"/>
  <unicode hex="0032"/>
  <outline>
    <contour>
      <point x="26" y="0" type="line"/>
      <point x="447" y="0" type="line"/>
      <point x="443" y="173" type="line"/>
      <point x="359" y="173" type="line"/>
      <point x="345" y="102" type="line"/>
      <point x="273" y="102" type="line"/>
      <point x="273" y="116" type="line"/>
      <point x="370" y="241" type="line" smooth="yes"/>
      <point x="409" y="291"/>
      <point x="422" y="325"/>
      <point x="422" y="374" type="curve" smooth="yes"/>
      <point x="422" y="463"/>
      <point x="339" y="494"/>
      <point x="268" y="494" type="curve" smooth="yes"/>
      <point x="241" y="494"/>
      <point x="106" y="483"/>
      <point x="41" y="473" type="curve"/>
      <point x="48" y="310" type="line"/>
      <point x="132" y="310" type="line"/>
      <point x="142" y="393" type="line"/>
      <point x="152" y="395"/>
      <point x="194" y="404"/>
      <point x="204" y="404" type="curve" smooth="yes"/>
      <point x="216" y="404"/>
      <point x="224" y="378"/>
      <point x="224" y="360" type="curve" smooth="yes"/>
      <point x="224" y="328"/>
      <point x="202" y="293"/>
      <point x="164" y="246" type="curve" smooth="yes"/>
      <point x="15" y="65" type="line"/>
    </contour>
  </outline>
</glyph>
<glyph name="three" format="2">
  <advance width="450"/>
  <unicode hex="0033"/>
  <outline>
    <contour>
      <point x="55" y="-104" type="line"/>
      <point x="235" y="-85"/>
      <point x="425" y="9"/>
      <point x="425" y="128" type="curve" smooth="yes"/>
      <point x="425" y="196"/>
      <point x="383" y="238"/>
      <point x="294" y="242" type="curve"/>
      <point x="294" y="251" type="line"/>
      <point x="337" y="260"/>
      <point x="399" y="305"/>
      <point x="399" y="369" type="curve" smooth="yes"/>
      <point x="399" y="458"/>
      <point x="324" y="494"/>
      <point x="223" y="494" type="curve" smooth="yes"/>
      <point x="196" y="494"/>
      <point x="93" y="483"/>
      <point x="35" y="473" type="curve"/>
      <point x="42" y="324" type="line"/>
      <point x="126" y="324" type="line"/>
      <point x="136" y="393" type="line"/>
      <point x="146" y="394"/>
      <point x="195" y="404"/>
      <point x="202" y="404" type="curve" smooth="yes"/>
      <point x="214" y="404"/>
      <point x="222" y="379"/>
      <point x="222" y="361" type="curve" smooth="yes"/>
      <point x="222" y="302"/>
      <point x="192" y="270"/>
      <point x="104" y="249" type="curve"/>
      <point x="104" y="177" type="line"/>
      <point x="201" y="177" type="line" smooth="yes"/>
      <point x="220" y="177"/>
      <point x="238" y="154"/>
      <point x="238" y="122" type="curve" smooth="yes"/>
      <point x="238" y="45"/>
      <point x="141" y="-6"/>
      <point x="55" y="-25" type="curve"/>
    </contour>
  </outline>
</glyph>
<glyph name="four" format="2">
  <advance width="519"/>
  <unicode hex="0034"/>
  <outline>
    <contour>
      <point x="275" y="-103" type="line"/>
      <point x="437" y="-103" type="line"/>
      <point x="437" y="34" type="line"/>
      <point x="494" y="34" type="line"/>
      <point x="494" y="132" type="line"/>
      <point x="437" y="132" type="line"/>
      <point x="437" y="248" type="line"/>
      <point x="402" y="264" type="line"/>
      <point x="275" y="218" type="line"/>
      <point x="275" y="132" type="line"/>
      <point x="159" y="132" type="line"/>
      <point x="159" y="146" type="line"/>
      <point x="199" y="209"/>
      <point x="286" y="353"/>
      <point x="309" y="398" type="curve"/>
      <point x="309" y="437" type="line"/>
      <point x="152" y="497" type="line"/>
      <point x="112" y="379"/>
      <point x="56" y="227"/>
      <point x="10" y="105" type="curve"/>
      <point x="16" y="34" type="line"/>
      <point x="275" y="34" type="line"/>
    </contour>
  </outline>
</glyph>
<glyph name="five" format="2">
  <advance width="435"/>
  <unicode hex="0035"/>
  <outline>
    <contour>
      <point x="37" y="-104" type="line"/>
      <point x="236" y="-89"/>
      <point x="405" y="6"/>
      <point x="405" y="153" type="curve" smooth="yes"/>
      <point x="405" y="246"/>
      <point x="346" y="298"/>
      <point x="237" y="298" type="curve" smooth="yes"/>
      <point x="229" y="298"/>
      <point x="164" y="273"/>
      <point x="147" y="266" type="curve"/>
      <point x="158" y="380" type="line"/>
      <point x="372" y="380" type="line"/>
      <point x="372" y="537" type="line"/>
      <point x="281" y="537" type="line"/>
      <point x="272" y="482" type="line"/>
      <point x="60" y="482" type="line"/>
      <point x="30" y="204" type="line"/>
      <point x="65" y="163" type="line"/>
      <point x="93" y="172"/>
      <point x="157" y="192"/>
      <point x="163" y="192" type="curve" smooth="yes"/>
      <point x="198" y="192"/>
      <point x="228" y="175"/>
      <point x="228" y="127" type="curve" smooth="yes"/>
      <point x="228" y="29"/>
      <point x="134" y="-3"/>
      <point x="37" y="-25" type="curve"/>
    </contour>
  </outline>
</glyph>
<glyph name="six" format="2">
  <advance width="498"/>
  <unicode hex="0036"/>
  <outline>
    <contour>
      <point x="267" y="-13" type="curve" smooth="yes"/>
      <point x="312" y="-13"/>
      <point x="402" y="38"/>
      <point x="457" y="105" type="curve"/>
      <point x="462" y="123"/>
      <point x="468" y="156"/>
      <point x="468" y="181" type="curve" smooth="yes"/>
      <point x="468" y="269"/>
      <point x="426" y="371"/>
      <point x="293" y="371" type="curve" smooth="yes"/>
      <point x="286" y="371"/>
      <point x="254" y="352"/>
      <point x="223" y="335" type="curve"/>
      <point x="218" y="337" type="line"/>
      <point x="247" y="427"/>
      <point x="300" y="476"/>
      <point x="411" y="504" type="curve"/>
      <point x="411" y="584" type="line"/>
      <point x="218" y="565"/>
      <point x="30" y="447"/>
      <point x="30" y="226" type="curve" smooth="yes"/>
      <point x="30" y="77"/>
      <point x="128" y="-13"/>
    </contour>
    <contour>
      <point x="268" y="74" type="curve" smooth="yes"/>
      <point x="202" y="74"/>
      <point x="206" y="173"/>
      <point x="212" y="255" type="curve"/>
      <point x="233" y="263"/>
      <point x="254" y="269"/>
      <point x="256" y="269" type="curve" smooth="yes"/>
      <point x="273" y="269"/>
      <point x="288" y="246"/>
      <point x="288" y="174" type="curve" smooth="yes"/>
      <point x="288" y="125"/>
      <point x="279" y="74"/>
    </contour>
  </outline>
</glyph>
<glyph name="seven" format="2">
  <advance width="475"/>
  <unicode hex="0037"/>
  <outline>
    <contour>
      <point x="208" y="-110" type="curve" smooth="yes"/>
      <point x="218" y="-110"/>
      <point x="241" y="-97"/>
      <point x="251" y="-89" type="curve"/>
      <point x="455" y="410" type="line"/>
      <point x="443" y="482" type="line"/>
      <point x="25" y="482" type="line"/>
      <point x="33" y="303" type="line"/>
      <point x="117" y="303" type="line"/>
      <point x="129" y="380" type="line"/>
      <point x="302" y="380" type="line"/>
      <point x="304" y="368" type="line"/>
      <point x="69" y="-54" type="line"/>
      <point x="105" y="-73"/>
      <point x="194" y="-110"/>
    </contour>
  </outline>
</glyph>
<glyph name="eight" format="2">
  <advance width="498"/>
  <unicode hex="0038"/>
  <outline>
    <contour>
      <point x="264" y="-13" type="curve" smooth="yes"/>
      <point x="324" y="-13"/>
      <point x="439" y="76"/>
      <point x="459" y="105" type="curve"/>
      <point x="463" y="117"/>
      <point x="468" y="139"/>
      <point x="468" y="161" type="curve" smooth="yes"/>
      <point x="468" y="231"/>
      <point x="426" y="273"/>
      <point x="375" y="305" type="curve"/>
      <point x="375" y="312" type="line"/>
      <point x="417" y="344"/>
      <point x="454" y="375"/>
      <point x="454" y="443" type="curve" smooth="yes"/>
      <point x="454" y="521"/>
      <point x="375" y="584"/>
      <point x="245" y="584" type="curve" smooth="yes"/>
      <point x="185" y="584"/>
      <point x="68" y="493"/>
      <point x="49" y="466" type="curve"/>
      <point x="49" y="466"/>
      <point x="43" y="451"/>
      <point x="43" y="414" type="curve" smooth="yes"/>
      <point x="43" y="356"/>
      <point x="77" y="314"/>
      <point x="122" y="281" type="curve"/>
      <point x="122" y="273" type="line"/>
      <point x="56" y="235"/>
      <point x="30" y="199"/>
      <point x="30" y="137" type="curve" smooth="yes"/>
      <point x="30" y="56"/>
      <point x="87" y="-13"/>
    </contour>
    <contour>
      <point x="277" y="74" type="curve" smooth="yes"/>
      <point x="190" y="74"/>
      <point x="181" y="132"/>
      <point x="181" y="176" type="curve" smooth="yes"/>
      <point x="181" y="193"/>
      <point x="185" y="210"/>
      <point x="192" y="227" type="curve"/>
      <point x="246" y="194"/>
      <point x="295" y="165"/>
      <point x="295" y="128" type="curve" smooth="yes"/>
      <point x="295" y="98"/>
      <point x="282" y="74"/>
    </contour>
    <contour>
      <point x="296" y="354" type="curve"/>
      <point x="252" y="378"/>
      <point x="216" y="402"/>
      <point x="216" y="443" type="curve" smooth="yes"/>
      <point x="216" y="473"/>
      <point x="233" y="497"/>
      <point x="235" y="497" type="curve" smooth="yes"/>
      <point x="290" y="497"/>
      <point x="303" y="459"/>
      <point x="303" y="418" type="curve" smooth="yes"/>
      <point x="303" y="397"/>
      <point x="300" y="374"/>
    </contour>
  </outline>
</glyph>
<glyph name="nine" format="2">
  <advance width="498"/>
  <unicode hex="0039"/>
  <outline>
    <contour>
      <point x="87" y="-103" type="line"/>
      <point x="280" y="-84"/>
      <point x="468" y="34"/>
      <point x="468" y="255" type="curve" smooth="yes"/>
      <point x="468" y="404"/>
      <point x="370" y="494"/>
      <point x="231" y="494" type="curve" smooth="yes"/>
      <point x="186" y="494"/>
      <point x="96" y="443"/>
      <point x="41" y="376" type="curve"/>
      <point x="36" y="358"/>
      <point x="30" y="325"/>
      <point x="30" y="300" type="curve" smooth="yes"/>
      <point x="30" y="212"/>
      <point x="72" y="110"/>
      <point x="205" y="110" type="curve" smooth="yes"/>
      <point x="212" y="110"/>
      <point x="244" y="129"/>
      <point x="275" y="146" type="curve"/>
      <point x="280" y="144" type="line"/>
      <point x="251" y="54"/>
      <point x="198" y="5"/>
      <point x="87" y="-23" type="curve"/>
    </contour>
    <contour>
      <point x="242" y="212" type="curve" smooth="yes"/>
      <point x="225" y="212"/>
      <point x="210" y="235"/>
      <point x="210" y="307" type="curve" smooth="yes"/>
      <point x="210" y="356"/>
      <point x="219" y="407"/>
      <point x="230" y="407" type="curve" smooth="yes"/>
      <point x="296" y="407"/>
      <point x="292" y="308"/>
      <point x="286" y="226" type="curve"/>
      <point x="265" y="218"/>
      <point x="244" y="212"/>
    </contour>
  </outline>
</glyph>
<glyph name="less" format="2">
  <advance width="570"/>
  <unicode hex="003C"/>
  <outline>
    <contour>
      <point x="495" y="-24" type="line"/>
      <point x="495" y="110" type="line"/>
      <point x="190" y="235" type="line"/>
      <point x="495" y="360" type="line"/>
      <point x="495" y="494" type="line"/>
      <point x="75" y="313" type="line"/>
      <point x="75" y="157" type="line"/>
    </contour>
  </outline>
</glyph>
<glyph name="equal" format="2">
  <advance width="572"/>
  <unicode hex="003D"/>
  <outline>
    <contour>
      <point x="90" y="291" type="line"/>
      <point x="482" y="291" type="line"/>
      <point x="482" y="399" type="line"/>
      <point x="90" y="399" type="line"/>
    </contour>
    <contour>
      <point x="90" y="109" type="line"/>
      <point x="482" y="109" type="line"/>
      <point x="482" y="217" type="line"/>
      <point x="90" y="217" type="line"/>
    </contour>
  </outline>
</glyph>
<glyph name="greater" format="2">
  <advance width="570"/>
  <unicode hex="003E"/>
  <outline>
    <contour>
      <point x="75" y="-24" type="line"/>
      <point x="495" y="157" type="line"/>
      <point x="495" y="313" type="line"/>
      <point x="75" y="494" type="line"/>
      <point x="75" y="360" type="line"/>
      <point x="380" y="235" type="line"/>
      <point x="75" y="110" type="line"/>
    </contour>
  </outline>
</glyph>
<glyph name="question" format="2">
  <advance width="528"/>
  <unicode hex="003F"/>
  <outline>
    <contour>
      <point x="190" y="174" type="curve" smooth="yes"/>
      <point x="208" y="174"/>
      <point x="254" y="182"/>
      <point x="285" y="187" type="curve"/>
      <point x="287" y="254"/>
      <point x="310" y="282"/>
      <point x="348" y="318" type="curve" smooth="yes"/>
      <point x="415" y="380"/>
      <point x="480" y="425"/>
      <point x="480" y="512" type="curve" smooth="yes"/>
      <point x="480" y="622"/>
      <point x="408" y="661"/>
      <point x="300" y="661" type="curve" smooth="yes"/>
      <point x="237" y="661"/>
      <point x="157" y="647"/>
      <point x="76" y="627" type="curve"/>
      <point x="154" y="536" type="line"/>
      <point x="207" y="553"/>
      <point x="273" y="572"/>
      <point x="290" y="572" type="curve" smooth="yes"/>
      <point x="308" y="572"/>
      <point x="313" y="548"/>
      <point x="313" y="533" type="curve" smooth="yes"/>
      <point x="313" y="504"/>
      <point x="296" y="476"/>
      <point x="236" y="422" type="curve" smooth="yes"/>
      <point x="193" y="384"/>
      <point x="155" y="344"/>
      <point x="158" y="282" type="curve" smooth="yes"/>
      <point x="163" y="193" type="line" smooth="yes"/>
      <point x="163" y="188"/>
      <point x="184" y="174"/>
    </contour>
    <contour>
      <point x="181" y="-9" type="curve" smooth="yes"/>
      <point x="229" y="-9"/>
      <point x="260" y="-7"/>
      <point x="304" y="-2" type="curve"/>
      <point x="295" y="127" type="line"/>
      <point x="154" y="127" type="line"/>
      <point x="141" y="30" type="line" smooth="yes"/>
      <point x="140" y="21"/>
      <point x="171" y="-9"/>
    </contour>
    <contour>
      <point x="82" y="436" type="line"/>
      <point x="170" y="436" type="line"/>
      <point x="209" y="627" type="line"/>
      <point x="76" y="627" type="line"/>
    </contour>
  </outline>
</glyph>
<glyph name="at" format="2">
  <advance width="975"/>
  <unicode hex="0040"/>
  <outline>
    <contour>
      <point x="441" y="-238" type="curve" smooth="yes"/>
      <point x="484" y="-238"/>
      <point x="530" y="-232"/>
      <point x="578" y="-221" type="curve"/>
      <point x="566" y="-148" type="line"/>
      <point x="543" y="-150"/>
      <point x="521" y="-151"/>
      <point x="501" y="-151" type="curve" smooth="yes"/>
      <point x="278" y="-151"/>
      <point x="183" y="-10"/>
      <point x="183" y="220" type="curve" smooth="yes"/>
      <point x="183" y="348"/>
      <point x="219" y="492"/>
      <point x="274" y="550" type="curve"/>
      <point x="333" y="587"/>
      <point x="420" y="612"/>
      <point x="505" y="612" type="curve" smooth="yes"/>
      <point x="707" y="612"/>
      <point x="796" y="498"/>
      <point x="796" y="293" type="curve" smooth="yes"/>
      <point x="796" y="221"/>
      <point x="783" y="151"/>
      <point x="759" y="84" type="curve"/>
      <point x="692" y="95" type="line"/>
      <point x="692" y="443" type="line"/>
      <point x="607" y="457"/>
      <point x="491" y="476"/>
      <point x="479" y="476" type="curve" smooth="yes"/>
      <point x="447" y="476"/>
      <point x="312" y="395"/>
      <point x="284" y="364" type="curve"/>
      <point x="271" y="331"/>
      <point x="257" y="266"/>
      <point x="257" y="205" type="curve" smooth="yes"/>
      <point x="257" y="75"/>
      <point x="319" y="-13"/>
      <point x="438" y="-13" type="curve" smooth="yes"/>
      <point x="443" y="-13"/>
      <point x="502" y="32"/>
      <point x="526" y="51" type="curve"/>
      <point x="526" y="30" type="line" smooth="yes"/>
      <point x="526" y="22"/>
      <point x="559" y="-13"/>
      <point x="566" y="-13" type="curve" smooth="yes"/>
      <point x="599" y="-13"/>
      <point x="739" y="0"/>
      <point x="823" y="15" type="curve"/>
      <point x="894" y="84"/>
      <point x="949" y="212"/>
      <point x="949" y="339" type="curve" smooth="yes"/>
      <point x="949" y="589"/>
      <point x="774" y="712"/>
      <point x="502" y="712" type="curve" smooth="yes"/>
      <point x="208" y="712"/>
      <point x="26" y="507"/>
      <point x="26" y="227" type="curve" smooth="yes"/>
      <point x="26" y="-47"/>
      <point x="180" y="-238"/>
    </contour>
    <contour>
      <point x="475" y="103" type="curve" smooth="yes"/>
      <point x="452" y="103"/>
      <point x="442" y="163"/>
      <point x="442" y="220" type="curve" smooth="yes"/>
      <point x="442" y="326"/>
      <point x="455" y="402"/>
      <point x="464" y="402" type="curve" smooth="yes"/>
      <point x="471" y="402"/>
      <point x="499" y="380"/>
      <point x="519" y="363" type="curve"/>
      <point x="519" y="124" type="line"/>
      <point x="503" y="115"/>
      <point x="479" y="103"/>
    </contour>
  </outline>
</glyph>
<glyph name="A" format="2">
  <advance width="664"/>
  <unicode hex="0041"/>
  <anchor x="328" y="0" name="bottom"/>
  <anchor x="530" y="0" name="ogonek"/>
  <anchor x="329" y="612" name="top"/>
  <outline>
    <contour>
      <point x="-6" y="0" type="line"/>
      <point x="281" y="0" type="line"/>
      <point x="281" y="80" type="line"/>
      <point x="212" y="97" type="line"/>
      <point x="227" y="171" type="line"/>
      <point x="384" y="171" type="line"/>
      <point x="404" y="97" type="line"/>
      <point x="336" y="80" type="line"/>
      <point x="336" y="0" type="line"/>
      <point x="666" y="0" type="line"/>
      <point x="666" y="72" type="line"/>
      <point x="604" y="92" type="line"/>
      <point x="433" y="612" type="line"/>
      <point x="433" y="612"/>
      <point x="412" y="625"/>
      <point x="409" y="625" type="curve" smooth="yes"/>
      <point x="402" y="625"/>
      <point x="267" y="612"/>
      <point x="225" y="606" type="curve"/>
      <point x="56" y="92" type="line"/>
      <point x="-6" y="72" type="line"/>
    </contour>
    <contour>
      <point x="249" y="266" type="line"/>
      <point x="300" y="471" type="line"/>
      <point x="310" y="471" type="line"/>
      <point x="359" y="266" type="line"/>
    </contour>
  </outline>
</glyph>
<glyph name="B" format="2">
  <advance width="594"/>
  <unicode hex="0042"/>
  <outline>
    <contour>
      <point x="20" y="0" type="line"/>
      <point x="397" y="0" type="line" smooth="yes"/>
      <point x="496" y="0"/>
      <point x="579" y="40"/>
      <point x="579" y="174" type="curve" smooth="yes"/>
      <point x="579" y="252"/>
      <point x="529" y="304"/>
      <point x="459" y="317" type="curve"/>
      <point x="459" y="323" type="line"/>
      <point x="489" y="338"/>
      <point x="553" y="367"/>
      <point x="553" y="457" type="curve" smooth="yes"/>
      <point x="553" y="575"/>
      <point x="498" y="612"/>
      <point x="399" y="612" type="curve" smooth="yes"/>
      <point x="20" y="612" type="line"/>
      <point x="20" y="540" type="line"/>
      <point x="80" y="515" type="line"/>
      <point x="80" y="97" type="line"/>
      <point x="20" y="72" type="line"/>
    </contour>
    <contour>
      <point x="331" y="89" type="curve"/>
      <point x="271" y="98" type="line"/>
      <point x="271" y="257" type="line"/>
      <point x="322" y="257" type="line" smooth="yes"/>
      <point x="362" y="257"/>
      <point x="387" y="253"/>
      <point x="387" y="186" type="curve" smooth="yes"/>
      <point x="387" y="112"/>
      <point x="371" y="89"/>
    </contour>
    <contour>
      <point x="271" y="352" type="line"/>
      <point x="271" y="515" type="line"/>
      <point x="322" y="522" type="line"/>
      <point x="355" y="522"/>
      <point x="365" y="495"/>
      <point x="365" y="432" type="curve" smooth="yes"/>
      <point x="365" y="366"/>
      <point x="343" y="352"/>
      <point x="302" y="352" type="curve" smooth="yes"/>
    </contour>
  </outline>
</glyph>
<glyph name="C" format="2">
  <advance width="496"/>
  <unicode hex="0043"/>
  <anchor x="272" y="0" name="bottom"/>
  <anchor x="281" y="612" name="top"/>
  <outline>
    <contour>
      <point x="276" y="-13" type="curve" smooth="yes"/>
      <point x="291" y="-13"/>
      <point x="418" y="2"/>
      <point x="472" y="14" type="curve"/>
      <point x="466" y="224" type="line"/>
      <point x="379" y="224" type="line"/>
      <point x="360" y="101" type="line"/>
      <point x="323" y="101" type="line" smooth="yes"/>
      <point x="249" y="101"/>
      <point x="214" y="151"/>
      <point x="214" y="308" type="curve" smooth="yes"/>
      <point x="214" y="428"/>
      <point x="228" y="515"/>
      <point x="242" y="524" type="curve" smooth="yes"/>
      <point x="248" y="528"/>
      <point x="255" y="529"/>
      <point x="265" y="529" type="curve" smooth="yes"/>
      <point x="289" y="529"/>
      <point x="330" y="519"/>
      <point x="355" y="510" type="curve"/>
      <point x="370" y="384" type="line"/>
      <point x="459" y="384" type="line"/>
      <point x="471" y="601" type="line"/>
      <point x="416" y="609"/>
      <point x="312" y="625"/>
      <point x="292" y="625" type="curve" smooth="yes"/>
      <point x="246" y="625"/>
      <point x="97" y="540"/>
      <point x="48" y="485" type="curve"/>
      <point x="32" y="442"/>
      <point x="15" y="374"/>
      <point x="15" y="287" type="curve" smooth="yes"/>
      <point x="15" y="77"/>
      <point x="95" y="-13"/>
    </contour>
  </outline>
</glyph>
<glyph name="D" format="2">
  <advance width="614"/>
  <unicode hex="0044"/>
  <anchor x="307" y="0" name="bottom"/>
  <anchor x="190" y="308" name="center"/>
  <anchor x="308" y="612" name="top"/>
  <outline>
    <contour>
      <point x="20" y="0" type="line"/>
      <point x="388" y="0" type="line" smooth="yes"/>
      <point x="519" y="0"/>
      <point x="599" y="97"/>
      <point x="599" y="322" type="curve" smooth="yes"/>
      <point x="599" y="542"/>
      <point x="489" y="612"/>
      <point x="388" y="612" type="curve" smooth="yes"/>
      <point x="20" y="612" type="line"/>
      <point x="20" y="540" type="line"/>
      <point x="80" y="515" type="line"/>
      <point x="80" y="97" type="line"/>
      <point x="20" y="72" type="line"/>
    </contour>
    <contour>
      <point x="337" y="91" type="curve"/>
      <point x="271" y="98" type="line"/>
      <point x="271" y="515" type="line"/>
      <point x="337" y="522" type="line"/>
      <point x="380" y="522"/>
      <point x="404" y="427"/>
      <point x="404" y="312" type="curve" smooth="yes"/>
      <point x="404" y="174"/>
      <point x="380" y="91"/>
    </contour>
  </outline>
</glyph>
<glyph name="E" format="2">
  <advance width="558"/>
  <unicode hex="0045"/>
  <anchor x="294" y="0" name="bottom"/>
  <anchor x="483" y="0" name="ogonek"/>
  <anchor x="291" y="612" name="top"/>
  <outline>
    <contour>
      <point x="20" y="0" type="line"/>
      <point x="533" y="0" type="line"/>
      <point x="529" y="199" type="line"/>
      <point x="440" y="199" type="line"/>
      <point x="422" y="88" type="line"/>
      <point x="271" y="104" type="line"/>
      <point x="271" y="259" type="line"/>
      <point x="404" y="266" type="line"/>
      <point x="404" y="360" type="line"/>
      <point x="271" y="365" type="line"/>
      <point x="271" y="510" type="line"/>
      <point x="413" y="524" type="line"/>
      <point x="426" y="417" type="line"/>
      <point x="515" y="417" type="line"/>
      <point x="528" y="612" type="line"/>
      <point x="20" y="612" type="line"/>
      <point x="20" y="540" type="line"/>
      <point x="80" y="515" type="line"/>
      <point x="80" y="97" type="line"/>
      <point x="20" y="72" type="line"/>
    </contour>
  </outline>
</glyph>
<glyph name="F" format="2">
  <advance width="520"/>
  <unicode hex="0046"/>
  <outline>
    <contour>
      <point x="20" y="0" type="line"/>
      <point x="371" y="0" type="line"/>
      <point x="371" y="74" type="line"/>
      <point x="271" y="105" type="line"/>
      <point x="271" y="240" type="line"/>
      <point x="424" y="247" type="line"/>
      <point x="424" y="341" type="line"/>
      <point x="271" y="346" type="line"/>
      <point x="271" y="510" type="line"/>
      <point x="393" y="524" type="line"/>
      <point x="406" y="407" type="line"/>
      <point x="495" y="407" type="line"/>
      <point x="508" y="612" type="line"/>
      <point x="20" y="612" type="line"/>
      <point x="20" y="540" type="line"/>
      <point x="80" y="515" type="line"/>
      <point x="80" y="97" type="line"/>
      <point x="20" y="72" type="line"/>
    </contour>
  </outline>
</glyph>
<glyph name="G" format="2">
  <advance width="599"/>
  <unicode hex="0047"/>
  <anchor x="307" y="0" name="bottom"/>
  <anchor x="307" y="612" name="top"/>
  <outline>
    <contour>
      <point x="318" y="-13" type="curve" smooth="yes"/>
      <point x="338" y="-13"/>
      <point x="509" y="35"/>
      <point x="539" y="51" type="curve"/>
      <point x="539" y="230" type="line"/>
      <point x="599" y="243" type="line"/>
      <point x="599" y="316" type="line"/>
      <point x="290" y="316" type="line"/>
      <point x="290" y="239" type="line"/>
      <point x="383" y="222" type="line"/>
      <point x="383" y="104" type="line"/>
      <point x="311" y="97" type="line"/>
      <point x="237" y="97"/>
      <point x="214" y="147"/>
      <point x="214" y="308" type="curve" smooth="yes"/>
      <point x="214" y="428"/>
      <point x="228" y="515"/>
      <point x="242" y="524" type="curve" smooth="yes"/>
      <point x="248" y="528"/>
      <point x="255" y="529"/>
      <point x="265" y="529" type="curve" smooth="yes"/>
      <point x="306" y="529"/>
      <point x="384" y="514"/>
      <point x="411" y="509" type="curve"/>
      <point x="423" y="396" type="line"/>
      <point x="516" y="396" type="line"/>
      <point x="528" y="601" type="line"/>
      <point x="468" y="612"/>
      <point x="312" y="625"/>
      <point x="292" y="625" type="curve" smooth="yes"/>
      <point x="246" y="625"/>
      <point x="97" y="540"/>
      <point x="48" y="485" type="curve"/>
      <point x="32" y="442"/>
      <point x="15" y="374"/>
      <point x="15" y="287" type="curve" smooth="yes"/>
      <point x="15" y="77"/>
      <point x="117" y="-13"/>
    </contour>
  </outline>
</glyph>
<glyph name="H" format="2">
  <advance width="693"/>
  <unicode hex="0048"/>
  <anchor x="348" y="0" name="bottom"/>
  <anchor x="346" y="447" name="center"/>
  <anchor x="347" y="612" name="top"/>
  <outline>
    <contour>
      <point x="20" y="0" type="line"/>
      <point x="325" y="0" type="line"/>
      <point x="325" y="84" type="line"/>
      <point x="267" y="107" type="line"/>
      <point x="267" y="265" type="line"/>
      <point x="426" y="265" type="line"/>
      <point x="426" y="107" type="line"/>
      <point x="368" y="84" type="line"/>
      <point x="368" y="0" type="line"/>
      <point x="673" y="0" type="line"/>
      <point x="673" y="72" type="line"/>
      <point x="613" y="97" type="line"/>
      <point x="613" y="515" type="line"/>
      <point x="673" y="540" type="line"/>
      <point x="673" y="612" type="line"/>
      <point x="368" y="612" type="line"/>
      <point x="368" y="532" type="line"/>
      <point x="426" y="505" type="line"/>
      <point x="426" y="360" type="line"/>
      <point x="267" y="360" type="line"/>
      <point x="267" y="505" type="line"/>
      <point x="325" y="532" type="line"/>
      <point x="325" y="612" type="line"/>
      <point x="20" y="612" type="line"/>
      <point x="20" y="540" type="line"/>
      <point x="80" y="515" type="line"/>
      <point x="80" y="97" type="line"/>
      <point x="20" y="72" type="line"/>
    </contour>
  </outline>
</glyph>
<glyph name="I" format="2">
  <advance width="361"/>
  <unicode hex="0049"/>
  <anchor x="184" y="0" name="bottom"/>
  <anchor x="291" y="0" name="ogonek"/>
  <anchor x="180" y="612" name="top"/>
  <outline>
    <contour>
      <point x="20" y="0" type="line"/>
      <point x="341" y="0" type="line"/>
      <point x="341" y="72" type="line"/>
      <point x="276" y="97" type="line"/>
      <point x="276" y="515" type="line"/>
      <point x="341" y="540" type="line"/>
      <point x="341" y="612" type="line"/>
      <point x="20" y="612" type="line"/>
      <point x="20" y="540" type="line"/>
      <point x="85" y="515" type="line"/>
      <point x="85" y="97" type="line"/>
      <point x="20" y="72" type="line"/>
    </contour>
  </outline>
</glyph>
<glyph name="J" format="2">
  <advance width="344"/>
  <unicode hex="004A"/>
  <anchor x="172" y="612" name="top"/>
  <outline>
    <contour>
      <point x="95" y="-153" type="curve" smooth="yes"/>
      <point x="134" y="-153"/>
      <point x="269" y="-24"/>
      <point x="269" y="58" type="curve" smooth="yes"/>
      <point x="269" y="515" type="line"/>
      <point x="334" y="540" type="line"/>
      <point x="334" y="612" type="line"/>
      <point x="13" y="612" type="line"/>
      <point x="13" y="540" type="line"/>
      <point x="78" y="515" type="line"/>
      <point x="78" y="70" type="line" smooth="yes"/>
      <point x="78" y="38"/>
      <point x="77" y="-34"/>
      <point x="46" y="-39" type="curve" smooth="yes"/>
      <point x="31" y="-42"/>
      <point x="-32" y="-42"/>
      <point x="-60" y="-42" type="curve"/>
      <point x="-60" y="-129" type="line"/>
      <point x="0" y="-138"/>
      <point x="67" y="-153"/>
    </contour>
  </outline>
</glyph>
<glyph name="K" format="2">
  <advance width="668"/>
  <unicode hex="004B"/>
  <anchor x="354" y="0" name="bottom"/>
  <outline>
    <contour>
      <point x="440" y="0" type="curve"/>
      <point x="666" y="0" type="line"/>
      <point x="666" y="72" type="line"/>
      <point x="610" y="97" type="line"/>
      <point x="576" y="146"/>
      <point x="484" y="280"/>
      <point x="448" y="334" type="curve"/>
      <point x="597" y="520" type="line"/>
      <point x="654" y="540" type="line"/>
      <point x="654" y="612" type="line"/>
      <point x="366" y="612" type="line"/>
      <point x="366" y="532" type="line"/>
      <point x="423" y="512" type="line"/>
      <point x="284" y="333" type="line"/>
      <point x="284" y="272" type="line"/>
      <point x="323" y="204"/>
      <point x="405" y="59"/>
    </contour>
    <contour>
      <point x="20" y="0" type="line"/>
      <point x="325" y="0" type="line"/>
      <point x="325" y="84" type="line"/>
      <point x="267" y="107" type="line"/>
      <point x="267" y="505" type="line"/>
      <point x="323" y="532" type="line"/>
      <point x="323" y="612" type="line"/>
      <point x="20" y="612" type="line"/>
      <point x="20" y="540" type="line"/>
      <point x="80" y="515" type="line"/>
      <point x="80" y="97" type="line"/>
      <point x="20" y="72" type="line"/>
    </contour>
  </outline>
</glyph>
<glyph name="L" format="2">
  <advance width="523"/>
  <unicode hex="004C"/>
  <anchor x="271" y="0" name="bottom"/>
  <anchor x="204" y="307" name="center"/>
  <anchor x="177" y="612" name="top"/>
  <anchor x="365" y="448" name="topright"/>
  <outline>
    <contour>
      <point x="20" y="0" type="line"/>
      <point x="513" y="0" type="line"/>
      <point x="509" y="219" type="line"/>
      <point x="420" y="219" type="line"/>
      <point x="398" y="88" type="line"/>
      <point x="271" y="104" type="line"/>
      <point x="271" y="515" type="line"/>
      <point x="341" y="540" type="line"/>
      <point x="341" y="612" type="line"/>
      <point x="20" y="612" type="line"/>
      <point x="20" y="540" type="line"/>
      <point x="80" y="515" type="line"/>
      <point x="80" y="97" type="line"/>
      <point x="20" y="72" type="line"/>
    </contour>
  </outline>
</glyph>
<glyph name="M" format="2">
  <advance width="855"/>
  <unicode hex="004D"/>
  <outline>
    <contour>
      <point x="10" y="0" type="line"/>
      <point x="278" y="0" type="line"/>
      <point x="278" y="80" type="line"/>
      <point x="208" y="105" type="line"/>
      <point x="218" y="360" type="line"/>
      <point x="228" y="360" type="line"/>
      <point x="228" y="360"/>
      <point x="242" y="293"/>
      <point x="261" y="240" type="curve" smooth="yes"/>
      <point x="336" y="32" type="line"/>
      <point x="336" y="32"/>
      <point x="357" y="19"/>
      <point x="360" y="19" type="curve" smooth="yes"/>
      <point x="369" y="19"/>
      <point x="476" y="35"/>
      <point x="476" y="35" type="curve"/>
      <point x="549" y="235" type="line" smooth="yes"/>
      <point x="561" y="269"/>
      <point x="574" y="320"/>
      <point x="582" y="360" type="curve"/>
      <point x="592" y="360" type="line"/>
      <point x="599" y="105" type="line"/>
      <point x="529" y="80" type="line"/>
      <point x="529" y="0" type="line"/>
      <point x="849" y="0" type="line"/>
      <point x="849" y="72" type="line"/>
      <point x="789" y="97" type="line"/>
      <point x="769" y="515" type="line"/>
      <point x="829" y="540" type="line"/>
      <point x="829" y="612" type="line"/>
      <point x="541" y="612" type="line"/>
      <point x="435" y="253" type="line"/>
      <point x="422" y="253" type="line"/>
      <point x="317" y="612" type="line"/>
      <point x="30" y="612" type="line"/>
      <point x="30" y="540" type="line"/>
      <point x="90" y="515" type="line"/>
      <point x="70" y="97" type="line"/>
      <point x="10" y="72" type="line"/>
    </contour>
  </outline>
</glyph>
<glyph name="N" format="2">
  <advance width="669"/>
  <unicode hex="004E"/>
  <anchor x="335" y="0" name="bottom"/>
  <anchor x="338" y="612" name="top"/>
  <outline>
    <contour>
      <point x="421" y="-13" type="curve" smooth="yes"/>
      <point x="430" y="-13"/>
      <point x="599" y="6"/>
      <point x="599" y="6" type="curve"/>
      <point x="599" y="515" type="line"/>
      <point x="659" y="540" type="line"/>
      <point x="659" y="612" type="line"/>
      <point x="392" y="612" type="line"/>
      <point x="392" y="532" type="line"/>
      <point x="461" y="507" type="line"/>
      <point x="461" y="476" type="line"/>
      <point x="470" y="250" type="line"/>
      <point x="460" y="250" type="line"/>
      <point x="460" y="250"/>
      <point x="442" y="320"/>
      <point x="412" y="376" type="curve" smooth="yes"/>
      <point x="287" y="612" type="line"/>
      <point x="20" y="612" type="line"/>
      <point x="20" y="540" type="line"/>
      <point x="80" y="515" type="line"/>
      <point x="80" y="97" type="line"/>
      <point x="20" y="72" type="line"/>
      <point x="20" y="0" type="line"/>
      <point x="288" y="0" type="line"/>
      <point x="288" y="80" type="line"/>
      <point x="218" y="105" type="line"/>
      <point x="218" y="140" type="line"/>
      <point x="209" y="360" type="line"/>
      <point x="219" y="360" type="line"/>
      <point x="219" y="360"/>
      <point x="240" y="281"/>
      <point x="289" y="193" type="curve" smooth="yes"/>
      <point x="397" y="0" type="line"/>
      <point x="397" y="0"/>
      <point x="418" y="-13"/>
    </contour>
  </outline>
</glyph>
<glyph name="O" format="2">
  <advance width="610"/>
  <unicode hex="004F"/>
  <anchor x="310" y="0" name="bottom"/>
  <anchor x="296" y="296" name="center"/>
  <anchor x="318" y="0" name="ogonek"/>
  <anchor x="309" y="612" name="top"/>
  <anchor x="404" y="612" name="topright"/>
  <outline>
    <contour>
      <point x="318" y="-13" type="curve" smooth="yes"/>
      <point x="362" y="-13"/>
      <point x="514" y="66"/>
      <point x="562" y="117" type="curve"/>
      <point x="578" y="162"/>
      <point x="595" y="233"/>
      <point x="595" y="324" type="curve" smooth="yes"/>
      <point x="595" y="536"/>
      <point x="493" y="625"/>
      <point x="292" y="625" type="curve" smooth="yes"/>
      <point x="246" y="625"/>
      <point x="97" y="540"/>
      <point x="48" y="485" type="curve"/>
      <point x="32" y="442"/>
      <point x="15" y="374"/>
      <point x="15" y="287" type="curve" smooth="yes"/>
      <point x="15" y="77"/>
      <point x="117" y="-13"/>
    </contour>
    <contour>
      <point x="311" y="81" type="curve" smooth="yes"/>
      <point x="237" y="81"/>
      <point x="214" y="135"/>
      <point x="214" y="308" type="curve" smooth="yes"/>
      <point x="214" y="428"/>
      <point x="228" y="517"/>
      <point x="242" y="524" type="curve" smooth="yes"/>
      <point x="256" y="531"/>
      <point x="282" y="532"/>
      <point x="298" y="532" type="curve" smooth="yes"/>
      <point x="386" y="532"/>
      <point x="395" y="449"/>
      <point x="395" y="305" type="curve" smooth="yes"/>
      <point x="395" y="203"/>
      <point x="390" y="143"/>
      <point x="384" y="100" type="curve"/>
      <point x="379" y="97"/>
      <point x="325" y="81"/>
    </contour>
  </outline>
</glyph>
<glyph name="P" format="2">
  <advance width="581"/>
  <unicode hex="0050"/>
  <outline>
    <contour>
      <point x="20" y="0" type="line"/>
      <point x="371" y="0" type="line"/>
      <point x="371" y="74" type="line"/>
      <point x="271" y="105" type="line"/>
      <point x="271" y="209" type="line"/>
      <point x="381" y="209" type="line" smooth="yes"/>
      <point x="480" y="209"/>
      <point x="571" y="263"/>
      <point x="571" y="418" type="curve" smooth="yes"/>
      <point x="571" y="560"/>
      <point x="509" y="612"/>
      <point x="410" y="612" type="curve" smooth="yes"/>
      <point x="20" y="612" type="line"/>
      <point x="20" y="540" type="line"/>
      <point x="80" y="515" type="line"/>
      <point x="80" y="97" type="line"/>
      <point x="20" y="72" type="line"/>
    </contour>
    <contour>
      <point x="271" y="310" type="line"/>
      <point x="271" y="510" type="line"/>
      <point x="338" y="519" type="line"/>
      <point x="376" y="519"/>
      <point x="395" y="479"/>
      <point x="395" y="405" type="curve" smooth="yes"/>
      <point x="395" y="316"/>
      <point x="367" y="310"/>
      <point x="315" y="310" type="curve" smooth="yes"/>
    </contour>
  </outline>
</glyph>
<glyph name="Q" format="2">
  <advance width="610"/>
  <unicode hex="0051"/>
  <outline>
    <contour>
      <point x="318" y="-13" type="curve" smooth="yes"/>
      <point x="362" y="-13"/>
      <point x="514" y="66"/>
      <point x="562" y="117" type="curve"/>
      <point x="578" y="162"/>
      <point x="595" y="233"/>
      <point x="595" y="324" type="curve" smooth="yes"/>
      <point x="595" y="536"/>
      <point x="493" y="625"/>
      <point x="292" y="625" type="curve" smooth="yes"/>
      <point x="246" y="625"/>
      <point x="97" y="540"/>
      <point x="48" y="485" type="curve"/>
      <point x="32" y="442"/>
      <point x="15" y="374"/>
      <point x="15" y="287" type="curve" smooth="yes"/>
      <point x="15" y="77"/>
      <point x="117" y="-13"/>
    </contour>
    <contour>
      <point x="472" y="-167" type="line"/>
      <point x="543" y="-167" type="line"/>
      <point x="593" y="-40" type="line"/>
      <point x="343" y="32" type="line"/>
      <point x="220" y="-4" type="line"/>
    </contour>
    <contour>
      <point x="311" y="81" type="curve" smooth="yes"/>
      <point x="237" y="81"/>
      <point x="214" y="135"/>
      <point x="214" y="308" type="curve" smooth="yes"/>
      <point x="214" y="428"/>
      <point x="228" y="517"/>
      <point x="242" y="524" type="curve" smooth="yes"/>
      <point x="256" y="531"/>
      <point x="282" y="532"/>
      <point x="298" y="532" type="curve" smooth="yes"/>
      <point x="386" y="532"/>
      <point x="395" y="449"/>
      <point x="395" y="305" type="curve" smooth="yes"/>
      <point x="395" y="203"/>
      <point x="390" y="143"/>
      <point x="384" y="100" type="curve"/>
      <point x="379" y="97"/>
      <point x="325" y="81"/>
    </contour>
  </outline>
</glyph>
<glyph name="R" format="2">
  <advance width="626"/>
  <unicode hex="0052"/>
  <anchor x="328" y="0" name="bottom"/>
  <anchor x="292" y="612" name="top"/>
  <outline>
    <contour>
      <point x="20" y="0" type="line"/>
      <point x="331" y="0" type="line"/>
      <point x="331" y="74" type="line"/>
      <point x="271" y="105" type="line"/>
      <point x="271" y="236" type="line"/>
      <point x="314" y="236" type="line"/>
      <point x="343" y="166"/>
      <point x="391" y="32"/>
      <point x="404" y="0" type="curve"/>
      <point x="626" y="0" type="line"/>
      <point x="626" y="71" type="line"/>
      <point x="572" y="97" type="line"/>
      <point x="548" y="136"/>
      <point x="501" y="220"/>
      <point x="476" y="259" type="curve"/>
      <point x="476" y="265" type="line"/>
      <point x="527" y="298"/>
      <point x="564" y="354"/>
      <point x="564" y="439" type="curve" smooth="yes"/>
      <point x="564" y="566"/>
      <point x="502" y="612"/>
      <point x="403" y="612" type="curve" smooth="yes"/>
      <point x="20" y="612" type="line"/>
      <point x="20" y="540" type="line"/>
      <point x="80" y="515" type="line"/>
      <point x="80" y="97" type="line"/>
      <point x="20" y="72" type="line"/>
    </contour>
    <contour>
      <point x="271" y="332" type="line"/>
      <point x="271" y="510" type="line"/>
      <point x="326" y="519" type="line"/>
      <point x="357" y="519"/>
      <point x="373" y="483"/>
      <point x="373" y="416" type="curve" smooth="yes"/>
      <point x="373" y="335"/>
      <point x="348" y="332"/>
      <point x="303" y="332" type="curve" smooth="yes"/>
    </contour>
  </outline>
</glyph>
<glyph name="S" format="2">
  <advance width="463"/>
  <unicode hex="0053"/>
  <anchor x="231" y="0" name="bottom"/>
  <anchor x="240" y="612" name="top"/>
  <outline>
    <contour>
      <point x="250" y="-13" type="curve" smooth="yes"/>
      <point x="297" y="-13"/>
      <point x="419" y="68"/>
      <point x="452" y="126" type="curve"/>
      <point x="454" y="139"/>
      <point x="457" y="161"/>
      <point x="457" y="179" type="curve" smooth="yes"/>
      <point x="457" y="286"/>
      <point x="356" y="330"/>
      <point x="279" y="378" type="curve" smooth="yes"/>
      <point x="232" y="407"/>
      <point x="195" y="439"/>
      <point x="195" y="487" type="curve" smooth="yes"/>
      <point x="195" y="505"/>
      <point x="202" y="527"/>
      <point x="209" y="527" type="curve" smooth="yes"/>
      <point x="231" y="527"/>
      <point x="296" y="514"/>
      <point x="329" y="508" type="curve"/>
      <point x="342" y="417" type="line"/>
      <point x="431" y="417" type="line"/>
      <point x="439" y="601" type="line"/>
      <point x="361" y="613"/>
      <point x="251" y="625"/>
      <point x="226" y="625" type="curve" smooth="yes"/>
      <point x="183" y="625"/>
      <point x="51" y="535"/>
      <point x="23" y="484" type="curve"/>
      <point x="20" y="466"/>
      <point x="19" y="451"/>
      <point x="19" y="436" type="curve" smooth="yes"/>
      <point x="19" y="326"/>
      <point x="104" y="276"/>
      <point x="176" y="233" type="curve" smooth="yes"/>
      <point x="228" y="201"/>
      <point x="274" y="172"/>
      <point x="275" y="125" type="curve" smooth="yes"/>
      <point x="275" y="108"/>
      <point x="262" y="86"/>
      <point x="260" y="86" type="curve" smooth="yes"/>
      <point x="245" y="86"/>
      <point x="185" y="94"/>
      <point x="134" y="103" type="curve"/>
      <point x="113" y="203" type="line"/>
      <point x="23" y="203" type="line"/>
      <point x="16" y="5" type="line"/>
      <point x="88" y="-1"/>
      <point x="188" y="-13"/>
    </contour>
  </outline>
</glyph>
<glyph name="T" format="2">
  <advance width="589"/>
  <unicode hex="0054"/>
  <anchor x="297" y="0" name="bottom"/>
  <anchor x="295" y="283" name="center"/>
  <anchor x="297" y="612" name="top"/>
  <outline>
    <contour>
      <point x="114" y="0" type="line"/>
      <point x="475" y="0" type="line"/>
      <point x="475" y="72" type="line"/>
      <point x="390" y="97" type="line"/>
      <point x="390" y="517" type="line"/>
      <point x="464" y="508" type="line"/>
      <point x="477" y="394" type="line"/>
      <point x="566" y="394" type="line"/>
      <point x="579" y="612" type="line"/>
      <point x="10" y="612" type="line"/>
      <point x="23" y="394" type="line"/>
      <point x="112" y="394" type="line"/>
      <point x="125" y="508" type="line"/>
      <point x="199" y="517" type="line"/>
      <point x="199" y="97" type="line"/>
      <point x="114" y="72" type="line"/>
    </contour>
  </outline>
</glyph>
<glyph name="V" format="2">
  <advance width="652"/>
  <unicode hex="0056"/>
  <outline>
    <contour>
      <point x="249" y="-13" type="curve" smooth="yes"/>
      <point x="256" y="-13"/>
      <point x="358" y="-2"/>
      <point x="433" y="6" type="curve"/>
      <point x="461" y="100"/>
      <point x="568" y="451"/>
      <point x="588" y="520" type="curve"/>
      <point x="650" y="540" type="line"/>
      <point x="650" y="612" type="line"/>
      <point x="371" y="612" type="line"/>
      <point x="371" y="532" type="line"/>
      <point x="432" y="515" type="line"/>
      <point x="417" y="430"/>
      <point x="374" y="234"/>
      <point x="358" y="171" type="curve"/>
      <point x="348" y="171" type="line"/>
      <point x="336" y="224"/>
      <point x="317" y="309"/>
      <point x="307" y="351" type="curve" smooth="yes"/>
      <point x="268" y="515" type="line"/>
      <point x="328" y="532" type="line"/>
      <point x="328" y="612" type="line"/>
      <point x="6" y="612" type="line"/>
      <point x="6" y="540" type="line"/>
      <point x="68" y="520" type="line"/>
      <point x="225" y="0" type="line"/>
      <point x="234" y="-6"/>
      <point x="247" y="-13"/>
    </contour>
  </outline>
</glyph>
<glyph name="W" format="2">
  <advance width="977"/>
  <unicode hex="0057"/>
  <anchor x="508" y="612" name="top"/>
  <outline>
    <contour>
      <point x="229" y="-13" type="curve" smooth="yes"/>
      <point x="236" y="-13"/>
      <point x="338" y="-2"/>
      <point x="413" y="6" type="curve"/>
      <point x="479" y="228" type="line"/>
      <point x="490" y="228" type="line"/>
      <point x="550" y="0" type="line"/>
      <point x="559" y="-6"/>
      <point x="572" y="-13"/>
      <point x="574" y="-13" type="curve" smooth="yes"/>
      <point x="581" y="-13"/>
      <point x="683" y="-2"/>
      <point x="758" y="6" type="curve"/>
      <point x="786" y="100"/>
      <point x="893" y="451"/>
      <point x="913" y="520" type="curve"/>
      <point x="975" y="540" type="line"/>
      <point x="975" y="612" type="line"/>
      <point x="706" y="612" type="line"/>
      <point x="706" y="532" type="line"/>
      <point x="757" y="515" type="line"/>
      <point x="742" y="430"/>
      <point x="699" y="234"/>
      <point x="683" y="171" type="curve"/>
      <point x="673" y="171" type="line"/>
      <point x="662" y="224"/>
      <point x="645" y="310"/>
      <point x="636" y="351" type="curve" smooth="yes"/>
      <point x="602" y="515" type="line"/>
      <point x="663" y="532" type="line"/>
      <point x="663" y="612" type="line"/>
      <point x="361" y="612" type="line"/>
      <point x="361" y="540" type="line"/>
      <point x="413" y="520" type="line"/>
      <point x="428" y="463" type="line"/>
      <point x="401" y="367"/>
      <point x="357" y="229"/>
      <point x="338" y="171" type="curve"/>
      <point x="328" y="171" type="line"/>
      <point x="319" y="224"/>
      <point x="304" y="309"/>
      <point x="297" y="351" type="curve" smooth="yes"/>
      <point x="268" y="515" type="line"/>
      <point x="318" y="532" type="line"/>
      <point x="318" y="612" type="line"/>
      <point x="6" y="612" type="line"/>
      <point x="6" y="540" type="line"/>
      <point x="68" y="520" type="line"/>
      <point x="205" y="0" type="line"/>
      <point x="214" y="-6"/>
      <point x="227" y="-13"/>
    </contour>
  </outline>
</glyph>
<glyph name="X" format="2">
  <advance width="683"/>
  <unicode hex="0058"/>
  <outline>
    <contour>
      <point x="0" y="0" type="line"/>
      <point x="297" y="0" type="line"/>
      <point x="297" y="84" type="line"/>
      <point x="232" y="99" type="line"/>
      <point x="307" y="243" type="line"/>
      <point x="317" y="243" type="line"/>
      <point x="408" y="99" type="line"/>
      <point x="340" y="84" type="line"/>
      <point x="340" y="0" type="line"/>
      <point x="683" y="0" type="line"/>
      <point x="683" y="72" type="line"/>
      <point x="632" y="97" type="line"/>
      <point x="457" y="327" type="line"/>
      <point x="593" y="515" type="line"/>
      <point x="653" y="540" type="line"/>
      <point x="653" y="612" type="line"/>
      <point x="383" y="612" type="line"/>
      <point x="383" y="532" type="line"/>
      <point x="428" y="523" type="line"/>
      <point x="372" y="401" type="line"/>
      <point x="362" y="401" type="line"/>
      <point x="295" y="523" type="line"/>
      <point x="340" y="532" type="line"/>
      <point x="340" y="612" type="line"/>
      <point x="30" y="612" type="line"/>
      <point x="30" y="540" type="line"/>
      <point x="80" y="515" type="line"/>
      <point x="221" y="321" type="line"/>
      <point x="61" y="97" type="line"/>
      <point x="0" y="72" type="line"/>
    </contour>
  </outline>
</glyph>
<glyph name="Y" format="2">
  <advance width="595"/>
  <unicode hex="0059"/>
  <anchor x="302" y="0" name="bottom"/>
  <anchor x="316" y="612" name="top"/>
  <outline>
    <contour>
      <point x="137" y="0" type="line"/>
      <point x="458" y="0" type="line"/>
      <point x="458" y="72" type="line"/>
      <point x="393" y="97" type="line"/>
      <point x="393" y="245" type="line"/>
      <point x="431" y="314"/>
      <point x="520" y="480"/>
      <point x="538" y="520" type="curve"/>
      <point x="600" y="540" type="line"/>
      <point x="600" y="612" type="line"/>
      <point x="341" y="612" type="line"/>
      <point x="341" y="532" type="line"/>
      <point x="392" y="515" type="line"/>
      <point x="376" y="472"/>
      <point x="337" y="378"/>
      <point x="324" y="351" type="curve"/>
      <point x="314" y="351" type="line"/>
      <point x="314" y="351"/>
      <point x="292" y="406"/>
      <point x="247" y="515" type="curve"/>
      <point x="297" y="532" type="line"/>
      <point x="297" y="612" type="line"/>
      <point x="-5" y="612" type="line"/>
      <point x="-5" y="540" type="line"/>
      <point x="57" y="520" type="line"/>
      <point x="202" y="243" type="line"/>
      <point x="202" y="97" type="line"/>
      <point x="137" y="72" type="line"/>
    </contour>
  </outline>
</glyph>
<glyph name="Z" format="2">
  <advance width="516"/>
  <unicode hex="005A"/>
  <anchor x="258" y="0" name="bottom"/>
  <anchor x="259" y="612" name="top"/>
  <outline>
    <contour>
      <point x="10" y="0" type="line"/>
      <point x="506" y="0" type="line"/>
      <point x="495" y="209" type="line"/>
      <point x="408" y="209" type="line"/>
      <point x="388" y="88" type="line"/>
      <point x="236" y="104" type="line"/>
      <point x="483" y="540" type="line"/>
      <point x="483" y="612" type="line"/>
      <point x="19" y="612" type="line"/>
      <point x="32" y="417" type="line"/>
      <point x="122" y="417" type="line"/>
      <point x="135" y="524" type="line"/>
      <point x="259" y="510" type="line"/>
      <point x="10" y="72" type="line"/>
    </contour>
  </outline>
</glyph>
<glyph name="bracketleft" format="2">
  <advance width="299"/>
  <unicode hex="005B"/>
  <outline>
    <contour>
      <point x="270" y="-123" type="line"/>
      <point x="276" y="-39" type="line"/>
      <point x="202" y="-21" type="line"/>
      <point x="202" y="599" type="line"/>
      <point x="276" y="616" type="line"/>
      <point x="269" y="691" type="line"/>
      <point x="50" y="679" type="line"/>
      <point x="50" y="-111" type="line"/>
    </contour>
  </outline>
</glyph>
<glyph name="backslash" format="2">
  <advance width="348"/>
  <unicode hex="005C"/>
  <outline>
    <contour>
      <point x="209" y="-118" type="line"/>
      <point x="342" y="-118" type="line"/>
      <point x="139" y="687" type="line"/>
      <point x="6" y="687" type="line"/>
    </contour>
  </outline>
</glyph>
<glyph name="bracketright" format="2">
  <advance width="299"/>
  <unicode hex="005D"/>
  <outline>
    <contour>
      <point x="30" y="-123" type="line"/>
      <point x="249" y="-111" type="line"/>
      <point x="249" y="679" type="line"/>
      <point x="29" y="691" type="line"/>
      <point x="23" y="607" type="line"/>
      <point x="97" y="589" type="line"/>
      <point x="97" y="-31" type="line"/>
      <point x="23" y="-48" type="line"/>
    </contour>
  </outline>
</glyph>
<glyph name="asciicircum" format="2">
  <advance width="543"/>
  <unicode hex="005E"/>
  <outline>
    <contour>
      <point x="147" y="231" type="line"/>
      <point x="272" y="479" type="line"/>
      <point x="396" y="231" type="line"/>
      <point x="503" y="283" type="line"/>
      <point x="339" y="603" type="line"/>
      <point x="204" y="603" type="line"/>
      <point x="40" y="283" type="line"/>
    </contour>
  </outline>
</glyph>
<glyph name="underscore" format="2">
  <advance width="408"/>
  <unicode hex="005F"/>
  <outline>
    <contour>
      <point x="15" y="-193" type="line"/>
      <point x="393" y="-193" type="line"/>
      <point x="393" y="-73" type="line"/>
      <point x="15" y="-73" type="line"/>
    </contour>
  </outline>
</glyph>
<glyph name="grave" format="2">
  <advance width="234"/>
  <unicode hex="0060"/>
  <outline>
    <contour>
      <point x="185" y="516" type="line"/>
      <point x="234" y="574" type="line"/>
      <point x="89" y="732" type="line"/>
      <point x="0" y="653" type="line"/>
      <point x="7" y="599" type="line"/>
    </contour>
  </outline>
</glyph>
<glyph name="a" format="2">
  <advance width="507"/>
  <unicode hex="0061"/>
  <anchor x="258" y="0" name="bottom"/>
  <anchor x="449" y="10" name="ogonek"/>
  <anchor x="258" y="462" name="top"/>
  <outline>
    <contour>
      <point x="201" y="-13" type="curve" smooth="yes"/>
      <point x="206" y="-13"/>
      <point x="265" y="32"/>
      <point x="289" y="51" type="curve"/>
      <point x="289" y="30" type="line" smooth="yes"/>
      <point x="289" y="22"/>
      <point x="322" y="-13"/>
      <point x="329" y="-13" type="curve" smooth="yes"/>
      <point x="347" y="-13"/>
      <point x="499" y="10"/>
      <point x="499" y="10" type="curve"/>
      <point x="499" y="79" type="line"/>
      <point x="455" y="94" type="line"/>
      <point x="455" y="443" type="line"/>
      <point x="455" y="443"/>
      <point x="258" y="476"/>
      <point x="242" y="476" type="curve" smooth="yes"/>
      <point x="210" y="476"/>
      <point x="75" y="395"/>
      <point x="47" y="364" type="curve"/>
      <point x="34" y="331"/>
      <point x="20" y="266"/>
      <point x="20" y="205" type="curve" smooth="yes"/>
      <point x="20" y="75"/>
      <point x="82" y="-13"/>
    </contour>
    <contour>
      <point x="238" y="103" type="curve" smooth="yes"/>
      <point x="215" y="103"/>
      <point x="205" y="163"/>
      <point x="205" y="220" type="curve" smooth="yes"/>
      <point x="205" y="326"/>
      <point x="212" y="389"/>
      <point x="226" y="399" type="curve" smooth="yes"/>
      <point x="234" y="405"/>
      <point x="265" y="378"/>
      <point x="282" y="363" type="curve"/>
      <point x="282" y="124" type="line"/>
      <point x="282" y="124"/>
      <point x="244" y="103"/>
    </contour>
  </outline>
</glyph>
<glyph name="b" format="2">
  <advance width="495"/>
  <unicode hex="0062"/>
  <outline>
    <contour>
      <point x="253" y="-13" type="curve" smooth="yes"/>
      <point x="285" y="-13"/>
      <point x="420" y="68"/>
      <point x="448" y="99" type="curve"/>
      <point x="461" y="130"/>
      <point x="475" y="192"/>
      <point x="475" y="249" type="curve" smooth="yes"/>
      <point x="475" y="385"/>
      <point x="413" y="476"/>
      <point x="294" y="476" type="curve" smooth="yes"/>
      <point x="289" y="476"/>
      <point x="237" y="436"/>
      <point x="211" y="416" type="curve"/>
      <point x="204" y="418" type="line"/>
      <point x="213" y="621" type="line" smooth="yes"/>
      <point x="213" y="629"/>
      <point x="180" y="664"/>
      <point x="173" y="664" type="curve" smooth="yes"/>
      <point x="156" y="664"/>
      <point x="31" y="647"/>
      <point x="-4" y="641" type="curve"/>
      <point x="-4" y="572" type="line"/>
      <point x="40" y="557" type="line"/>
      <point x="40" y="28" type="line"/>
      <point x="86" y="18"/>
      <point x="240" y="-13"/>
    </contour>
    <contour>
      <point x="270" y="65" type="curve" smooth="yes"/>
      <point x="262" y="57"/>
      <point x="233" y="82"/>
      <point x="213" y="100" type="curve"/>
      <point x="213" y="339" type="line"/>
      <point x="229" y="348"/>
      <point x="253" y="360"/>
      <point x="257" y="360" type="curve" smooth="yes"/>
      <point x="280" y="360"/>
      <point x="290" y="296"/>
      <point x="290" y="234" type="curve" smooth="yes"/>
      <point x="290" y="134"/>
      <point x="282" y="76"/>
    </contour>
  </outline>
</glyph>
<glyph name="c" format="2">
  <advance width="399"/>
  <unicode hex="0063"/>
  <anchor x="208" y="0" name="bottom"/>
  <anchor x="205" y="462" name="top"/>
  <outline>
    <contour>
      <point x="207" y="-13" type="curve" smooth="yes"/>
      <point x="252" y="-13"/>
      <point x="351" y="30"/>
      <point x="380" y="41" type="curve"/>
      <point x="380" y="111" type="line"/>
      <point x="266" y="111" type="line" smooth="yes"/>
      <point x="214" y="111"/>
      <point x="201" y="170"/>
      <point x="201" y="235" type="curve" smooth="yes"/>
      <point x="201" y="316"/>
      <point x="208" y="376"/>
      <point x="220" y="386" type="curve" smooth="yes"/>
      <point x="223" y="389"/>
      <point x="227" y="390"/>
      <point x="231" y="390" type="curve" smooth="yes"/>
      <point x="241" y="390"/>
      <point x="253" y="383"/>
      <point x="266" y="375" type="curve"/>
      <point x="284" y="291" type="line"/>
      <point x="377" y="291" type="line"/>
      <point x="380" y="452" type="line"/>
      <point x="336" y="467"/>
      <point x="276" y="476"/>
      <point x="238" y="476" type="curve" smooth="yes"/>
      <point x="207" y="476"/>
      <point x="74" y="391"/>
      <point x="47" y="360" type="curve"/>
      <point x="34" y="327"/>
      <point x="20" y="266"/>
      <point x="20" y="205" type="curve" smooth="yes"/>
      <point x="20" y="75"/>
      <point x="84" y="-13"/>
    </contour>
  </outline>
</glyph>
<glyph name="d" format="2">
  <advance width="507"/>
  <unicode hex="0064"/>
  <anchor x="253" y="0" name="bottom"/>
  <anchor x="325" y="520" name="center"/>
  <anchor x="253" y="750" name="top"/>
  <anchor x="468" y="462" name="topright"/>
  <outline>
    <contour>
      <point x="201" y="-13" type="curve" smooth="yes"/>
      <point x="206" y="-13"/>
      <point x="265" y="32"/>
      <point x="289" y="51" type="curve"/>
      <point x="289" y="30" type="line" smooth="yes"/>
      <point x="289" y="22"/>
      <point x="322" y="-13"/>
      <point x="329" y="-13" type="curve" smooth="yes"/>
      <point x="347" y="-13"/>
      <point x="499" y="10"/>
      <point x="499" y="10" type="curve"/>
      <point x="499" y="79" type="line"/>
      <point x="455" y="94" type="line"/>
      <point x="455" y="440" type="line"/>
      <point x="462" y="622" type="line" smooth="yes"/>
      <point x="462" y="630"/>
      <point x="429" y="665"/>
      <point x="422" y="665" type="curve" smooth="yes"/>
      <point x="403" y="665"/>
      <point x="238" y="642"/>
      <point x="238" y="642" type="curve"/>
      <point x="238" y="573" type="line"/>
      <point x="282" y="558" type="line"/>
      <point x="282" y="472" type="line"/>
      <point x="261" y="475"/>
      <point x="246" y="477"/>
      <point x="242" y="477" type="curve" smooth="yes"/>
      <point x="210" y="477"/>
      <point x="75" y="396"/>
      <point x="47" y="365" type="curve"/>
      <point x="34" y="332"/>
      <point x="20" y="266"/>
      <point x="20" y="205" type="curve" smooth="yes"/>
      <point x="20" y="75"/>
      <point x="82" y="-13"/>
    </contour>
    <contour>
      <point x="238" y="103" type="curve" smooth="yes"/>
      <point x="215" y="103"/>
      <point x="205" y="163"/>
      <point x="205" y="220" type="curve" smooth="yes"/>
      <point x="205" y="326"/>
      <point x="212" y="389"/>
      <point x="226" y="399" type="curve" smooth="yes"/>
      <point x="235" y="406"/>
      <point x="273" y="372"/>
      <point x="282" y="363" type="curve"/>
      <point x="282" y="124" type="line"/>
      <point x="282" y="124"/>
      <point x="244" y="103"/>
    </contour>
  </outline>
</glyph>
<glyph name="e" format="2">
  <advance width="447"/>
  <unicode hex="0065"/>
  <anchor x="240" y="0" name="bottom"/>
  <anchor x="365" y="44" name="ogonek"/>
  <anchor x="219" y="462" name="top"/>
  <outline>
    <contour>
      <point x="227" y="-14" type="curve" smooth="yes"/>
      <point x="251" y="-14"/>
      <point x="384" y="32"/>
      <point x="415" y="44" type="curve"/>
      <point x="415" y="114" type="line"/>
      <point x="387" y="113"/>
      <point x="307" y="109"/>
      <point x="255" y="106" type="curve"/>
      <point x="216" y="106"/>
      <point x="197" y="154"/>
      <point x="197" y="201" type="curve"/>
      <point x="432" y="221" type="line"/>
      <point x="432" y="416"/>
      <point x="364" y="476"/>
      <point x="242" y="476" type="curve" smooth="yes"/>
      <point x="210" y="476"/>
      <point x="75" y="395"/>
      <point x="47" y="364" type="curve"/>
      <point x="34" y="331"/>
      <point x="20" y="265"/>
      <point x="20" y="204" type="curve" smooth="yes"/>
      <point x="20" y="74"/>
      <point x="91" y="-14"/>
    </contour>
    <contour>
      <point x="196" y="277" type="line"/>
      <point x="200" y="352"/>
      <point x="212" y="402"/>
      <point x="219" y="402" type="curve" smooth="yes"/>
      <point x="221" y="402"/>
      <point x="240" y="400"/>
      <point x="246" y="397" type="curve" smooth="yes"/>
      <point x="260" y="388"/>
      <point x="270" y="342"/>
      <point x="270" y="288" type="curve"/>
    </contour>
  </outline>
</glyph>
<glyph name="f" format="2">
  <advance width="329"/>
  <unicode hex="0066"/>
  <anchor x="203" y="640" name="top"/>
  <outline>
    <contour>
      <point x="106" y="-13" type="curve" smooth="yes"/>
      <point x="123" y="-13"/>
      <point x="290" y="16"/>
      <point x="290" y="16" type="curve"/>
      <point x="290" y="76" type="line"/>
      <point x="226" y="100" type="line"/>
      <point x="226" y="375" type="line"/>
      <point x="335" y="375" type="line"/>
      <point x="335" y="462" type="line"/>
      <point x="226" y="462" type="line"/>
      <point x="226" y="528" type="line" smooth="yes"/>
      <point x="226" y="557"/>
      <point x="233" y="569"/>
      <point x="238" y="569" type="curve" smooth="yes"/>
      <point x="252" y="569"/>
      <point x="333" y="529"/>
      <point x="352" y="520" type="curve"/>
      <point x="355" y="520"/>
      <point x="389" y="602"/>
      <point x="389" y="609" type="curve" smooth="yes"/>
      <point x="389" y="616"/>
      <point x="376" y="651"/>
      <point x="369" y="658" type="curve"/>
      <point x="326" y="661"/>
      <point x="234" y="665"/>
      <point x="220" y="665" type="curve" smooth="yes"/>
      <point x="175" y="665"/>
      <point x="53" y="548"/>
      <point x="53" y="506" type="curve" smooth="yes"/>
      <point x="53" y="467" type="line"/>
      <point x="-5" y="448" type="line"/>
      <point x="-5" y="376" type="line"/>
      <point x="53" y="376" type="line"/>
      <point x="53" y="31" type="line" smooth="yes"/>
      <point x="53" y="24"/>
      <point x="98" y="-13"/>
    </contour>
  </outline>
</glyph>
<glyph name="g" format="2">
  <advance width="469"/>
  <unicode hex="0067"/>
  <anchor x="241" y="462" name="top"/>
  <outline>
    <contour>
      <point x="215" y="-186" type="curve" smooth="yes"/>
      <point x="280" y="-186"/>
      <point x="434" y="-89"/>
      <point x="434" y="-22" type="curve" smooth="yes"/>
      <point x="434" y="436" type="line"/>
      <point x="349" y="454"/>
      <point x="233" y="477"/>
      <point x="221" y="477" type="curve" smooth="yes"/>
      <point x="193" y="477"/>
      <point x="72" y="396"/>
      <point x="46" y="365" type="curve"/>
      <point x="33" y="336"/>
      <point x="19" y="278"/>
      <point x="19" y="225" type="curve" smooth="yes"/>
      <point x="19" y="133"/>
      <point x="61" y="66"/>
      <point x="141" y="44" type="curve"/>
      <point x="19" y="-65" type="line"/>
      <point x="10" y="-156" type="line"/>
      <point x="49" y="-167"/>
      <point x="166" y="-186"/>
    </contour>
    <contour>
      <point x="245" y="-112" type="curve" smooth="yes"/>
      <point x="229" y="-112"/>
      <point x="165" y="-92"/>
      <point x="154" y="-85" type="curve"/>
      <point x="154" y="-77" type="line"/>
      <point x="171" y="-58"/>
      <point x="236" y="11"/>
      <point x="265" y="42" type="curve"/>
      <point x="271" y="39" type="line"/>
      <point x="271" y="-6" type="line" smooth="yes"/>
      <point x="271" y="-54"/>
      <point x="261" y="-112"/>
    </contour>
    <contour>
      <point x="232" y="131" type="curve" smooth="yes"/>
      <point x="209" y="131"/>
      <point x="199" y="186"/>
      <point x="199" y="250" type="curve" smooth="yes"/>
      <point x="199" y="339"/>
      <point x="207" y="393"/>
      <point x="221" y="401" type="curve" smooth="yes"/>
      <point x="226" y="404"/>
      <point x="250" y="382"/>
      <point x="266" y="364" type="curve"/>
      <point x="266" y="154" type="line"/>
      <point x="254" y="144"/>
      <point x="236" y="131"/>
    </contour>
  </outline>
</glyph>
<glyph name="h" format="2">
  <advance width="509"/>
  <unicode hex="0068"/>
  <anchor x="270" y="0" name="bottom"/>
  <anchor x="172" y="520" name="center"/>
  <anchor x="111" y="640" name="top"/>
  <outline>
    <contour>
      <point x="92" y="-13" type="curve" smooth="yes"/>
      <point x="104" y="-13"/>
      <point x="193" y="1"/>
      <point x="256" y="12" type="curve"/>
      <point x="256" y="80" type="line"/>
      <point x="213" y="95" type="line"/>
      <point x="213" y="341" type="line"/>
      <point x="227" y="348"/>
      <point x="251" y="360"/>
      <point x="257" y="360" type="curve" smooth="yes"/>
      <point x="266" y="360"/>
      <point x="285" y="355"/>
      <point x="285" y="331" type="curve" smooth="yes"/>
      <point x="285" y="31" type="line" smooth="yes"/>
      <point x="285" y="22"/>
      <point x="329" y="-13"/>
      <point x="338" y="-13" type="curve" smooth="yes"/>
      <point x="349" y="-13"/>
      <point x="437" y="1"/>
      <point x="501" y="12" type="curve"/>
      <point x="501" y="80" type="line"/>
      <point x="458" y="95" type="line"/>
      <point x="458" y="333" type="line" smooth="yes"/>
      <point x="458" y="443"/>
      <point x="399" y="476"/>
      <point x="298" y="476" type="curve" smooth="yes"/>
      <point x="290" y="476"/>
      <point x="242" y="441"/>
      <point x="212" y="417" type="curve"/>
      <point x="204" y="419" type="line"/>
      <point x="213" y="622" type="line" smooth="yes"/>
      <point x="213" y="630"/>
      <point x="180" y="665"/>
      <point x="173" y="665" type="curve" smooth="yes"/>
      <point x="160" y="665"/>
      <point x="64" y="652"/>
      <point x="-4" y="642" type="curve"/>
      <point x="-4" y="573" type="line"/>
      <point x="40" y="558" type="line"/>
      <point x="40" y="31" type="line" smooth="yes"/>
      <point x="40" y="22"/>
      <point x="83" y="-13"/>
    </contour>
  </outline>
</glyph>
<glyph name="j" format="2">
  <advance width="265"/>
  <unicode hex="006A"/>
  <outline>
    <contour>
      <point x="88" y="-186" type="curve" smooth="yes"/>
      <point x="125" y="-186"/>
      <point x="229" y="-87"/>
      <point x="229" y="-23" type="curve" smooth="yes"/>
      <point x="229" y="433" type="line" smooth="yes"/>
      <point x="229" y="441"/>
      <point x="196" y="476"/>
      <point x="189" y="476" type="curve" smooth="yes"/>
      <point x="176" y="476"/>
      <point x="80" y="463"/>
      <point x="12" y="453" type="curve"/>
      <point x="12" y="384" type="line"/>
      <point x="56" y="369" type="line"/>
      <point x="56" y="12" type="line" smooth="yes"/>
      <point x="56" y="-14"/>
      <point x="53" y="-63"/>
      <point x="35" y="-73" type="curve"/>
      <point x="28" y="-78"/>
      <point x="-46" y="-84"/>
      <point x="-65" y="-84" type="curve"/>
      <point x="-65" y="-166" type="line"/>
      <point x="-8" y="-176"/>
      <point x="63" y="-186"/>
    </contour>
    <contour>
      <point x="67" y="530" type="line"/>
      <point x="219" y="530" type="line"/>
      <point x="230" y="634" type="line"/>
      <point x="204" y="664" type="line"/>
      <point x="55" y="657" type="line"/>
    </contour>
  </outline>
</glyph>
<glyph name="k" format="2">
  <advance width="511"/>
  <unicode hex="006B"/>
  <anchor x="251" y="0" name="bottom"/>
  <outline>
    <contour>
      <point x="360" y="-13" type="curve" smooth="yes"/>
      <point x="370" y="-13"/>
      <point x="507" y="12"/>
      <point x="507" y="12" type="curve"/>
      <point x="507" y="80" type="line"/>
      <point x="464" y="95" type="line"/>
      <point x="368" y="258" type="line"/>
      <point x="499" y="405" type="line"/>
      <point x="499" y="416"/>
      <point x="480" y="473"/>
      <point x="472" y="473" type="curve" smooth="yes"/>
      <point x="462" y="473"/>
      <point x="261" y="462"/>
      <point x="261" y="462" type="curve"/>
      <point x="261" y="388" type="line"/>
      <point x="332" y="378" type="line"/>
      <point x="230" y="263" type="line"/>
      <point x="230" y="202" type="line"/>
      <point x="311" y="17" type="line"/>
      <point x="317" y="8"/>
      <point x="352" y="-13"/>
    </contour>
    <contour>
      <point x="92" y="-13" type="curve" smooth="yes"/>
      <point x="109" y="-13"/>
      <point x="252" y="12"/>
      <point x="252" y="12" type="curve"/>
      <point x="252" y="80" type="line"/>
      <point x="213" y="95" type="line"/>
      <point x="213" y="622" type="line" smooth="yes"/>
      <point x="213" y="630"/>
      <point x="180" y="665"/>
      <point x="173" y="665" type="curve" smooth="yes"/>
      <point x="155" y="665"/>
      <point x="-4" y="642"/>
      <point x="-4" y="642" type="curve"/>
      <point x="-4" y="573" type="line"/>
      <point x="40" y="558" type="line"/>
      <point x="40" y="31" type="line" smooth="yes"/>
      <point x="40" y="22"/>
      <point x="83" y="-13"/>
    </contour>
  </outline>
</glyph>
<glyph name="l" format="2">
  <advance width="264"/>
  <unicode hex="006C"/>
  <anchor x="134" y="0" name="bottom"/>
  <anchor x="134" y="329" name="center"/>
  <anchor x="130" y="642" name="top"/>
  <anchor x="245" y="462" name="topright"/>
  <outline>
    <contour>
      <point x="92" y="-13" type="curve" smooth="yes"/>
      <point x="109" y="-13"/>
      <point x="256" y="12"/>
      <point x="256" y="12" type="curve"/>
      <point x="256" y="80" type="line"/>
      <point x="213" y="95" type="line"/>
      <point x="213" y="622" type="line" smooth="yes"/>
      <point x="213" y="630"/>
      <point x="180" y="665"/>
      <point x="173" y="665" type="curve" smooth="yes"/>
      <point x="155" y="665"/>
      <point x="-4" y="642"/>
      <point x="-4" y="642" type="curve"/>
      <point x="-4" y="573" type="line"/>
      <point x="40" y="558" type="line"/>
      <point x="40" y="31" type="line" smooth="yes"/>
      <point x="40" y="22"/>
      <point x="83" y="-13"/>
    </contour>
  </outline>
</glyph>
<glyph name="m" format="2">
  <advance width="752"/>
  <unicode hex="006D"/>
  <outline>
    <contour>
      <point x="106" y="-13" type="curve" smooth="yes"/>
      <point x="122" y="-13"/>
      <point x="265" y="12"/>
      <point x="265" y="12" type="curve"/>
      <point x="265" y="80" type="line"/>
      <point x="227" y="95" type="line"/>
      <point x="227" y="340" type="line"/>
      <point x="227" y="340"/>
      <point x="259" y="359"/>
      <point x="263" y="359" type="curve" smooth="yes"/>
      <point x="272" y="359"/>
      <point x="291" y="355"/>
      <point x="291" y="330" type="curve" smooth="yes"/>
      <point x="291" y="31" type="line" smooth="yes"/>
      <point x="291" y="22"/>
      <point x="335" y="-13"/>
      <point x="344" y="-13" type="curve" smooth="yes"/>
      <point x="359" y="-13"/>
      <point x="502" y="12"/>
      <point x="502" y="12" type="curve"/>
      <point x="502" y="80" type="line"/>
      <point x="464" y="95" type="line"/>
      <point x="464" y="340" type="line"/>
      <point x="464" y="340"/>
      <point x="496" y="359"/>
      <point x="500" y="359" type="curve" smooth="yes"/>
      <point x="509" y="359"/>
      <point x="528" y="355"/>
      <point x="528" y="330" type="curve" smooth="yes"/>
      <point x="528" y="31" type="line" smooth="yes"/>
      <point x="528" y="22"/>
      <point x="572" y="-13"/>
      <point x="581" y="-13" type="curve" smooth="yes"/>
      <point x="596" y="-13"/>
      <point x="744" y="12"/>
      <point x="744" y="12" type="curve"/>
      <point x="744" y="80" type="line"/>
      <point x="701" y="95" type="line"/>
      <point x="701" y="332" type="line" smooth="yes"/>
      <point x="701" y="442"/>
      <point x="642" y="475"/>
      <point x="529" y="475" type="curve" smooth="yes"/>
      <point x="521" y="475"/>
      <point x="477" y="437"/>
      <point x="449" y="413" type="curve"/>
      <point x="425" y="458"/>
      <point x="373" y="475"/>
      <point x="304" y="475" type="curve" smooth="yes"/>
      <point x="296" y="475"/>
      <point x="248" y="437"/>
      <point x="220" y="413" type="curve"/>
      <point x="220" y="432" type="line" smooth="yes"/>
      <point x="220" y="440"/>
      <point x="187" y="475"/>
      <point x="180" y="475" type="curve" smooth="yes"/>
      <point x="162" y="475"/>
      <point x="10" y="452"/>
      <point x="10" y="452" type="curve"/>
      <point x="10" y="383" type="line"/>
      <point x="54" y="368" type="line"/>
      <point x="54" y="31" type="line" smooth="yes"/>
      <point x="54" y="22"/>
      <point x="97" y="-13"/>
    </contour>
  </outline>
</glyph>
<glyph name="n" format="2">
  <advance width="523"/>
  <unicode hex="006E"/>
  <anchor x="276" y="0" name="bottom"/>
  <anchor x="256" y="462" name="top"/>
  <anchor x="-47" y="462" name="topleft"/>
  <outline>
    <contour>
      <point x="106" y="-13" type="curve" smooth="yes"/>
      <point x="118" y="-13"/>
      <point x="207" y="1"/>
      <point x="270" y="12" type="curve"/>
      <point x="270" y="80" type="line"/>
      <point x="227" y="95" type="line"/>
      <point x="227" y="341" type="line"/>
      <point x="246" y="350"/>
      <point x="268" y="360"/>
      <point x="271" y="360" type="curve" smooth="yes"/>
      <point x="280" y="360"/>
      <point x="299" y="356"/>
      <point x="299" y="331" type="curve" smooth="yes"/>
      <point x="299" y="31" type="line" smooth="yes"/>
      <point x="299" y="22"/>
      <point x="343" y="-13"/>
      <point x="352" y="-13" type="curve" smooth="yes"/>
      <point x="363" y="-13"/>
      <point x="451" y="1"/>
      <point x="515" y="12" type="curve"/>
      <point x="515" y="80" type="line"/>
      <point x="472" y="95" type="line"/>
      <point x="472" y="333" type="line" smooth="yes"/>
      <point x="472" y="443"/>
      <point x="413" y="476"/>
      <point x="312" y="476" type="curve" smooth="yes"/>
      <point x="304" y="476"/>
      <point x="250" y="438"/>
      <point x="220" y="414" type="curve"/>
      <point x="220" y="433" type="line" smooth="yes"/>
      <point x="220" y="441"/>
      <point x="187" y="476"/>
      <point x="180" y="476" type="curve" smooth="yes"/>
      <point x="167" y="476"/>
      <point x="75" y="463"/>
      <point x="10" y="453" type="curve"/>
      <point x="10" y="384" type="line"/>
      <point x="54" y="369" type="line"/>
      <point x="54" y="31" type="line" smooth="yes"/>
      <point x="54" y="22"/>
      <point x="97" y="-13"/>
    </contour>
  </outline>
</glyph>
<glyph name="o" format="2">
  <advance width="511"/>
  <unicode hex="006F"/>
  <anchor x="256" y="0" name="bottom"/>
  <anchor x="254" y="231" name="center"/>
  <anchor x="260" y="0" name="ogonek"/>
  <anchor x="261" y="462" name="top"/>
  <anchor x="348" y="462" name="topright"/>
  <outline>
    <contour>
      <point x="270" y="-13" type="curve" smooth="yes"/>
      <point x="302" y="-13"/>
      <point x="436" y="67"/>
      <point x="464" y="99" type="curve"/>
      <point x="477" y="130"/>
      <point x="491" y="189"/>
      <point x="491" y="255" type="curve" smooth="yes"/>
      <point x="491" y="396"/>
      <point x="408" y="476"/>
      <point x="246" y="476" type="curve" smooth="yes"/>
      <point x="214" y="476"/>
      <point x="75" y="392"/>
      <point x="47" y="360" type="curve"/>
      <point x="34" y="329"/>
      <point x="20" y="264"/>
      <point x="20" y="207" type="curve" smooth="yes"/>
      <point x="20" y="56"/>
      <point x="112" y="-13"/>
    </contour>
    <contour>
      <point x="269" y="69" type="curve"/>
      <point x="239" y="69"/>
      <point x="205" y="101"/>
      <point x="205" y="222" type="curve" smooth="yes"/>
      <point x="205" y="322"/>
      <point x="214" y="390"/>
      <point x="227" y="394" type="curve" smooth="yes"/>
      <point x="233" y="396"/>
      <point x="238" y="396"/>
      <point x="243" y="396" type="curve" smooth="yes"/>
      <point x="295" y="396"/>
      <point x="306" y="314"/>
      <point x="306" y="240" type="curve" smooth="yes"/>
      <point x="306" y="159"/>
      <point x="301" y="111"/>
      <point x="297" y="81" type="curve"/>
      <point x="297" y="81"/>
      <point x="273" y="70"/>
    </contour>
  </outline>
</glyph>
<glyph name="p" format="2">
  <advance width="509"/>
  <unicode hex="0070"/>
  <outline>
    <contour>
      <point x="87" y="-186" type="curve" smooth="yes"/>
      <point x="104" y="-186"/>
      <point x="230" y="-172"/>
      <point x="271" y="-163" type="curve"/>
      <point x="271" y="-94" type="line"/>
      <point x="227" y="-79" type="line"/>
      <point x="227" y="-8" type="line"/>
      <point x="248" y="-11"/>
      <point x="263" y="-13"/>
      <point x="267" y="-13" type="curve" smooth="yes"/>
      <point x="299" y="-13"/>
      <point x="434" y="68"/>
      <point x="462" y="99" type="curve"/>
      <point x="475" y="130"/>
      <point x="489" y="192"/>
      <point x="489" y="249" type="curve" smooth="yes"/>
      <point x="489" y="385"/>
      <point x="427" y="476"/>
      <point x="308" y="476" type="curve" smooth="yes"/>
      <point x="303" y="476"/>
      <point x="244" y="431"/>
      <point x="220" y="412" type="curve"/>
      <point x="220" y="433" type="line" smooth="yes"/>
      <point x="220" y="441"/>
      <point x="187" y="476"/>
      <point x="180" y="476" type="curve" smooth="yes"/>
      <point x="163" y="476"/>
      <point x="47" y="459"/>
      <point x="10" y="453" type="curve"/>
      <point x="10" y="384" type="line"/>
      <point x="54" y="369" type="line"/>
      <point x="54" y="39" type="line"/>
      <point x="47" y="-143" type="line" smooth="yes"/>
      <point x="47" y="-151"/>
      <point x="80" y="-186"/>
    </contour>
    <contour>
      <point x="284" y="65" type="curve" smooth="yes"/>
      <point x="276" y="57"/>
      <point x="247" y="82"/>
      <point x="227" y="100" type="curve"/>
      <point x="227" y="339" type="line"/>
      <point x="240" y="346"/>
      <point x="267" y="360"/>
      <point x="271" y="360" type="curve" smooth="yes"/>
      <point x="294" y="360"/>
      <point x="304" y="296"/>
      <point x="304" y="234" type="curve" smooth="yes"/>
      <point x="304" y="134"/>
      <point x="296" y="77"/>
    </contour>
  </outline>
</glyph>
<glyph name="q" format="2">
  <advance width="499"/>
  <unicode hex="0071"/>
  <outline>
    <contour>
      <point x="322" y="-186" type="curve" smooth="yes"/>
      <point x="335" y="-186"/>
      <point x="431" y="-173"/>
      <point x="499" y="-163" type="curve"/>
      <point x="499" y="-94" type="line"/>
      <point x="455" y="-79" type="line"/>
      <point x="455" y="436" type="line"/>
      <point x="370" y="454"/>
      <point x="254" y="477"/>
      <point x="242" y="477" type="curve" smooth="yes"/>
      <point x="210" y="477"/>
      <point x="75" y="395"/>
      <point x="47" y="364" type="curve"/>
      <point x="34" y="331"/>
      <point x="20" y="266"/>
      <point x="20" y="205" type="curve" smooth="yes"/>
      <point x="20" y="75"/>
      <point x="82" y="-13"/>
      <point x="201" y="-13" type="curve" smooth="yes"/>
      <point x="206" y="-13"/>
      <point x="258" y="27"/>
      <point x="284" y="47" type="curve"/>
      <point x="291" y="45" type="line"/>
      <point x="282" y="-143" type="line" smooth="yes"/>
      <point x="282" y="-151"/>
      <point x="315" y="-186"/>
    </contour>
    <contour>
      <point x="238" y="103" type="curve" smooth="yes"/>
      <point x="215" y="103"/>
      <point x="205" y="163"/>
      <point x="205" y="220" type="curve" smooth="yes"/>
      <point x="205" y="326"/>
      <point x="212" y="388"/>
      <point x="226" y="399" type="curve" smooth="yes"/>
      <point x="234" y="405"/>
      <point x="265" y="378"/>
      <point x="282" y="363" type="curve"/>
      <point x="282" y="124" type="line"/>
      <point x="266" y="115"/>
      <point x="242" y="103"/>
    </contour>
  </outline>
</glyph>
<glyph name="r" format="2">
  <advance width="393"/>
  <unicode hex="0072"/>
  <anchor x="190" y="-10" name="bottom"/>
  <anchor x="195" y="462" name="top"/>
  <outline>
    <contour>
      <point x="106" y="-13" type="curve" smooth="yes"/>
      <point x="126" y="-13"/>
      <point x="300" y="16"/>
      <point x="300" y="16" type="curve"/>
      <point x="300" y="88" type="line"/>
      <point x="227" y="109" type="line"/>
      <point x="227" y="307" type="line"/>
      <point x="227" y="307"/>
      <point x="269" y="320"/>
      <point x="276" y="320" type="curve" smooth="yes"/>
      <point x="293" y="320"/>
      <point x="343" y="291"/>
      <point x="343" y="291" type="curve" smooth="yes"/>
      <point x="350" y="291"/>
      <point x="398" y="389"/>
      <point x="398" y="412" type="curve" smooth="yes"/>
      <point x="398" y="433"/>
      <point x="385" y="460"/>
      <point x="383" y="467" type="curve"/>
      <point x="370" y="471"/>
      <point x="338" y="480"/>
      <point x="307" y="480" type="curve" smooth="yes"/>
      <point x="300" y="480"/>
      <point x="249" y="421"/>
      <point x="220" y="385" type="curve"/>
      <point x="220" y="433" type="line" smooth="yes"/>
      <point x="220" y="441"/>
      <point x="187" y="476"/>
      <point x="180" y="476" type="curve" smooth="yes"/>
      <point x="162" y="476"/>
      <point x="10" y="453"/>
      <point x="10" y="453" type="curve"/>
      <point x="10" y="384" type="line"/>
      <point x="54" y="369" type="line"/>
      <point x="54" y="31" type="line" smooth="yes"/>
      <point x="54" y="22"/>
      <point x="97" y="-13"/>
    </contour>
  </outline>
</glyph>
<glyph name="s" format="2">
  <advance width="402"/>
  <unicode hex="0073"/>
  <anchor x="197" y="0" name="bottom"/>
  <anchor x="199" y="462" name="top"/>
  <outline>
    <contour>
      <point x="246" y="-13" type="curve" smooth="yes"/>
      <point x="284" y="-13"/>
      <point x="361" y="66"/>
      <point x="383" y="102" type="curve"/>
      <point x="390" y="119"/>
      <point x="392" y="146"/>
      <point x="392" y="165" type="curve" smooth="yes"/>
      <point x="392" y="232"/>
      <point x="306" y="276"/>
      <point x="244" y="311" type="curve" smooth="yes"/>
      <point x="218" y="325"/>
      <point x="160" y="354"/>
      <point x="160" y="378" type="curve" smooth="yes"/>
      <point x="160" y="379"/>
      <point x="161" y="395"/>
      <point x="170" y="395" type="curve" smooth="yes"/>
      <point x="183" y="395"/>
      <point x="256" y="379"/>
      <point x="267" y="375" type="curve"/>
      <point x="273" y="319" type="line"/>
      <point x="362" y="319" type="line"/>
      <point x="365" y="468" type="line"/>
      <point x="321" y="473"/>
      <point x="200" y="476"/>
      <point x="162" y="476" type="curve" smooth="yes"/>
      <point x="133" y="476"/>
      <point x="53" y="415"/>
      <point x="26" y="381" type="curve"/>
      <point x="20" y="365"/>
      <point x="18" y="345"/>
      <point x="18" y="327" type="curve" smooth="yes"/>
      <point x="18" y="276"/>
      <point x="35" y="238"/>
      <point x="134" y="181" type="curve" smooth="yes"/>
      <point x="192" y="147"/>
      <point x="238" y="137"/>
      <point x="238" y="102" type="curve" smooth="yes"/>
      <point x="238" y="101"/>
      <point x="235" y="68"/>
      <point x="225" y="68" type="curve" smooth="yes"/>
      <point x="205" y="68"/>
      <point x="151" y="82"/>
      <point x="119" y="93" type="curve"/>
      <point x="98" y="174" type="line"/>
      <point x="18" y="174" type="line"/>
      <point x="15" y="0" type="line"/>
      <point x="75" y="-6"/>
      <point x="213" y="-13"/>
    </contour>
  </outline>
</glyph>
<glyph name="t" format="2">
  <advance width="363"/>
  <unicode hex="0074"/>
  <anchor x="228" y="0" name="bottom"/>
  <anchor x="171" y="243" name="center"/>
  <anchor x="246" y="462" name="topright"/>
  <outline>
    <contour>
      <point x="155" y="-13" type="curve" smooth="yes"/>
      <point x="174" y="-13"/>
      <point x="289" y="-2"/>
      <point x="359" y="7" type="curve"/>
      <point x="359" y="90" type="line"/>
      <point x="266" y="96" type="line" smooth="yes"/>
      <point x="254" y="97"/>
      <point x="244" y="103"/>
      <point x="244" y="129" type="curve" smooth="yes"/>
      <point x="244" y="375" type="line"/>
      <point x="347" y="375" type="line"/>
      <point x="347" y="462" type="line"/>
      <point x="244" y="462" type="line"/>
      <point x="244" y="579" type="line"/>
      <point x="220" y="588"/>
      <point x="187" y="598"/>
      <point x="181" y="594" type="curve" smooth="yes"/>
      <point x="71" y="467" type="line"/>
      <point x="-4" y="442" type="line"/>
      <point x="-4" y="376" type="line"/>
      <point x="71" y="376" type="line"/>
      <point x="71" y="88" type="line" smooth="yes"/>
      <point x="71" y="55"/>
      <point x="134" y="-13"/>
    </contour>
  </outline>
</glyph>
<glyph name="u" format="2">
  <advance width="525"/>
  <unicode hex="0075"/>
  <anchor x="262" y="0" name="bottom"/>
  <anchor x="465" y="10" name="ogonek"/>
  <anchor x="245" y="462" name="top"/>
  <anchor x="372" y="462" name="topright"/>
  <outline>
    <contour>
      <point x="213" y="-13" type="curve" smooth="yes"/>
      <point x="221" y="-13"/>
      <point x="275" y="25"/>
      <point x="305" y="49" type="curve"/>
      <point x="305" y="30" type="line" smooth="yes"/>
      <point x="305" y="22"/>
      <point x="338" y="-13"/>
      <point x="345" y="-13" type="curve" smooth="yes"/>
      <point x="358" y="-13"/>
      <point x="450" y="0"/>
      <point x="515" y="10" type="curve"/>
      <point x="515" y="79" type="line"/>
      <point x="471" y="94" type="line"/>
      <point x="471" y="432" type="line" smooth="yes"/>
      <point x="471" y="441"/>
      <point x="428" y="476"/>
      <point x="419" y="476" type="curve" smooth="yes"/>
      <point x="407" y="476"/>
      <point x="318" y="462"/>
      <point x="255" y="451" type="curve"/>
      <point x="255" y="383" type="line"/>
      <point x="298" y="368" type="line"/>
      <point x="298" y="122" type="line"/>
      <point x="282" y="114"/>
      <point x="258" y="103"/>
      <point x="254" y="103" type="curve" smooth="yes"/>
      <point x="245" y="103"/>
      <point x="226" y="107"/>
      <point x="226" y="132" type="curve" smooth="yes"/>
      <point x="226" y="432" type="line" smooth="yes"/>
      <point x="226" y="441"/>
      <point x="182" y="476"/>
      <point x="173" y="476" type="curve" smooth="yes"/>
      <point x="162" y="476"/>
      <point x="74" y="462"/>
      <point x="10" y="451" type="curve"/>
      <point x="10" y="383" type="line"/>
      <point x="53" y="368" type="line"/>
      <point x="53" y="130" type="line" smooth="yes"/>
      <point x="53" y="20"/>
      <point x="112" y="-13"/>
    </contour>
  </outline>
</glyph>
<glyph name="v" format="2">
  <advance width="471"/>
  <unicode hex="0076"/>
  <outline>
    <contour>
      <point x="163" y="-13" type="curve" smooth="yes"/>
      <point x="172" y="-13"/>
      <point x="345" y="6"/>
      <point x="345" y="6" type="curve"/>
      <point x="476" y="425" type="line"/>
      <point x="476" y="435"/>
      <point x="451" y="476"/>
      <point x="443" y="476" type="curve" smooth="yes"/>
      <point x="433" y="476"/>
      <point x="254" y="462"/>
      <point x="254" y="462" type="curve"/>
      <point x="254" y="389" type="line"/>
      <point x="320" y="380" type="line"/>
      <point x="265" y="134" type="line"/>
      <point x="255" y="134" type="line"/>
      <point x="248" y="219" type="line"/>
      <point x="211" y="437" type="line"/>
      <point x="208" y="447"/>
      <point x="169" y="476"/>
      <point x="162" y="476" type="curve" smooth="yes"/>
      <point x="151" y="476"/>
      <point x="0" y="452"/>
      <point x="0" y="452" type="curve"/>
      <point x="0" y="383" type="line"/>
      <point x="47" y="369" type="line"/>
      <point x="139" y="0" type="line"/>
      <point x="139" y="0"/>
      <point x="160" y="-13"/>
    </contour>
  </outline>
</glyph>
<glyph name="w" format="2">
  <advance width="727"/>
  <unicode hex="0077"/>
  <anchor x="367" y="462" name="top"/>
  <outline>
    <contour>
      <point x="143" y="-13" type="curve" smooth="yes"/>
      <point x="150" y="-13"/>
      <point x="244" y="-2"/>
      <point x="313" y="6" type="curve"/>
      <point x="368" y="159" type="line"/>
      <point x="377" y="159" type="line"/>
      <point x="426" y="0" type="line"/>
      <point x="435" y="-6"/>
      <point x="447" y="-13"/>
      <point x="450" y="-13" type="curve" smooth="yes"/>
      <point x="457" y="-13"/>
      <point x="551" y="-2"/>
      <point x="620" y="6" type="curve"/>
      <point x="720" y="425" type="line"/>
      <point x="720" y="435"/>
      <point x="694" y="476"/>
      <point x="686" y="476" type="curve" smooth="yes"/>
      <point x="679" y="476"/>
      <point x="580" y="468"/>
      <point x="508" y="462" type="curve"/>
      <point x="508" y="389" type="line"/>
      <point x="576" y="380" type="line"/>
      <point x="537" y="146" type="line"/>
      <point x="527" y="146" type="line"/>
      <point x="511" y="219" type="line"/>
      <point x="465" y="437" type="line"/>
      <point x="462" y="447"/>
      <point x="422" y="476"/>
      <point x="415" y="476" type="curve" smooth="yes"/>
      <point x="407" y="476"/>
      <point x="319" y="462"/>
      <point x="255" y="452" type="curve"/>
      <point x="255" y="383" type="line"/>
      <point x="305" y="369" type="line"/>
      <point x="329" y="306" type="line"/>
      <point x="262" y="146" type="line"/>
      <point x="252" y="146" type="line"/>
      <point x="241" y="219" type="line"/>
      <point x="208" y="437" type="line"/>
      <point x="205" y="447"/>
      <point x="165" y="476"/>
      <point x="158" y="476" type="curve" smooth="yes"/>
      <point x="150" y="476"/>
      <point x="62" y="462"/>
      <point x="-2" y="452" type="curve"/>
      <point x="-2" y="383" type="line"/>
      <point x="45" y="369" type="line"/>
      <point x="119" y="0" type="line"/>
      <point x="128" y="-6"/>
      <point x="141" y="-13"/>
    </contour>
  </outline>
</glyph>
<glyph name="x" format="2">
  <advance width="501"/>
  <unicode hex="0078"/>
  <outline>
    <contour>
      <point x="29" y="-13" type="curve" smooth="yes"/>
      <point x="39" y="-13"/>
      <point x="147" y="-6"/>
      <point x="225" y="0" type="curve"/>
      <point x="225" y="74" type="line"/>
      <point x="174" y="82" type="line"/>
      <point x="216" y="162" type="line"/>
      <point x="291" y="23" type="line" smooth="yes"/>
      <point x="296" y="13"/>
      <point x="320" y="-13"/>
      <point x="331" y="-13" type="curve" smooth="yes"/>
      <point x="338" y="-13"/>
      <point x="429" y="0"/>
      <point x="496" y="10" type="curve"/>
      <point x="496" y="83" type="line"/>
      <point x="446" y="94" type="line"/>
      <point x="355" y="236" type="line"/>
      <point x="491" y="417" type="line"/>
      <point x="491" y="427"/>
      <point x="479" y="476"/>
      <point x="473" y="476" type="curve" smooth="yes"/>
      <point x="464" y="476"/>
      <point x="361" y="468"/>
      <point x="286" y="462" type="curve"/>
      <point x="286" y="392" type="line"/>
      <point x="329" y="385" type="line"/>
      <point x="295" y="310" type="line"/>
      <point x="225" y="440" type="line" smooth="yes"/>
      <point x="219" y="451"/>
      <point x="197" y="476"/>
      <point x="187" y="476" type="curve" smooth="yes"/>
      <point x="180" y="476"/>
      <point x="89" y="463"/>
      <point x="22" y="453" type="curve"/>
      <point x="22" y="380" type="line"/>
      <point x="69" y="369" type="line"/>
      <point x="154" y="238" type="line"/>
      <point x="10" y="44" type="line"/>
      <point x="10" y="34"/>
      <point x="23" y="-13"/>
    </contour>
  </outline>
</glyph>
<glyph name="y" format="2">
  <advance width="471"/>
  <unicode hex="0079"/>
  <anchor x="492" y="44" name="bottom"/>
  <anchor x="250" y="462" name="top"/>
  <outline>
    <contour>
      <point x="214" y="-186" type="curve" smooth="yes"/>
      <point x="232" y="-186"/>
      <point x="380" y="-166"/>
      <point x="380" y="-166" type="curve"/>
      <point x="382" y="-103" type="line"/>
      <point x="327" y="-85" type="line"/>
      <point x="347" y="20" type="line"/>
      <point x="476" y="425" type="line"/>
      <point x="478" y="435"/>
      <point x="451" y="476"/>
      <point x="443" y="476" type="curve" smooth="yes"/>
      <point x="433" y="476"/>
      <point x="256" y="462"/>
      <point x="256" y="462" type="curve"/>
      <point x="256" y="389" type="line"/>
      <point x="322" y="380" type="line"/>
      <point x="265" y="124" type="line"/>
      <point x="255" y="124" type="line"/>
      <point x="250" y="219" type="line"/>
      <point x="213" y="437" type="line"/>
      <point x="210" y="447"/>
      <point x="169" y="476"/>
      <point x="162" y="476" type="curve" smooth="yes"/>
      <point x="151" y="476"/>
      <point x="2" y="452"/>
      <point x="2" y="452" type="curve"/>
      <point x="2" y="383" type="line"/>
      <point x="47" y="369" type="line"/>
      <point x="141" y="9" type="line"/>
      <point x="141" y="9"/>
      <point x="162" y="-4"/>
      <point x="165" y="-4" type="curve" smooth="yes"/>
      <point x="168" y="-4"/>
      <point x="191" y="-1"/>
      <point x="219" y="2" type="curve"/>
      <point x="176" y="-119" type="line" smooth="yes"/>
      <point x="174" y="-127"/>
      <point x="207" y="-186"/>
    </contour>
  </outline>
</glyph>
<glyph name="z" format="2">
  <advance width="423"/>
  <unicode hex="007A"/>
  <anchor x="220" y="0" name="bottom"/>
  <anchor x="205" y="462" name="top"/>
  <outline>
    <contour>
      <point x="32" y="0" type="curve"/>
      <point x="410" y="0" type="line"/>
      <point x="406" y="169" type="line"/>
      <point x="322" y="169" type="line"/>
      <point x="307" y="81" type="line"/>
      <point x="224" y="88" type="line"/>
      <point x="224" y="102" type="line"/>
      <point x="283" y="207"/>
      <point x="340" y="308"/>
      <point x="398" y="415" type="curve"/>
      <point x="393" y="429"/>
      <point x="377" y="453"/>
      <point x="369" y="462" type="curve"/>
      <point x="13" y="462" type="line"/>
      <point x="23" y="316" type="line"/>
      <point x="105" y="316" type="line"/>
      <point x="116" y="385" type="line"/>
      <point x="187" y="378" type="line"/>
      <point x="190" y="366" type="line"/>
      <point x="125" y="249"/>
      <point x="67" y="155"/>
      <point x="3" y="48" type="curve"/>
      <point x="6" y="40"/>
      <point x="23" y="10"/>
    </contour>
  </outline>
</glyph>
<glyph name="braceleft" format="2">
  <advance width="345"/>
  <unicode hex="007B"/>
  <outline>
    <contour>
      <point x="315" y="-123" type="line"/>
      <point x="321" y="-39" type="line"/>
      <point x="247" y="-21" type="line"/>
      <point x="247" y="229" type="line"/>
      <point x="170" y="284" type="line"/>
      <point x="247" y="339" type="line"/>
      <point x="247" y="599" type="line"/>
      <point x="321" y="616" type="line"/>
      <point x="314" y="691" type="line"/>
      <point x="95" y="680" type="line"/>
      <point x="95" y="405" type="line"/>
      <point x="23" y="339" type="line"/>
      <point x="23" y="229" type="line"/>
      <point x="95" y="163" type="line"/>
      <point x="95" y="-111" type="line"/>
    </contour>
  </outline>
</glyph>
<glyph name="bar" format="2">
  <advance width="249"/>
  <unicode hex="007C"/>
  <outline>
    <contour>
      <point x="60" y="-180" type="line"/>
      <point x="189" y="-180" type="line"/>
      <point x="189" y="679" type="line"/>
      <point x="60" y="679" type="line"/>
    </contour>
  </outline>
</glyph>
<glyph name="braceright" format="2">
  <advance width="345"/>
  <unicode hex="007D"/>
  <outline>
    <contour>
      <point x="31" y="-123" type="line"/>
      <point x="250" y="-112" type="line"/>
      <point x="250" y="163" type="line"/>
      <point x="322" y="229" type="line"/>
      <point x="322" y="339" type="line"/>
      <point x="250" y="405" type="line"/>
      <point x="250" y="679" type="line"/>
      <point x="30" y="691" type="line"/>
      <point x="24" y="607" type="line"/>
      <point x="98" y="589" type="line"/>
      <point x="98" y="339" type="line"/>
      <point x="175" y="284" type="line"/>
      <point x="98" y="229" type="line"/>
      <point x="98" y="-31" type="line"/>
      <point x="24" y="-48" type="line"/>
    </contour>
  </outline>
</glyph>
<glyph name="asciitilde" format="2">
  <advance width="609"/>
  <unicode hex="007E"/>
  <outline>
    <contour>
      <point x="406" y="246" type="curve" smooth="yes"/>
      <point x="434" y="246"/>
      <point x="502" y="306"/>
      <point x="534" y="347" type="curve"/>
      <point x="484" y="410" type="line"/>
      <point x="461" y="392"/>
      <point x="441" y="375"/>
      <point x="417" y="375" type="curve" smooth="yes"/>
      <point x="378" y="375"/>
      <point x="282" y="414"/>
      <point x="203" y="414" type="curve" smooth="yes"/>
      <point x="175" y="414"/>
      <point x="107" y="354"/>
      <point x="75" y="313" type="curve"/>
      <point x="125" y="250" type="line"/>
      <point x="148" y="268"/>
      <point x="168" y="285"/>
      <point x="192" y="285" type="curve" smooth="yes"/>
      <point x="231" y="285"/>
      <point x="327" y="246"/>
    </contour>
  </outline>
</glyph>
<glyph name="exclamdown" format="2">
  <advance width="324"/>
  <unicode hex="00A1"/>
  <outline>
    <contour>
      <point x="104" y="-196" type="curve" smooth="yes"/>
      <point x="123" y="-196"/>
      <point x="198" y="-182"/>
      <point x="252" y="-172" type="curve"/>
      <point x="224" y="252" type="line" smooth="yes"/>
      <point x="224" y="257"/>
      <point x="203" y="271"/>
      <point x="197" y="271" type="curve" smooth="yes"/>
      <point x="179" y="271"/>
      <point x="133" y="263"/>
      <point x="102" y="258" type="curve"/>
      <point x="72" y="-166" type="line" smooth="yes"/>
      <point x="72" y="-172"/>
      <point x="97" y="-196"/>
    </contour>
    <contour>
      <point x="88" y="334" type="line"/>
      <point x="234" y="334" type="line"/>
      <point x="244" y="436" type="line" smooth="yes"/>
      <point x="245" y="445"/>
      <point x="219" y="471"/>
      <point x="209" y="471" type="curve" smooth="yes"/>
      <point x="163" y="471"/>
      <point x="125" y="467"/>
      <point x="79" y="461" type="curve"/>
    </contour>
  </outline>
</glyph>
<glyph name="cent" format="2">
  <advance width="425"/>
  <unicode hex="00A2"/>
  <anchor x="228" y="41" name="bottom"/>
  <anchor x="225" y="503" name="top"/>
  <outline>
    <contour>
      <point x="172" y="460" type="line"/>
      <point x="278" y="460" type="line"/>
      <point x="279" y="602" type="line"/>
      <point x="172" y="602" type="line"/>
    </contour>
    <contour>
      <point x="173" y="-62" type="line"/>
      <point x="280" y="-62" type="line"/>
      <point x="280" y="55" type="line"/>
      <point x="173" y="55" type="line"/>
    </contour>
    <component base="c" xOffset="20" yOffset="41"/>
  </outline>
</glyph>
<glyph name="currency" format="2">
  <advance width="714"/>
  <unicode hex="00A4"/>
  <outline>
    <contour>
      <point x="139" y="87" type="line"/>
      <point x="212" y="164" type="line"/>
      <point x="249" y="136"/>
      <point x="298" y="119"/>
      <point x="356" y="119" type="curve" smooth="yes"/>
      <point x="411" y="119"/>
      <point x="461" y="137"/>
      <point x="500" y="166" type="curve"/>
      <point x="575" y="87" type="line"/>
      <point x="639" y="152" type="line"/>
      <point x="562" y="233" type="line"/>
      <point x="588" y="274"/>
      <point x="602" y="322"/>
      <point x="602" y="374" type="curve" smooth="yes"/>
      <point x="602" y="424"/>
      <point x="590" y="470"/>
      <point x="567" y="508" type="curve"/>
      <point x="639" y="584" type="line"/>
      <point x="575" y="649" type="line"/>
      <point x="506" y="576" type="line"/>
      <point x="468" y="603"/>
      <point x="421" y="619"/>
      <point x="366" y="619" type="curve" smooth="yes"/>
      <point x="307" y="619"/>
      <point x="256" y="600"/>
      <point x="215" y="568" type="curve"/>
      <point x="139" y="649" type="line"/>
      <point x="75" y="584" type="line"/>
      <point x="156" y="499" type="line"/>
      <point x="133" y="460"/>
      <point x="120" y="414"/>
      <point x="120" y="364" type="curve" smooth="yes"/>
      <point x="120" y="315"/>
      <point x="131" y="271"/>
      <point x="152" y="233" type="curve"/>
      <point x="75" y="152" type="line"/>
    </contour>
    <contour>
      <point x="360" y="250" type="curve" smooth="yes"/>
      <point x="288" y="250"/>
      <point x="257" y="305"/>
      <point x="257" y="369" type="curve" smooth="yes"/>
      <point x="257" y="440"/>
      <point x="291" y="488"/>
      <point x="363" y="488" type="curve" smooth="yes"/>
      <point x="434" y="488"/>
      <point x="465" y="434"/>
      <point x="465" y="369" type="curve" smooth="yes"/>
      <point x="465" y="298"/>
      <point x="431" y="250"/>
    </contour>
  </outline>
</glyph>
<glyph name="yen" format="2">
  <advance width="635"/>
  <unicode hex="00A5"/>
  <outline>
    <contour>
      <point x="150" y="-1" type="line"/>
      <point x="489" y="-1" type="line"/>
      <point x="488" y="79" type="line"/>
      <point x="409" y="93" type="line"/>
      <point x="409" y="134" type="line"/>
      <point x="532" y="134" type="line"/>
      <point x="540" y="221" type="line"/>
      <point x="409" y="221" type="line"/>
      <point x="409" y="231" type="line"/>
      <point x="423" y="257" type="line"/>
      <point x="532" y="257" type="line"/>
      <point x="540" y="344" type="line"/>
      <point x="470" y="344" type="line"/>
      <point x="529" y="466" type="line"/>
      <point x="610" y="485" type="line"/>
      <point x="610" y="557" type="line"/>
      <point x="348" y="557" type="line"/>
      <point x="348" y="477" type="line"/>
      <point x="395" y="465" type="line"/>
      <point x="345" y="334" type="line"/>
      <point x="333" y="334" type="line"/>
      <point x="285" y="470" type="line"/>
      <point x="324" y="477" type="line"/>
      <point x="323" y="557" type="line"/>
      <point x="25" y="557" type="line"/>
      <point x="25" y="485" type="line"/>
      <point x="109" y="464" type="line"/>
      <point x="164" y="344" type="line"/>
      <point x="111" y="344" type="line"/>
      <point x="103" y="257" type="line"/>
      <point x="207" y="257" type="line"/>
      <point x="225" y="221" type="line"/>
      <point x="111" y="221" type="line"/>
      <point x="103" y="134" type="line"/>
      <point x="225" y="134" type="line"/>
      <point x="225" y="86" type="line"/>
      <point x="149" y="71" type="line"/>
    </contour>
  </outline>
</glyph>
<glyph name="brokenbar" format="2">
  <advance width="249"/>
  <unicode hex="00A6"/>
  <outline>
    <contour>
      <point x="60" y="307" type="line"/>
      <point x="189" y="307" type="line"/>
      <point x="189" y="679" type="line"/>
      <point x="60" y="679" type="line"/>
    </contour>
    <contour>
      <point x="60" y="-181" type="line"/>
      <point x="189" y="-181" type="line"/>
      <point x="189" y="185" type="line"/>
      <point x="60" y="185" type="line"/>
    </contour>
  </outline>
</glyph>
<glyph name="section" format="2">
  <advance width="554"/>
  <unicode hex="00A7"/>
  <outline>
    <contour>
      <point x="302" y="-104" type="curve" smooth="yes"/>
      <point x="332" y="-104"/>
      <point x="425" y="-59"/>
      <point x="446" y="-21" type="curve"/>
      <point x="450" y="-10"/>
      <point x="454" y="12"/>
      <point x="454" y="35" type="curve" smooth="yes"/>
      <point x="454" y="73.641"/>
      <point x="434.979" y="103.757"/>
      <point x="408.331" y="129.489" type="curve"/>
      <point x="438.198" y="156.081"/>
      <point x="473.65" y="189.522"/>
      <point x="483" y="209" type="curve"/>
      <point x="488" y="223"/>
      <point x="492" y="243"/>
      <point x="492" y="262" type="curve" smooth="yes"/>
      <point x="492" y="327"/>
      <point x="421" y="375"/>
      <point x="357" y="418" type="curve" smooth="yes"/>
      <point x="305" y="452"/>
      <point x="258" y="483"/>
      <point x="258" y="515" type="curve" smooth="yes"/>
      <point x="258" y="530"/>
      <point x="276" y="548"/>
      <point x="285" y="548" type="curve" smooth="yes"/>
      <point x="298.733" y="548"/>
      <point x="340" y="536"/>
      <point x="373" y="526" type="curve"/>
      <point x="385" y="446" type="line"/>
      <point x="459" y="446" type="line"/>
      <point x="467" y="614" type="line"/>
      <point x="418" y="619"/>
      <point x="306" y="627"/>
      <point x="290" y="627" type="curve" smooth="yes"/>
      <point x="259" y="627"/>
      <point x="145" y="559"/>
      <point x="125" y="522" type="curve"/>
      <point x="121" y="510"/>
      <point x="119" y="496"/>
      <point x="119" y="480" type="curve" smooth="yes"/>
      <point x="119" y="432.975"/>
      <point x="137.446" y="400.307"/>
      <point x="163.217" y="374.738" type="curve"/>
      <point x="126.365" y="350.045"/>
      <point x="99.459" y="325.633"/>
      <point x="82" y="305" type="curve"/>
      <point x="77" y="291"/>
      <point x="75" y="274"/>
      <point x="75" y="259" type="curve" smooth="yes"/>
      <point x="75" y="186"/>
      <point x="138" y="145"/>
      <point x="192" y="107" type="curve" smooth="yes"/>
      <point x="233" y="78"/>
      <point x="269" y="50"/>
      <point x="269" y="10" type="curve" smooth="yes"/>
      <point x="269" y="-6"/>
      <point x="260" y="-20"/>
      <point x="253" y="-20" type="curve" smooth="yes"/>
      <point x="226.624" y="-20"/>
      <point x="203" y="-15"/>
      <point x="174" y="-9" type="curve"/>
      <point x="165" y="77" type="line"/>
      <point x="90" y="77" type="line"/>
      <point x="78" y="-95" type="line"/>
      <point x="133" y="-100"/>
      <point x="258" y="-104"/>
    </contour>
    <contour>
      <point x="316.88" y="197.687" type="curve"/>
      <point x="276.062" y="225.924"/>
      <point x="242" y="253.722"/>
      <point x="242" y="291" type="curve" smooth="yes"/>
      <point x="242" y="298.893"/>
      <point x="243.385" y="307.063"/>
      <point x="247.319" y="314.636" type="curve"/>
      <point x="287.712" y="289.233"/>
      <point x="322" y="264.153"/>
      <point x="322" y="221" type="curve" smooth="yes"/>
      <point x="322" y="211.516"/>
      <point x="320.13" y="204.072"/>
    </contour>
  </outline>
</glyph>
<glyph name="dieresis" format="2">
  <advance width="383"/>
  <unicode hex="00A8"/>
  <outline>
    <contour>
      <point x="225" y="537" type="line"/>
      <point x="371" y="537" type="line"/>
      <point x="383" y="641" type="line"/>
      <point x="357" y="671" type="line"/>
      <point x="214" y="664" type="line"/>
    </contour>
    <contour>
      <point x="11" y="537" type="line"/>
      <point x="157" y="537" type="line"/>
      <point x="169" y="641" type="line"/>
      <point x="143" y="671" type="line"/>
      <point x="0" y="664" type="line"/>
    </contour>
  </outline>
</glyph>
<glyph name="copyright" format="2">
  <advance width="876"/>
  <unicode hex="00A9"/>
  <outline>
    <contour>
      <point x="433" y="49" type="curve" smooth="yes"/>
      <point x="692" y="49"/>
      <point x="806" y="225"/>
      <point x="806" y="431" type="curve" smooth="yes"/>
      <point x="806" y="637"/>
      <point x="702" y="813"/>
      <point x="443" y="813" type="curve" smooth="yes"/>
      <point x="184" y="813"/>
      <point x="70" y="637"/>
      <point x="70" y="431" type="curve" smooth="yes"/>
      <point x="70" y="225"/>
      <point x="174" y="49"/>
    </contour>
    <contour>
      <point x="419" y="256" type="curve" smooth="yes"/>
      <point x="443" y="256"/>
      <point x="492" y="262"/>
      <point x="537" y="273" type="curve"/>
      <point x="533" y="324" type="line"/>
      <point x="454" y="318" type="line" smooth="yes"/>
      <point x="398" y="314"/>
      <point x="392" y="373"/>
      <point x="392" y="447" type="curve" smooth="yes"/>
      <point x="392" y="501"/>
      <point x="400" y="560"/>
      <point x="420" y="560" type="curve" smooth="yes"/>
      <point x="434" y="560"/>
      <point x="463" y="553"/>
      <point x="485" y="548" type="curve"/>
      <point x="494" y="470" type="line"/>
      <point x="543" y="470" type="line"/>
      <point x="548" y="613" type="line"/>
      <point x="518" y="616"/>
      <point x="442" y="622"/>
      <point x="427" y="622" type="curve" smooth="yes"/>
      <point x="407" y="622"/>
      <point x="323" y="572"/>
      <point x="300" y="541" type="curve"/>
      <point x="291" y="511"/>
      <point x="286" y="472"/>
      <point x="286" y="428" type="curve" smooth="yes"/>
      <point x="286" y="335"/>
      <point x="322" y="256"/>
    </contour>
    <contour>
      <point x="438" y="149" type="curve" smooth="yes"/>
      <point x="256" y="149"/>
      <point x="180" y="282"/>
      <point x="180" y="433" type="curve" smooth="yes"/>
      <point x="180" y="582"/>
      <point x="255" y="713"/>
      <point x="438" y="713" type="curve" smooth="yes"/>
      <point x="620" y="713"/>
      <point x="698" y="580"/>
      <point x="698" y="429" type="curve" smooth="yes"/>
      <point x="698" y="280"/>
      <point x="622" y="149"/>
    </contour>
  </outline>
</glyph>
<glyph name="ordfeminine" format="2">
  <advance width="436"/>
  <unicode hex="00AA"/>
  <outline>
    <contour>
      <point x="162" y="319" type="curve" smooth="yes"/>
      <point x="166" y="319"/>
      <point x="215" y="353"/>
      <point x="236" y="367" type="curve"/>
      <point x="236" y="351" type="line" smooth="yes"/>
      <point x="236" y="345"/>
      <point x="261" y="319"/>
      <point x="266" y="319" type="curve" smooth="yes"/>
      <point x="277" y="319"/>
      <point x="385" y="332"/>
      <point x="410" y="336" type="curve"/>
      <point x="410" y="388" type="line"/>
      <point x="377" y="399" type="line"/>
      <point x="377" y="661" type="line"/>
      <point x="324" y="671"/>
      <point x="212" y="686"/>
      <point x="193" y="686" type="curve" smooth="yes"/>
      <point x="169" y="686"/>
      <point x="66" y="625"/>
      <point x="45" y="602" type="curve"/>
      <point x="36" y="577"/>
      <point x="26" y="528"/>
      <point x="26" y="483" type="curve" smooth="yes"/>
      <point x="26" y="385"/>
      <point x="73" y="319"/>
    </contour>
    <contour>
      <point x="202" y="410" type="curve" smooth="yes"/>
      <point x="184" y="410"/>
      <point x="181" y="451"/>
      <point x="181" y="494" type="curve" smooth="yes"/>
      <point x="181" y="573"/>
      <point x="187" y="626"/>
      <point x="193" y="626" type="curve" smooth="yes"/>
      <point x="200" y="626"/>
      <point x="222" y="609"/>
      <point x="231" y="601" type="curve"/>
      <point x="231" y="426" type="line"/>
      <point x="221" y="420"/>
      <point x="206" y="410"/>
    </contour>
  </outline>
</glyph>
<glyph name="guillemetleft" format="2">
  <advance width="528"/>
  <unicode hex="00AB"/>
  <outline>
    <contour>
      <point x="418" y="24" type="line"/>
      <point x="483" y="70" type="line"/>
      <point x="416" y="221" type="line"/>
      <point x="416" y="239" type="line"/>
      <point x="483" y="390" type="line"/>
      <point x="418" y="436" type="line"/>
      <point x="257" y="280" type="line"/>
      <point x="257" y="180" type="line"/>
    </contour>
    <contour>
      <point x="186" y="24" type="line"/>
      <point x="251" y="70" type="line"/>
      <point x="184" y="221" type="line"/>
      <point x="184" y="239" type="line"/>
      <point x="251" y="390" type="line"/>
      <point x="186" y="436" type="line"/>
      <point x="25" y="280" type="line"/>
      <point x="25" y="180" type="line"/>
    </contour>
  </outline>
</glyph>
<glyph name="logicalnot" format="2">
  <advance width="463"/>
  <unicode hex="00AC"/>
  <outline>
    <contour>
      <point x="10" y="226" type="line"/>
      <point x="443" y="226" type="line"/>
      <point x="443" y="344" type="line"/>
      <point x="10" y="344" type="line"/>
    </contour>
    <contour>
      <point x="320" y="118" type="line"/>
      <point x="443" y="118" type="line"/>
      <point x="443" y="344" type="line"/>
      <point x="320" y="344" type="line"/>
    </contour>
  </outline>
</glyph>
<glyph name="registered" format="2">
  <advance width="698"/>
  <unicode hex="00AE"/>
  <outline>
    <contour>
      <point x="345" y="213" type="curve" smooth="yes"/>
      <point x="548" y="213"/>
      <point x="638" y="351"/>
      <point x="638" y="513" type="curve" smooth="yes"/>
      <point x="638" y="675"/>
      <point x="557" y="813"/>
      <point x="353" y="813" type="curve" smooth="yes"/>
      <point x="150" y="813"/>
      <point x="60" y="675"/>
      <point x="60" y="513" type="curve" smooth="yes"/>
      <point x="60" y="351"/>
      <point x="141" y="213"/>
    </contour>
    <contour>
      <point x="349" y="302" type="curve" smooth="yes"/>
      <point x="212" y="302"/>
      <point x="156" y="402"/>
      <point x="156" y="514" type="curve" smooth="yes"/>
      <point x="156" y="626"/>
      <point x="211" y="724"/>
      <point x="349" y="724" type="curve" smooth="yes"/>
      <point x="485" y="724"/>
      <point x="544" y="624"/>
      <point x="544" y="512" type="curve" smooth="yes"/>
      <point x="544" y="400"/>
      <point x="486" y="302"/>
    </contour>
    <contour>
      <point x="228" y="381" type="line"/>
      <point x="351" y="381" type="line"/>
      <point x="350" y="412" type="line"/>
      <point x="328" y="415" type="line"/>
      <point x="328" y="485" type="line"/>
      <point x="350" y="485" type="line"/>
      <point x="400" y="381" type="line"/>
      <point x="487" y="381" type="line"/>
      <point x="485" y="412" type="line"/>
      <point x="459" y="421" type="line"/>
      <point x="420" y="488" type="line"/>
      <point x="420" y="496" type="line"/>
      <point x="443" y="511"/>
      <point x="459" y="541"/>
      <point x="459" y="579" type="curve" smooth="yes"/>
      <point x="459" y="634"/>
      <point x="430" y="657"/>
      <point x="375" y="657" type="curve" smooth="yes"/>
      <point x="228" y="657" type="line"/>
      <point x="228" y="626" type="line"/>
      <point x="253" y="620" type="line"/>
      <point x="253" y="414" type="line"/>
      <point x="228" y="411" type="line"/>
    </contour>
    <contour>
      <point x="328" y="529" type="line"/>
      <point x="328" y="618" type="line"/>
      <point x="356" y="620" type="line"/>
      <point x="376" y="620"/>
      <point x="382" y="605"/>
      <point x="382" y="574" type="curve" smooth="yes"/>
      <point x="382" y="545"/>
      <point x="370" y="529"/>
      <point x="345" y="529" type="curve" smooth="yes"/>
    </contour>
  </outline>
</glyph>
<glyph name="macron" format="2">
  <advance width="314"/>
  <unicode hex="00AF"/>
  <outline>
    <contour>
      <point x="0" y="547" type="line"/>
      <point x="314" y="547" type="line"/>
      <point x="314" y="652" type="line"/>
      <point x="0" y="652" type="line"/>
    </contour>
  </outline>
</glyph>
<glyph name="degree" format="2">
  <advance width="327"/>
  <unicode hex="00B0"/>
  <outline>
    <contour>
      <point x="162" y="361" type="curve" smooth="yes"/>
      <point x="250" y="361"/>
      <point x="297" y="432"/>
      <point x="297" y="501" type="curve" smooth="yes"/>
      <point x="297" y="567"/>
      <point x="255" y="630"/>
      <point x="165" y="630" type="curve" smooth="yes"/>
      <point x="77" y="630"/>
      <point x="30" y="559"/>
      <point x="30" y="490" type="curve" smooth="yes"/>
      <point x="30" y="424"/>
      <point x="72" y="361"/>
    </contour>
    <contour>
      <point x="162" y="448" type="curve" smooth="yes"/>
      <point x="133" y="448"/>
      <point x="119" y="471"/>
      <point x="119" y="495" type="curve" smooth="yes"/>
      <point x="119" y="519"/>
      <point x="134" y="543"/>
      <point x="163" y="543" type="curve" smooth="yes"/>
      <point x="192" y="543"/>
      <point x="206" y="520"/>
      <point x="206" y="496" type="curve" smooth="yes"/>
      <point x="206" y="472"/>
      <point x="191" y="448"/>
    </contour>
  </outline>
</glyph>
<glyph name="plusminus" format="2">
  <advance width="542"/>
  <unicode hex="00B1"/>
  <outline>
    <contour>
      <point x="212" y="129" type="line"/>
      <point x="330" y="129" type="line"/>
      <point x="331" y="540" type="line"/>
      <point x="213" y="540" type="line"/>
    </contour>
    <contour>
      <point x="75" y="-27" type="line"/>
      <point x="467" y="-27" type="line"/>
      <point x="467" y="83" type="line"/>
      <point x="75" y="83" type="line"/>
    </contour>
    <contour>
      <point x="75" y="280" type="line"/>
      <point x="467" y="280" type="line"/>
      <point x="467" y="390" type="line"/>
      <point x="75" y="390" type="line"/>
    </contour>
  </outline>
</glyph>
<glyph name="twosuperior" format="2">
  <advance width="439"/>
  <unicode hex="00B2"/>
  <outline>
    <contour>
      <point x="53" y="363" type="line"/>
      <point x="396" y="363" type="line"/>
      <point x="349" y="443" type="line"/>
      <point x="271" y="443" type="line"/>
      <point x="270" y="453" type="line"/>
      <point x="348" y="547" type="line" smooth="yes"/>
      <point x="365" y="568"/>
      <point x="376" y="591"/>
      <point x="376" y="619" type="curve" smooth="yes"/>
      <point x="376" y="692"/>
      <point x="322" y="716"/>
      <point x="238" y="716" type="curve" smooth="yes"/>
      <point x="186" y="716"/>
      <point x="120" y="707"/>
      <point x="55" y="696" type="curve"/>
      <point x="100" y="600" type="line"/>
      <point x="131" y="615"/>
      <point x="166" y="636"/>
      <point x="176" y="636" type="curve" smooth="yes"/>
      <point x="186" y="636"/>
      <point x="190" y="629"/>
      <point x="190" y="618" type="curve" smooth="yes"/>
      <point x="190" y="603"/>
      <point x="188" y="584"/>
      <point x="171" y="565" type="curve" smooth="yes"/>
      <point x="44" y="418" type="line"/>
    </contour>
    <contour>
      <point x="312" y="363" type="line"/>
      <point x="396" y="363" type="line"/>
      <point x="399" y="499" type="line"/>
      <point x="335" y="499" type="line"/>
    </contour>
    <contour>
      <point x="60" y="552" type="line"/>
      <point x="127" y="552" type="line"/>
      <point x="140" y="696" type="line"/>
      <point x="55" y="696" type="line"/>
    </contour>
  </outline>
</glyph>
<glyph name="threesuperior" format="2">
  <advance width="469"/>
  <unicode hex="00B3"/>
  <outline>
    <contour>
      <point x="235" y="356" type="curve" smooth="yes"/>
      <point x="340" y="356"/>
      <point x="410" y="423"/>
      <point x="410" y="482" type="curve" smooth="yes"/>
      <point x="410" y="515"/>
      <point x="388" y="542"/>
      <point x="343" y="553" type="curve"/>
      <point x="340" y="575" type="line"/>
      <point x="146" y="502" type="line"/>
      <point x="202" y="502" type="line" smooth="yes"/>
      <point x="213" y="502"/>
      <point x="219" y="488"/>
      <point x="219" y="474" type="curve" smooth="yes"/>
      <point x="219" y="456"/>
      <point x="208" y="435"/>
      <point x="185" y="435" type="curve" smooth="yes"/>
      <point x="182" y="435"/>
      <point x="89" y="435"/>
      <point x="78" y="435" type="curve"/>
      <point x="75" y="372" type="line"/>
      <point x="116" y="366"/>
      <point x="218" y="356"/>
    </contour>
    <contour>
      <point x="74" y="583" type="line"/>
      <point x="141" y="583" type="line"/>
      <point x="157" y="705" type="line"/>
      <point x="72" y="705" type="line"/>
    </contour>
    <contour>
      <point x="146" y="502" type="line"/>
      <point x="300" y="536"/>
      <point x="396" y="566"/>
      <point x="396" y="632" type="curve" smooth="yes"/>
      <point x="396" y="698"/>
      <point x="328" y="717"/>
      <point x="240" y="717" type="curve" smooth="yes"/>
      <point x="191" y="717"/>
      <point x="123" y="711"/>
      <point x="72" y="705" type="curve"/>
      <point x="109" y="613" type="line"/>
      <point x="145" y="629"/>
      <point x="200" y="652"/>
      <point x="207" y="652" type="curve" smooth="yes"/>
      <point x="215" y="652"/>
      <point x="219" y="643"/>
      <point x="219" y="631" type="curve" smooth="yes"/>
      <point x="219" y="606"/>
      <point x="194" y="567"/>
      <point x="146" y="563" type="curve"/>
    </contour>
  </outline>
</glyph>
<glyph name="acute" format="2">
  <advance width="234"/>
  <unicode hex="00B4"/>
  <outline>
    <contour>
      <point x="49" y="516" type="line"/>
      <point x="227" y="599" type="line"/>
      <point x="234" y="653" type="line"/>
      <point x="145" y="732" type="line"/>
      <point x="0" y="574" type="line"/>
    </contour>
  </outline>
</glyph>
<glyph name="paragraph" format="2">
  <advance width="841"/>
  <unicode hex="00B6"/>
  <outline>
    <contour>
      <point x="235" y="0" type="line"/>
      <point x="450" y="0" type="line"/>
      <point x="450" y="612" type="line"/>
      <point x="223" y="612" type="line" smooth="yes"/>
      <point x="103" y="612"/>
      <point x="46" y="529"/>
      <point x="46" y="416" type="curve" smooth="yes"/>
      <point x="46" y="284"/>
      <point x="100" y="164"/>
      <point x="232" y="162" type="curve" smooth="yes"/>
      <point x="295" y="161" type="line"/>
      <point x="295" y="97" type="line"/>
      <point x="235" y="72" type="line"/>
    </contour>
    <contour>
      <point x="512" y="0" type="line"/>
      <point x="767" y="0" type="line"/>
      <point x="767" y="74" type="line"/>
      <point x="667" y="105" type="line"/>
      <point x="667" y="509" type="line"/>
      <point x="767" y="526" type="line"/>
      <point x="767" y="612" type="line"/>
      <point x="512" y="613" type="line"/>
    </contour>
  </outline>
</glyph>
<glyph name="onesuperior" format="2">
  <advance width="437"/>
  <unicode hex="00B9"/>
  <outline>
    <contour>
      <point x="155" y="363" type="line"/>
      <point x="324" y="363" type="line"/>
      <point x="324" y="683" type="line"/>
      <point x="155" y="687" type="line"/>
    </contour>
    <contour>
      <point x="71" y="363" type="line"/>
      <point x="392" y="363" type="line"/>
      <point x="392" y="427" type="line"/>
      <point x="215" y="450" type="line"/>
      <point x="71" y="429" type="line"/>
    </contour>
    <contour>
      <point x="66" y="603" type="line"/>
      <point x="266" y="615" type="line"/>
      <point x="324" y="683" type="line"/>
      <point x="246" y="721" type="line"/>
      <point x="66" y="677" type="line"/>
    </contour>
  </outline>
</glyph>
<glyph name="ordmasculine" format="2">
  <advance width="425"/>
  <unicode hex="00BA"/>
  <outline>
    <contour>
      <point x="227" y="317" type="curve" smooth="yes"/>
      <point x="252" y="317"/>
      <point x="358" y="378"/>
      <point x="379" y="402" type="curve"/>
      <point x="388" y="425"/>
      <point x="399" y="470"/>
      <point x="399" y="519" type="curve" smooth="yes"/>
      <point x="399" y="631"/>
      <point x="323" y="686"/>
      <point x="201" y="686" type="curve" smooth="yes"/>
      <point x="177" y="686"/>
      <point x="67" y="623"/>
      <point x="46" y="599" type="curve"/>
      <point x="37" y="575"/>
      <point x="26" y="526"/>
      <point x="26" y="483" type="curve" smooth="yes"/>
      <point x="26" y="364"/>
      <point x="108" y="317"/>
    </contour>
    <contour>
      <point x="223" y="383" type="curve"/>
      <point x="200" y="383"/>
      <point x="181" y="403"/>
      <point x="181" y="495" type="curve" smooth="yes"/>
      <point x="181" y="570"/>
      <point x="189" y="623"/>
      <point x="196" y="623" type="curve" smooth="yes"/>
      <point x="200" y="623"/>
      <point x="217" y="620"/>
      <point x="223" y="615" type="curve" smooth="yes"/>
      <point x="238" y="603"/>
      <point x="244" y="574"/>
      <point x="244" y="508" type="curve" smooth="yes"/>
      <point x="244" y="454"/>
      <point x="242" y="415"/>
      <point x="239" y="392" type="curve"/>
      <point x="239" y="392"/>
      <point x="226" y="384"/>
    </contour>
  </outline>
</glyph>
<glyph name="guillemetright" format="2">
  <advance width="528"/>
  <unicode hex="00BB"/>
  <outline>
    <contour>
      <point x="342" y="24" type="line"/>
      <point x="503" y="180" type="line"/>
      <point x="503" y="280" type="line"/>
      <point x="342" y="436" type="line"/>
      <point x="277" y="390" type="line"/>
      <point x="344" y="239" type="line"/>
      <point x="344" y="221" type="line"/>
      <point x="277" y="70" type="line"/>
    </contour>
    <contour>
      <point x="110" y="24" type="line"/>
      <point x="271" y="180" type="line"/>
      <point x="271" y="280" type="line"/>
      <point x="110" y="436" type="line"/>
      <point x="45" y="390" type="line"/>
      <point x="112" y="239" type="line"/>
      <point x="112" y="221" type="line"/>
      <point x="45" y="70" type="line"/>
    </contour>
  </outline>
</glyph>
<glyph name="questiondown" format="2">
  <advance width="533"/>
  <unicode hex="00BF"/>
  <outline>
    <contour>
      <point x="248" y="-206" type="curve" smooth="yes"/>
      <point x="311" y="-206"/>
      <point x="391" y="-192"/>
      <point x="472" y="-172" type="curve"/>
      <point x="394" y="-81" type="line"/>
      <point x="341" y="-98"/>
      <point x="275" y="-117"/>
      <point x="258" y="-117" type="curve" smooth="yes"/>
      <point x="240" y="-117"/>
      <point x="235" y="-93"/>
      <point x="235" y="-78" type="curve" smooth="yes"/>
      <point x="235" y="-49"/>
      <point x="252" y="-20"/>
      <point x="312" y="33" type="curve" smooth="yes"/>
      <point x="355" y="71"/>
      <point x="393" y="111"/>
      <point x="390" y="173" type="curve" smooth="yes"/>
      <point x="385" y="262" type="line" smooth="yes"/>
      <point x="385" y="267"/>
      <point x="364" y="281"/>
      <point x="358" y="281" type="curve" smooth="yes"/>
      <point x="340" y="281"/>
      <point x="294" y="273"/>
      <point x="263" y="268" type="curve"/>
      <point x="261" y="201"/>
      <point x="238" y="173"/>
      <point x="200" y="137" type="curve" smooth="yes"/>
      <point x="134" y="74"/>
      <point x="68" y="30"/>
      <point x="68" y="-57" type="curve" smooth="yes"/>
      <point x="68" y="-167"/>
      <point x="140" y="-206"/>
    </contour>
    <contour>
      <point x="339" y="-172" type="line"/>
      <point x="472" y="-172" type="line"/>
      <point x="466" y="19" type="line"/>
      <point x="378" y="19" type="line"/>
    </contour>
    <contour>
      <point x="253" y="328" type="line"/>
      <point x="394" y="328" type="line"/>
      <point x="407" y="425" type="line" smooth="yes"/>
      <point x="408" y="434"/>
      <point x="377" y="464"/>
      <point x="367" y="464" type="curve" smooth="yes"/>
      <point x="319" y="464"/>
      <point x="288" y="462"/>
      <point x="244" y="457" type="curve"/>
    </contour>
  </outline>
</glyph>
<glyph name="AE" format="2">
  <advance width="927"/>
  <unicode hex="00C6"/>
  <anchor x="578" y="612" name="top"/>
  <outline>
    <contour>
      <point x="0" y="0" type="line"/>
      <point x="287" y="0" type="line"/>
      <point x="287" y="80" type="line"/>
      <point x="218" y="97" type="line"/>
      <point x="259" y="171" type="line"/>
      <point x="449" y="171" type="line"/>
      <point x="449" y="97" type="line"/>
      <point x="389" y="72" type="line"/>
      <point x="389" y="0" type="line"/>
      <point x="902" y="0" type="line"/>
      <point x="898" y="199" type="line"/>
      <point x="809" y="199" type="line"/>
      <point x="791" y="88" type="line"/>
      <point x="640" y="104" type="line"/>
      <point x="640" y="259" type="line"/>
      <point x="773" y="266" type="line"/>
      <point x="773" y="360" type="line"/>
      <point x="640" y="365" type="line"/>
      <point x="640" y="510" type="line"/>
      <point x="782" y="524" type="line"/>
      <point x="795" y="417" type="line"/>
      <point x="884" y="417" type="line"/>
      <point x="897" y="612" type="line"/>
      <point x="267" y="612" type="line"/>
      <point x="267" y="540" type="line"/>
      <point x="327" y="515" type="line"/>
      <point x="63" y="92" type="line"/>
      <point x="0" y="72" type="line"/>
    </contour>
    <contour>
      <point x="312" y="266" type="line"/>
      <point x="437" y="500" type="line"/>
      <point x="449" y="500" type="line"/>
      <point x="449" y="266" type="line"/>
    </contour>
  </outline>
</glyph>
<glyph name="multiply" format="2">
  <advance width="555"/>
  <unicode hex="00D7"/>
  <outline>
    <contour>
      <point x="154" y="21" type="line"/>
      <point x="70" y="110" type="line"/>
      <point x="398" y="448" type="line"/>
      <point x="485" y="359" type="line"/>
    </contour>
    <contour>
      <point x="401" y="21" type="line"/>
      <point x="70" y="359" type="line"/>
      <point x="157" y="448" type="line"/>
      <point x="485" y="110" type="line"/>
    </contour>
  </outline>
</glyph>
<glyph name="Thorn" format="2">
  <advance width="581"/>
  <unicode hex="00DE"/>
  <outline>
    <contour>
      <point x="20" y="0" type="line"/>
      <point x="341" y="0" type="line"/>
      <point x="341" y="72" type="line"/>
      <point x="276" y="97" type="line"/>
      <point x="276" y="515" type="line"/>
      <point x="341" y="540" type="line"/>
      <point x="341" y="612" type="line"/>
      <point x="20" y="612" type="line"/>
      <point x="20" y="540" type="line"/>
      <point x="85" y="515" type="line"/>
      <point x="85" y="97" type="line"/>
      <point x="20" y="72" type="line"/>
    </contour>
    <contour>
      <point x="163" y="138" type="line"/>
      <point x="394" y="138" type="line" smooth="yes"/>
      <point x="493" y="138"/>
      <point x="576" y="190"/>
      <point x="576" y="325" type="curve" smooth="yes"/>
      <point x="576" y="447"/>
      <point x="522" y="499"/>
      <point x="423" y="499" type="curve"/>
      <point x="163" y="499" type="line"/>
      <point x="163" y="378" type="line"/>
      <point x="346" y="406" type="line"/>
      <point x="384" y="406"/>
      <point x="400" y="366"/>
      <point x="400" y="312" type="curve" smooth="yes"/>
      <point x="400" y="243"/>
      <point x="375" y="239"/>
      <point x="323" y="239" type="curve" smooth="yes"/>
      <point x="163" y="239" type="line"/>
    </contour>
  </outline>
</glyph>
<glyph name="germandbls" format="2">
  <advance width="557"/>
  <unicode hex="00DF"/>
  <outline>
    <contour>
      <point x="56" y="-186" type="curve" smooth="yes"/>
      <point x="89" y="-186"/>
      <point x="217" y="-76"/>
      <point x="217" y="-16" type="curve" smooth="yes"/>
      <point x="217" y="516" type="line" smooth="yes"/>
      <point x="217" y="540"/>
      <point x="221" y="569"/>
      <point x="233" y="569" type="curve" smooth="yes"/>
      <point x="244" y="569"/>
      <point x="275" y="556"/>
      <point x="309" y="538" type="curve" smooth="yes"/>
      <point x="328" y="528"/>
      <point x="336" y="519"/>
      <point x="336" y="500" type="curve" smooth="yes"/>
      <point x="336" y="459"/>
      <point x="246" y="412"/>
      <point x="246" y="322" type="curve" smooth="yes"/>
      <point x="246" y="237"/>
      <point x="381" y="183"/>
      <point x="381" y="111" type="curve" smooth="yes"/>
      <point x="381" y="92"/>
      <point x="374" y="81"/>
      <point x="363" y="81" type="curve" smooth="yes"/>
      <point x="341" y="81"/>
      <point x="262" y="102"/>
      <point x="193" y="120" type="curve"/>
      <point x="201" y="4" type="line"/>
      <point x="266" y="-2"/>
      <point x="391" y="-9"/>
      <point x="429" y="-9" type="curve" smooth="yes"/>
      <point x="455" y="-9"/>
      <point x="539" y="59"/>
      <point x="553" y="92" type="curve"/>
      <point x="555" y="102"/>
      <point x="557" y="115"/>
      <point x="557" y="130" type="curve" smooth="yes"/>
      <point x="557" y="251"/>
      <point x="404" y="289"/>
      <point x="404" y="356" type="curve" smooth="yes"/>
      <point x="404" y="408"/>
      <point x="472" y="446"/>
      <point x="472" y="521" type="curve" smooth="yes"/>
      <point x="472" y="651"/>
      <point x="316" y="665"/>
      <point x="217" y="665" type="curve" smooth="yes"/>
      <point x="164" y="665"/>
      <point x="51" y="548"/>
      <point x="51" y="507" type="curve" smooth="yes"/>
      <point x="51" y="35" type="line" smooth="yes"/>
      <point x="51" y="-35"/>
      <point x="51" y="-63"/>
      <point x="40" y="-68" type="curve" smooth="yes"/>
      <point x="29" y="-73"/>
      <point x="-19" y="-73"/>
      <point x="-66" y="-73" type="curve"/>
      <point x="-66" y="-151" type="line"/>
      <point x="-28" y="-166"/>
      <point x="29" y="-186"/>
    </contour>
  </outline>
</glyph>
<glyph name="ae" format="2">
  <advance width="709"/>
  <unicode hex="00E6"/>
  <anchor x="369" y="462" name="top"/>
  <outline>
    <contour>
      <point x="201" y="-13" type="curve" smooth="yes"/>
      <point x="206" y="-13"/>
      <point x="297" y="53"/>
      <point x="321" y="72" type="curve"/>
      <point x="314" y="144" type="line"/>
      <point x="314" y="144"/>
      <point x="244" y="103"/>
      <point x="238" y="103" type="curve" smooth="yes"/>
      <point x="215" y="103"/>
      <point x="205" y="163"/>
      <point x="205" y="220" type="curve" smooth="yes"/>
      <point x="205" y="326"/>
      <point x="212" y="389"/>
      <point x="226" y="399" type="curve" smooth="yes"/>
      <point x="234" y="405"/>
      <point x="289" y="364"/>
      <point x="306" y="349" type="curve"/>
      <point x="455" y="443" type="line"/>
      <point x="455" y="443"/>
      <point x="258" y="476"/>
      <point x="242" y="476" type="curve" smooth="yes"/>
      <point x="210" y="476"/>
      <point x="75" y="395"/>
      <point x="47" y="364" type="curve"/>
      <point x="34" y="331"/>
      <point x="20" y="266"/>
      <point x="20" y="205" type="curve" smooth="yes"/>
      <point x="20" y="75"/>
      <point x="82" y="-13"/>
    </contour>
    <contour>
      <point x="489" y="-14" type="curve" smooth="yes"/>
      <point x="513" y="-14"/>
      <point x="646" y="32"/>
      <point x="677" y="44" type="curve"/>
      <point x="677" y="114" type="line"/>
      <point x="639" y="112"/>
      <point x="517" y="106"/>
      <point x="517" y="106" type="curve"/>
      <point x="478" y="106"/>
      <point x="459" y="154"/>
      <point x="459" y="201" type="curve"/>
      <point x="694" y="221" type="line"/>
      <point x="694" y="416"/>
      <point x="626" y="476"/>
      <point x="504" y="476" type="curve" smooth="yes"/>
      <point x="472" y="476"/>
      <point x="337" y="395"/>
      <point x="309" y="364" type="curve"/>
      <point x="296" y="331"/>
      <point x="282" y="265"/>
      <point x="282" y="204" type="curve" smooth="yes"/>
      <point x="282" y="74"/>
      <point x="353" y="-14"/>
    </contour>
    <contour>
      <point x="458" y="277" type="line"/>
      <point x="462" y="352"/>
      <point x="474" y="402"/>
      <point x="481" y="402" type="curve" smooth="yes"/>
      <point x="483" y="402"/>
      <point x="502" y="400"/>
      <point x="508" y="397" type="curve" smooth="yes"/>
      <point x="522" y="388"/>
      <point x="532" y="342"/>
      <point x="532" y="288" type="curve"/>
    </contour>
  </outline>
</glyph>
<glyph name="eth" format="2">
  <advance width="493"/>
  <unicode hex="00F0"/>
  <outline>
    <contour>
      <point x="223" y="-9" type="curve" smooth="yes"/>
      <point x="362" y="-9"/>
      <point x="471" y="104"/>
      <point x="471" y="305" type="curve" smooth="yes"/>
      <point x="471" y="530"/>
      <point x="350" y="658"/>
      <point x="131" y="634" type="curve"/>
      <point x="153" y="560" type="line"/>
      <point x="284" y="557"/>
      <point x="295" y="430"/>
      <point x="295" y="247" type="curve" smooth="yes"/>
      <point x="295" y="145"/>
      <point x="279" y="72"/>
      <point x="231" y="72" type="curve" smooth="yes"/>
      <point x="210" y="72"/>
      <point x="193" y="161"/>
      <point x="193" y="207" type="curve" smooth="yes"/>
      <point x="193" y="257"/>
      <point x="206" y="302"/>
      <point x="245" y="302" type="curve" smooth="yes"/>
      <point x="263" y="302"/>
      <point x="314" y="278"/>
      <point x="336" y="262" type="curve"/>
      <point x="334" y="341" type="line"/>
      <point x="306" y="359"/>
      <point x="198" y="392"/>
      <point x="189" y="392" type="curve" smooth="yes"/>
      <point x="85" y="392"/>
      <point x="18" y="304"/>
      <point x="18" y="199" type="curve" smooth="yes"/>
      <point x="18" y="168"/>
      <point x="28" y="122"/>
      <point x="40" y="93" type="curve"/>
      <point x="59" y="64"/>
      <point x="203" y="-9"/>
    </contour>
    <contour>
      <point x="221" y="421" type="line"/>
      <point x="477" y="554" type="line"/>
      <point x="475" y="582" type="line"/>
      <point x="435" y="615" type="line"/>
      <point x="175" y="481" type="line"/>
      <point x="178" y="452" type="line"/>
    </contour>
  </outline>
</glyph>
<glyph name="thorn" format="2">
  <advance width="495"/>
  <unicode hex="00FE"/>
  <outline>
    <contour>
      <point x="73" y="-186" type="curve" smooth="yes"/>
      <point x="87" y="-186"/>
      <point x="186" y="-173"/>
      <point x="257" y="-163" type="curve"/>
      <point x="257" y="-94" type="line"/>
      <point x="213" y="-79" type="line"/>
      <point x="213" y="-8" type="line"/>
      <point x="234" y="-11"/>
      <point x="249" y="-13"/>
      <point x="253" y="-13" type="curve" smooth="yes"/>
      <point x="285" y="-13"/>
      <point x="420" y="68"/>
      <point x="448" y="99" type="curve"/>
      <point x="461" y="130"/>
      <point x="475" y="192"/>
      <point x="475" y="249" type="curve" smooth="yes"/>
      <point x="475" y="385"/>
      <point x="413" y="476"/>
      <point x="294" y="476" type="curve" smooth="yes"/>
      <point x="289" y="476"/>
      <point x="240" y="438"/>
      <point x="213" y="418" type="curve"/>
      <point x="213" y="622" type="line" smooth="yes"/>
      <point x="213" y="630"/>
      <point x="180" y="665"/>
      <point x="173" y="665" type="curve" smooth="yes"/>
      <point x="160" y="665"/>
      <point x="64" y="652"/>
      <point x="-4" y="642" type="curve"/>
      <point x="-4" y="573" type="line"/>
      <point x="40" y="558" type="line"/>
      <point x="40" y="39" type="line"/>
      <point x="33" y="-143" type="line"/>
      <point x="33" y="-151"/>
      <point x="66" y="-186"/>
    </contour>
    <contour>
      <point x="270" y="65" type="curve" smooth="yes"/>
      <point x="262" y="57"/>
      <point x="233" y="82"/>
      <point x="213" y="100" type="curve"/>
      <point x="213" y="339" type="line"/>
      <point x="226" y="346"/>
      <point x="253" y="360"/>
      <point x="257" y="360" type="curve" smooth="yes"/>
      <point x="280" y="360"/>
      <point x="290" y="296"/>
      <point x="290" y="234" type="curve" smooth="yes"/>
      <point x="290" y="134"/>
      <point x="282" y="77"/>
    </contour>
  </outline>
</glyph>
<glyph name="idotless" format="2">
  <advance width="280"/>
  <unicode hex="0131"/>
  <anchor x="149" y="0" name="bottom"/>
  <anchor x="128" y="462" name="top"/>
  <outline>
    <contour>
      <point x="106" y="-13" type="curve" smooth="yes"/>
      <point x="123" y="-13"/>
      <point x="270" y="12"/>
      <point x="270" y="12" type="curve"/>
      <point x="270" y="80" type="line"/>
      <point x="227" y="95" type="line"/>
      <point x="227" y="433" type="line" smooth="yes"/>
      <point x="227" y="441"/>
      <point x="194" y="476"/>
      <point x="187" y="476" type="curve" smooth="yes"/>
      <point x="169" y="476"/>
      <point x="10" y="453"/>
      <point x="10" y="453" type="curve"/>
      <point x="10" y="384" type="line"/>
      <point x="54" y="369" type="line"/>
      <point x="54" y="31" type="line" smooth="yes"/>
      <point x="54" y="22"/>
      <point x="97" y="-13"/>
    </contour>
  </outline>
</glyph>
<glyph name="kgreenlandic" format="2">
  <advance width="525"/>
  <unicode hex="0138"/>
  <outline>
    <contour>
      <point x="374" y="-13" type="curve" smooth="yes"/>
      <point x="384" y="-13"/>
      <point x="521" y="12"/>
      <point x="521" y="12" type="curve"/>
      <point x="521" y="80" type="line"/>
      <point x="478" y="95" type="line"/>
      <point x="382" y="242" type="line"/>
      <point x="513" y="405" type="line"/>
      <point x="513" y="416"/>
      <point x="494" y="473"/>
      <point x="486" y="473" type="curve" smooth="yes"/>
      <point x="476" y="473"/>
      <point x="275" y="462"/>
      <point x="275" y="462" type="curve"/>
      <point x="275" y="388" type="line"/>
      <point x="348" y="378" type="line"/>
      <point x="244" y="247" type="line"/>
      <point x="244" y="186" type="line"/>
      <point x="325" y="17" type="line"/>
      <point x="331" y="8"/>
      <point x="366" y="-13"/>
    </contour>
    <contour>
      <point x="106" y="-13" type="curve" smooth="yes"/>
      <point x="123" y="-13"/>
      <point x="266" y="12"/>
      <point x="266" y="12" type="curve"/>
      <point x="266" y="80" type="line"/>
      <point x="227" y="95" type="line"/>
      <point x="227" y="433" type="line" smooth="yes"/>
      <point x="227" y="441"/>
      <point x="194" y="476"/>
      <point x="187" y="476" type="curve" smooth="yes"/>
      <point x="169" y="476"/>
      <point x="10" y="453"/>
      <point x="10" y="453" type="curve"/>
      <point x="10" y="384" type="line"/>
      <point x="54" y="369" type="line"/>
      <point x="54" y="31" type="line" smooth="yes"/>
      <point x="54" y="22"/>
      <point x="97" y="-13"/>
    </contour>
  </outline>
</glyph>
<glyph name="Eng" format="2">
  <advance width="669"/>
  <unicode hex="014A"/>
  <outline>
    <contour>
      <point x="462" y="-12" type="line"/>
      <point x="599" y="28" type="line"/>
      <point x="599" y="515" type="line"/>
      <point x="659" y="540" type="line"/>
      <point x="659" y="612" type="line"/>
      <point x="392" y="612" type="line"/>
      <point x="392" y="532" type="line"/>
      <point x="461" y="507" type="line"/>
      <point x="461" y="467" type="line"/>
      <point x="468" y="308" type="line"/>
      <point x="458" y="308" type="line"/>
      <point x="442" y="348"/>
      <point x="423" y="387"/>
      <point x="401" y="424" type="curve" smooth="yes"/>
      <point x="287" y="612" type="line"/>
      <point x="20" y="612" type="line"/>
      <point x="20" y="540" type="line"/>
      <point x="80" y="515" type="line"/>
      <point x="80" y="97" type="line"/>
      <point x="20" y="72" type="line"/>
      <point x="20" y="0" type="line"/>
      <point x="288" y="0" type="line"/>
      <point x="288" y="80" type="line"/>
      <point x="218" y="105" type="line"/>
      <point x="218" y="140" type="line"/>
      <point x="209" y="355" type="line"/>
      <point x="219" y="355" type="line"/>
      <point x="219" y="355"/>
      <point x="259" y="274"/>
      <point x="319" y="190" type="curve" smooth="yes"/>
    </contour>
    <contour>
      <point x="468" y="-183" type="curve" smooth="yes"/>
      <point x="507" y="-183"/>
      <point x="599" y="-54"/>
      <point x="599" y="28" type="curve"/>
      <point x="465" y="40" type="line"/>
      <point x="466" y="8"/>
      <point x="464" y="-65"/>
      <point x="433" y="-69" type="curve" smooth="yes"/>
      <point x="418" y="-71"/>
      <point x="380" y="-72"/>
      <point x="320" y="-72" type="curve"/>
      <point x="322" y="-159" type="line"/>
      <point x="380" y="-171"/>
      <point x="440" y="-183"/>
    </contour>
  </outline>
</glyph>
<glyph name="eng" format="2">
  <advance width="507"/>
  <unicode hex="014B"/>
  <outline>
    <contour>
      <point x="331" y="-186" type="curve" smooth="yes"/>
      <point x="368" y="-186"/>
      <point x="472" y="-87"/>
      <point x="472" y="-23" type="curve" smooth="yes"/>
      <point x="472" y="333" type="line" smooth="yes"/>
      <point x="472" y="443"/>
      <point x="413" y="476"/>
      <point x="312" y="476" type="curve" smooth="yes"/>
      <point x="304" y="476"/>
      <point x="250" y="438"/>
      <point x="220" y="414" type="curve"/>
      <point x="220" y="433" type="line" smooth="yes"/>
      <point x="220" y="441"/>
      <point x="187" y="476"/>
      <point x="180" y="476" type="curve" smooth="yes"/>
      <point x="162" y="476"/>
      <point x="10" y="453"/>
      <point x="10" y="453" type="curve"/>
      <point x="10" y="384" type="line"/>
      <point x="54" y="369" type="line"/>
      <point x="54" y="31" type="line" smooth="yes"/>
      <point x="54" y="22"/>
      <point x="97" y="-13"/>
      <point x="106" y="-13" type="curve" smooth="yes"/>
      <point x="123" y="-13"/>
      <point x="270" y="12"/>
      <point x="270" y="12" type="curve"/>
      <point x="270" y="80" type="line"/>
      <point x="227" y="95" type="line"/>
      <point x="227" y="341" type="line"/>
      <point x="246" y="350"/>
      <point x="268" y="360"/>
      <point x="271" y="360" type="curve" smooth="yes"/>
      <point x="280" y="360"/>
      <point x="299" y="356"/>
      <point x="299" y="331" type="curve" smooth="yes"/>
      <point x="299" y="12" type="line" smooth="yes"/>
      <point x="299" y="-14"/>
      <point x="296" y="-63"/>
      <point x="278" y="-73" type="curve"/>
      <point x="271" y="-78"/>
      <point x="197" y="-84"/>
      <point x="178" y="-84" type="curve"/>
      <point x="178" y="-166" type="line"/>
      <point x="235" y="-176"/>
      <point x="306" y="-186"/>
    </contour>
  </outline>
</glyph>
<glyph name="OE" format="2">
  <advance width="873"/>
  <unicode hex="0152"/>
  <outline>
    <contour>
      <point x="318" y="0" type="curve" smooth="yes"/>
      <point x="507" y="0" type="line"/>
      <point x="426" y="110" type="line"/>
      <point x="371" y="96"/>
      <point x="325" y="94"/>
      <point x="311" y="94" type="curve" smooth="yes"/>
      <point x="237" y="94"/>
      <point x="214" y="135"/>
      <point x="214" y="308" type="curve" smooth="yes"/>
      <point x="214" y="428"/>
      <point x="228" y="504"/>
      <point x="242" y="511" type="curve" smooth="yes"/>
      <point x="256" y="518"/>
      <point x="282" y="519"/>
      <point x="298" y="519" type="curve" smooth="yes"/>
      <point x="335" y="519"/>
      <point x="379" y="513"/>
      <point x="418" y="500" type="curve"/>
      <point x="543" y="612" type="line"/>
      <point x="292" y="612" type="line" smooth="yes"/>
      <point x="246" y="612"/>
      <point x="97" y="527"/>
      <point x="48" y="472" type="curve"/>
      <point x="32" y="429"/>
      <point x="15" y="374"/>
      <point x="15" y="287" type="curve" smooth="yes"/>
      <point x="15" y="77"/>
      <point x="117" y="0"/>
    </contour>
    <contour>
      <point x="395" y="0" type="line"/>
      <point x="848" y="0" type="line"/>
      <point x="844" y="199" type="line"/>
      <point x="755" y="199" type="line"/>
      <point x="737" y="88" type="line"/>
      <point x="586" y="104" type="line"/>
      <point x="586" y="259" type="line"/>
      <point x="719" y="266" type="line"/>
      <point x="719" y="360" type="line"/>
      <point x="586" y="365" type="line"/>
      <point x="586" y="510" type="line"/>
      <point x="728" y="524" type="line"/>
      <point x="741" y="417" type="line"/>
      <point x="830" y="417" type="line"/>
      <point x="843" y="612" type="line"/>
      <point x="395" y="612" type="line"/>
    </contour>
  </outline>
</glyph>
<glyph name="longs" format="2">
  <advance width="289"/>
  <unicode hex="017F"/>
  <outline>
    <contour>
      <point x="106" y="-13" type="curve" smooth="yes"/>
      <point x="118" y="-13"/>
      <point x="218" y="4"/>
      <point x="290" y="16" type="curve"/>
      <point x="290" y="76" type="line"/>
      <point x="226" y="100" type="line"/>
      <point x="226" y="528" type="line" smooth="yes"/>
      <point x="226" y="557"/>
      <point x="233" y="569"/>
      <point x="238" y="569" type="curve" smooth="yes"/>
      <point x="252" y="569"/>
      <point x="333" y="529"/>
      <point x="352" y="520" type="curve"/>
      <point x="355" y="520"/>
      <point x="389" y="602"/>
      <point x="389" y="609" type="curve" smooth="yes"/>
      <point x="389" y="616"/>
      <point x="376" y="651"/>
      <point x="369" y="658" type="curve"/>
      <point x="326" y="661"/>
      <point x="234" y="665"/>
      <point x="220" y="665" type="curve" smooth="yes"/>
      <point x="175" y="665"/>
      <point x="53" y="548"/>
      <point x="53" y="506" type="curve" smooth="yes"/>
      <point x="53" y="467" type="line"/>
      <point x="-5" y="448" type="line"/>
      <point x="-5" y="376" type="line"/>
      <point x="53" y="376" type="line"/>
      <point x="53" y="31" type="line" smooth="yes"/>
      <point x="53" y="24"/>
      <point x="98" y="-13"/>
    </contour>
  </outline>
</glyph>
<glyph name="Schwa" format="2">
  <advance width="620"/>
  <unicode hex="018F"/>
  <outline>
    <contour>
      <point x="328" y="-13" type="curve" smooth="yes"/>
      <point x="372" y="-13"/>
      <point x="524" y="66"/>
      <point x="572" y="117" type="curve"/>
      <point x="588" y="162"/>
      <point x="605" y="233"/>
      <point x="605" y="324" type="curve" smooth="yes"/>
      <point x="605" y="536"/>
      <point x="503" y="625"/>
      <point x="302" y="625" type="curve" smooth="yes"/>
      <point x="261" y="625"/>
      <point x="137" y="612"/>
      <point x="56" y="602" type="curve"/>
      <point x="113" y="494" type="line"/>
      <point x="198" y="513"/>
      <point x="272" y="532"/>
      <point x="321" y="532" type="curve" smooth="yes"/>
      <point x="379" y="532"/>
      <point x="405" y="480"/>
      <point x="405" y="305" type="curve" smooth="yes"/>
      <point x="405" y="203"/>
      <point x="400" y="143"/>
      <point x="394" y="100" type="curve"/>
      <point x="389" y="97"/>
      <point x="335" y="81"/>
      <point x="321" y="81" type="curve" smooth="yes"/>
      <point x="261" y="81"/>
      <point x="235" y="116"/>
      <point x="227" y="220" type="curve"/>
      <point x="447" y="243" type="line"/>
      <point x="441" y="327" type="line"/>
      <point x="25" y="291" type="line"/>
      <point x="25" y="77"/>
      <point x="127" y="-13"/>
    </contour>
    <contour>
      <point x="64" y="377" type="line"/>
      <point x="157" y="377" type="line"/>
      <point x="179" y="602" type="line"/>
      <point x="51" y="602" type="line"/>
    </contour>
  </outline>
</glyph>
<glyph name="florin" format="2">
  <advance width="537"/>
  <unicode hex="0192"/>
  <outline>
    <contour>
      <point x="83" y="-186" type="curve" smooth="yes"/>
      <point x="126" y="-186"/>
      <point x="263" y="-69"/>
      <point x="270" y="-28" type="curve" smooth="yes"/>
      <point x="366" y="520" type="line" smooth="yes"/>
      <point x="371" y="548"/>
      <point x="376" y="569"/>
      <point x="391" y="569" type="curve" smooth="yes"/>
      <point x="400" y="569"/>
      <point x="463" y="536"/>
      <point x="495" y="520" type="curve"/>
      <point x="512" y="544"/>
      <point x="541" y="590"/>
      <point x="541" y="604" type="curve" smooth="yes"/>
      <point x="541" y="611"/>
      <point x="521" y="651"/>
      <point x="515" y="659" type="curve"/>
      <point x="490" y="662"/>
      <point x="393" y="665"/>
      <point x="384" y="665" type="curve" smooth="yes"/>
      <point x="341" y="665"/>
      <point x="204" y="548"/>
      <point x="197" y="507" type="curve" smooth="yes"/>
      <point x="101" y="-41" type="line" smooth="yes"/>
      <point x="96" y="-69"/>
      <point x="91" y="-90"/>
      <point x="76" y="-90" type="curve" smooth="yes"/>
      <point x="67" y="-90"/>
      <point x="4" y="-57"/>
      <point x="-28" y="-41" type="curve"/>
      <point x="-45" y="-65"/>
      <point x="-74" y="-111"/>
      <point x="-74" y="-125" type="curve" smooth="yes"/>
      <point x="-74" y="-132"/>
      <point x="-54" y="-172"/>
      <point x="-48" y="-180" type="curve"/>
      <point x="-23" y="-183"/>
      <point x="74" y="-186"/>
    </contour>
    <contour>
      <point x="446" y="375" type="line"/>
      <point x="462" y="462" type="line"/>
      <point x="191" y="467" type="line"/>
      <point x="121" y="448" type="line"/>
      <point x="109" y="376" type="line"/>
    </contour>
  </outline>
</glyph>
<glyph name="Nhookleft" format="2">
  <advance width="669"/>
  <unicode hex="019D"/>
  <outline>
    <contour>
      <point x="69" y="-183" type="curve" smooth="yes"/>
      <point x="108" y="-183"/>
      <point x="224" y="-54"/>
      <point x="221" y="28" type="curve" smooth="yes"/>
      <point x="209" y="355" type="line"/>
      <point x="219" y="355" type="line"/>
      <point x="224" y="338"/>
      <point x="244" y="278"/>
      <point x="289" y="193" type="curve" smooth="yes"/>
      <point x="392" y="0" type="line"/>
      <point x="416" y="-13" type="line"/>
      <point x="424" y="-13"/>
      <point x="560" y="0"/>
      <point x="599" y="6" type="curve"/>
      <point x="599" y="515" type="line"/>
      <point x="659" y="540" type="line"/>
      <point x="659" y="612" type="line"/>
      <point x="392" y="612" type="line"/>
      <point x="392" y="532" type="line"/>
      <point x="461" y="507" type="line"/>
      <point x="461" y="476" type="line"/>
      <point x="470" y="255" type="line"/>
      <point x="460" y="255" type="line" smooth="yes"/>
      <point x="452" y="283"/>
      <point x="434" y="335"/>
      <point x="412" y="376" type="curve" smooth="yes"/>
      <point x="287" y="612" type="line"/>
      <point x="20" y="612" type="line"/>
      <point x="20" y="540" type="line"/>
      <point x="79" y="515" type="line"/>
      <point x="79" y="40" type="line" smooth="yes"/>
      <point x="79" y="8"/>
      <point x="78" y="-65"/>
      <point x="47" y="-69" type="curve" smooth="yes"/>
      <point x="32" y="-71"/>
      <point x="-43" y="-72"/>
      <point x="-71" y="-72" type="curve"/>
      <point x="-71" y="-159" type="line"/>
      <point x="-13" y="-171"/>
      <point x="41" y="-183"/>
    </contour>
  </outline>
</glyph>
<glyph name="Uhorn" format="2">
  <advance width="673"/>
  <unicode hex="01AF"/>
  <anchor x="339" y="0" name="bottom"/>
  <anchor x="331" y="612" name="top"/>
  <outline>
    <contour>
      <point x="269" y="-13" type="curve" smooth="yes"/>
      <point x="278" y="-13"/>
      <point x="376" y="40"/>
      <point x="413" y="61" type="curve"/>
      <point x="436" y="0" type="line"/>
      <point x="653" y="0" type="line"/>
      <point x="653" y="72" type="line"/>
      <point x="593" y="97" type="line"/>
      <point x="593" y="612" type="line"/>
      <point x="353" y="612" type="line"/>
      <point x="353" y="532" type="line"/>
      <point x="406" y="505" type="line"/>
      <point x="406" y="161" type="line"/>
      <point x="373" y="152"/>
      <point x="340" y="142"/>
      <point x="316" y="142" type="curve" smooth="yes"/>
      <point x="279" y="142"/>
      <point x="257" y="153"/>
      <point x="257" y="240" type="curve" smooth="yes"/>
      <point x="257" y="505" type="line"/>
      <point x="310" y="532" type="line"/>
      <point x="310" y="612" type="line"/>
      <point x="10" y="612" type="line"/>
      <point x="10" y="540" type="line"/>
      <point x="70" y="515" type="line"/>
      <point x="70" y="205" type="line" smooth="yes"/>
      <point x="70" y="57"/>
      <point x="115" y="-13"/>
    </contour>
    <component base="horncomb.case" xOffset="530" yOffset="30"/>
  </outline>
</glyph>
<glyph name="schwa" format="2">
  <advance width="452"/>
  <unicode hex="0259"/>
  <outline>
    <contour>
      <point x="210" y="-14" type="curve" smooth="yes"/>
      <point x="242" y="-14"/>
      <point x="377" y="67"/>
      <point x="405" y="98" type="curve"/>
      <point x="418" y="131"/>
      <point x="432" y="197"/>
      <point x="432" y="258" type="curve" smooth="yes"/>
      <point x="432" y="388"/>
      <point x="361" y="476"/>
      <point x="225" y="476" type="curve" smooth="yes"/>
      <point x="201" y="476"/>
      <point x="68" y="430"/>
      <point x="37" y="418" type="curve"/>
      <point x="37" y="348" type="line"/>
      <point x="75" y="350"/>
      <point x="197" y="356"/>
      <point x="197" y="356" type="curve"/>
      <point x="236" y="356"/>
      <point x="255" y="308"/>
      <point x="255" y="261" type="curve"/>
      <point x="20" y="241" type="line"/>
      <point x="20" y="46"/>
      <point x="88" y="-14"/>
    </contour>
    <contour>
      <point x="206" y="65" type="curve" smooth="yes"/>
      <point x="192" y="74"/>
      <point x="182" y="120"/>
      <point x="182" y="174" type="curve"/>
      <point x="256" y="185" type="line"/>
      <point x="252" y="110"/>
      <point x="240" y="60"/>
      <point x="233" y="60" type="curve" smooth="yes"/>
      <point x="231" y="60"/>
      <point x="212" y="62"/>
    </contour>
  </outline>
</glyph>
<glyph name="nhookleft" format="2">
  <advance width="525"/>
  <unicode hex="0272"/>
  <outline>
    <contour>
      <point x="88" y="-186" type="curve" smooth="yes"/>
      <point x="125" y="-186"/>
      <point x="229" y="-87"/>
      <point x="229" y="-23" type="curve" smooth="yes"/>
      <point x="229" y="341" type="line"/>
      <point x="248" y="350"/>
      <point x="270" y="360"/>
      <point x="273" y="360" type="curve" smooth="yes"/>
      <point x="282" y="360"/>
      <point x="301" y="356"/>
      <point x="301" y="331" type="curve" smooth="yes"/>
      <point x="301" y="31" type="line" smooth="yes"/>
      <point x="301" y="22"/>
      <point x="345" y="-13"/>
      <point x="354" y="-13" type="curve" smooth="yes"/>
      <point x="365" y="-13"/>
      <point x="453" y="1"/>
      <point x="517" y="12" type="curve"/>
      <point x="517" y="80" type="line"/>
      <point x="474" y="95" type="line"/>
      <point x="474" y="333" type="line" smooth="yes"/>
      <point x="474" y="443"/>
      <point x="415" y="476"/>
      <point x="314" y="476" type="curve" smooth="yes"/>
      <point x="306" y="476"/>
      <point x="252" y="438"/>
      <point x="222" y="414" type="curve"/>
      <point x="222" y="433" type="line" smooth="yes"/>
      <point x="222" y="441"/>
      <point x="189" y="476"/>
      <point x="182" y="476" type="curve" smooth="yes"/>
      <point x="169" y="476"/>
      <point x="77" y="463"/>
      <point x="12" y="453" type="curve"/>
      <point x="12" y="384" type="line"/>
      <point x="56" y="369" type="line"/>
      <point x="56" y="12" type="line" smooth="yes"/>
      <point x="56" y="-14"/>
      <point x="53" y="-63"/>
      <point x="35" y="-73" type="curve"/>
      <point x="28" y="-78"/>
      <point x="-46" y="-84"/>
      <point x="-65" y="-84" type="curve"/>
      <point x="-65" y="-166" type="line"/>
      <point x="-8" y="-176"/>
      <point x="63" y="-186"/>
    </contour>
  </outline>
</glyph>
<glyph name="primemod" format="2">
  <advance width="180"/>
  <unicode hex="02B9"/>
  <outline>
    <contour>
      <point x="89" y="473" type="line"/>
      <point x="120" y="531"/>
      <point x="153" y="596"/>
      <point x="180" y="657" type="curve" smooth="yes"/>
      <point x="184" y="666"/>
      <point x="155" y="712"/>
      <point x="144" y="712" type="curve" smooth="yes"/>
      <point x="102" y="712"/>
      <point x="81" y="711"/>
      <point x="38" y="703" type="curve"/>
      <point x="0" y="501" type="line"/>
    </contour>
  </outline>
</glyph>
<glyph name="doubleprimemod" format="2">
  <advance width="380"/>
  <unicode hex="02BA"/>
  <outline>
    <contour>
      <point x="289" y="473" type="line"/>
      <point x="320" y="531"/>
      <point x="353" y="596"/>
      <point x="380" y="657" type="curve" smooth="yes"/>
      <point x="384" y="666"/>
      <point x="355" y="712"/>
      <point x="344" y="712" type="curve" smooth="yes"/>
      <point x="302" y="712"/>
      <point x="281" y="711"/>
      <point x="238" y="703" type="curve"/>
      <point x="200" y="501" type="line"/>
    </contour>
    <contour>
      <point x="89" y="473" type="line"/>
      <point x="120" y="531"/>
      <point x="153" y="596"/>
      <point x="180" y="657" type="curve" smooth="yes"/>
      <point x="184" y="666"/>
      <point x="155" y="712"/>
      <point x="144" y="712" type="curve" smooth="yes"/>
      <point x="102" y="712"/>
      <point x="81" y="711"/>
      <point x="38" y="703" type="curve"/>
      <point x="0" y="501" type="line"/>
    </contour>
  </outline>
</glyph>
<glyph name="circumflex" format="2">
  <advance width="346"/>
  <unicode hex="02C6"/>
  <outline>
    <contour>
      <point x="65" y="519" type="line"/>
      <point x="168" y="600" type="line"/>
      <point x="178" y="600" type="line"/>
      <point x="281" y="519" type="line"/>
      <point x="346" y="580" type="line"/>
      <point x="225" y="722" type="line"/>
      <point x="121" y="722" type="line"/>
      <point x="0" y="580" type="line"/>
    </contour>
  </outline>
</glyph>
<glyph name="caron" format="2">
  <advance width="346"/>
  <unicode hex="02C7"/>
  <outline>
    <contour>
      <point x="121" y="519" type="line"/>
      <point x="225" y="519" type="line"/>
      <point x="346" y="661" type="line"/>
      <point x="281" y="722" type="line"/>
      <point x="178" y="641" type="line"/>
      <point x="168" y="641" type="line"/>
      <point x="65" y="722" type="line"/>
      <point x="0" y="661" type="line"/>
    </contour>
  </outline>
</glyph>
<glyph name="breve" format="2">
  <advance width="329"/>
  <unicode hex="02D8"/>
  <outline>
    <contour>
      <point x="161" y="546" type="curve" smooth="yes"/>
      <point x="244" y="546"/>
      <point x="305" y="604"/>
      <point x="329" y="651" type="curve"/>
      <point x="279" y="701" type="line"/>
      <point x="247" y="667"/>
      <point x="206" y="647"/>
      <point x="161" y="647" type="curve" smooth="yes"/>
      <point x="122" y="647"/>
      <point x="79" y="667"/>
      <point x="50" y="701" type="curve"/>
      <point x="0" y="651" type="line"/>
      <point x="24" y="604"/>
      <point x="85" y="546"/>
    </contour>
  </outline>
</glyph>
<glyph name="dotaccent" format="2">
  <advance width="169"/>
  <unicode hex="02D9"/>
  <outline>
    <contour>
      <point x="11" y="537" type="line"/>
      <point x="157" y="537" type="line"/>
      <point x="169" y="641" type="line"/>
      <point x="143" y="671" type="line"/>
      <point x="0" y="664" type="line"/>
    </contour>
  </outline>
</glyph>
<glyph name="ring" format="2">
  <advance width="226"/>
  <unicode hex="02DA"/>
  <outline>
    <contour>
      <point x="113" y="510" type="curve" smooth="yes"/>
      <point x="185" y="510"/>
      <point x="226" y="552"/>
      <point x="226" y="623" type="curve" smooth="yes"/>
      <point x="226" y="706"/>
      <point x="185" y="738"/>
      <point x="113" y="738" type="curve" smooth="yes"/>
      <point x="40" y="738"/>
      <point x="0" y="696"/>
      <point x="0" y="625" type="curve" smooth="yes"/>
      <point x="0" y="542"/>
      <point x="41" y="510"/>
    </contour>
    <contour>
      <point x="113" y="590" type="curve" smooth="yes"/>
      <point x="98" y="590"/>
      <point x="90" y="598"/>
      <point x="90" y="623" type="curve" smooth="yes"/>
      <point x="90" y="633"/>
      <point x="91" y="644"/>
      <point x="94" y="652" type="curve"/>
      <point x="100" y="656"/>
      <point x="104" y="658"/>
      <point x="113" y="658" type="curve" smooth="yes"/>
      <point x="128" y="658"/>
      <point x="136" y="650"/>
      <point x="136" y="625" type="curve" smooth="yes"/>
      <point x="136" y="615"/>
      <point x="135" y="604"/>
      <point x="132" y="596" type="curve"/>
      <point x="126" y="592"/>
      <point x="122" y="590"/>
    </contour>
  </outline>
</glyph>
<glyph name="tilde" format="2">
  <advance width="336"/>
  <unicode hex="02DC"/>
  <anchor x="166" y="462" name="_top"/>
  <outline>
    <contour>
      <point x="235" y="531" type="curve" smooth="yes"/>
      <point x="259" y="531"/>
      <point x="321" y="601"/>
      <point x="336" y="623" type="curve"/>
      <point x="283" y="682" type="line"/>
      <point x="269" y="669"/>
      <point x="245" y="648"/>
      <point x="230" y="648" type="curve" smooth="yes"/>
      <point x="208" y="648"/>
      <point x="151" y="693"/>
      <point x="101" y="693" type="curve" smooth="yes"/>
      <point x="77" y="693"/>
      <point x="15" y="623"/>
      <point x="0" y="601" type="curve"/>
      <point x="53" y="542" type="line"/>
      <point x="67" y="555"/>
      <point x="91" y="576"/>
      <point x="106" y="576" type="curve" smooth="yes"/>
      <point x="128" y="576"/>
      <point x="185" y="531"/>
    </contour>
  </outline>
</glyph>
<glyph name="hungarumlaut" format="2">
  <advance width="490"/>
  <unicode hex="02DD"/>
  <outline>
    <contour>
      <point x="48" y="515" type="line"/>
      <point x="228" y="597" type="line"/>
      <point x="234" y="653" type="line"/>
      <point x="145" y="731" type="line"/>
      <point x="0" y="573" type="line"/>
    </contour>
    <contour>
      <point x="283" y="534" type="line"/>
      <point x="474" y="585" type="line"/>
      <point x="490" y="638" type="line"/>
      <point x="416" y="731" type="line"/>
      <point x="245" y="600" type="line"/>
    </contour>
  </outline>
</glyph>
<glyph name="hookabovecomb" format="2">
  <unicode hex="0309"/>
  <anchor x="90" y="462" name="_top"/>
  <anchor x="90" y="745" name="top"/>
  <outline>
    <contour>
      <point x="59" y="499" type="line"/>
      <point x="126" y="539"/>
      <point x="184" y="579"/>
      <point x="196" y="616" type="curve"/>
      <point x="198" y="625"/>
      <point x="199" y="633"/>
      <point x="199" y="641" type="curve" smooth="yes"/>
      <point x="199" y="701"/>
      <point x="147" y="745"/>
      <point x="76" y="745" type="curve" smooth="yes"/>
      <point x="53" y="745"/>
      <point x="27" y="741"/>
      <point x="0" y="732" type="curve"/>
      <point x="15" y="656" type="line"/>
      <point x="23" y="657"/>
      <point x="30" y="658"/>
      <point x="36" y="658" type="curve" smooth="yes"/>
      <point x="63" y="658"/>
      <point x="76" y="646"/>
      <point x="76" y="631" type="curve" smooth="yes"/>
      <point x="76" y="610"/>
      <point x="56" y="582"/>
      <point x="23" y="559" type="curve"/>
    </contour>
  </outline>
</glyph>
<glyph name="dblgravecomb" format="2">
  <unicode hex="030F"/>
  <anchor x="268" y="462" name="_top"/>
  <anchor x="268" y="749" name="top"/>
  <outline>
    <contour>
      <point x="432" y="533" type="line"/>
      <point x="480" y="591" type="line"/>
      <point x="335" y="749" type="line"/>
      <point x="246" y="671" type="line"/>
      <point x="252" y="615" type="line"/>
    </contour>
    <contour>
      <point x="207" y="529" type="line"/>
      <point x="245" y="595" type="line"/>
      <point x="74" y="726" type="line"/>
      <point x="0" y="633" type="line"/>
      <point x="16" y="580" type="line"/>
    </contour>
  </outline>
</glyph>
<glyph name="breveinvertedcomb" format="2">
  <unicode hex="0311"/>
  <anchor x="161" y="462" name="_top"/>
  <anchor x="165" y="680" name="top"/>
  <outline>
    <contour>
      <point x="50" y="547" type="line"/>
      <point x="82" y="581"/>
      <point x="123" y="601"/>
      <point x="168" y="601" type="curve" smooth="yes"/>
      <point x="207" y="601"/>
      <point x="250" y="581"/>
      <point x="279" y="547" type="curve"/>
      <point x="329" y="597" type="line"/>
      <point x="305" y="644"/>
      <point x="244" y="702"/>
      <point x="168" y="702" type="curve" smooth="yes"/>
      <point x="85" y="702"/>
      <point x="24" y="644"/>
      <point x="0" y="597" type="curve"/>
    </contour>
  </outline>
</glyph>
<glyph name="commaturnedabovecomb" format="2">
  <unicode hex="0312"/>
  <anchor x="68" y="462" name="_top"/>
  <anchor x="74" y="750" name="top"/>
  <outline>
    <contour>
      <point x="39" y="501" type="curve" smooth="yes"/>
      <point x="65" y="501"/>
      <point x="115" y="508"/>
      <point x="143" y="515" type="curve"/>
      <point x="148" y="592" type="line" smooth="yes"/>
      <point x="149" y="601"/>
      <point x="126" y="618"/>
      <point x="118" y="625" type="curve"/>
      <point x="122" y="657"/>
      <point x="127" y="678"/>
      <point x="135" y="709" type="curve"/>
      <point x="76" y="750" type="line"/>
      <point x="37" y="713"/>
      <point x="0" y="634"/>
      <point x="0" y="580" type="curve" smooth="yes"/>
      <point x="0" y="540" type="line"/>
      <point x="0" y="530"/>
      <point x="32" y="501"/>
    </contour>
  </outline>
</glyph>
<glyph name="commaabovecomb" format="2">
  <unicode hex="0313"/>
  <anchor x="68" y="462" name="_top"/>
  <anchor x="71" y="750" name="top"/>
  <outline>
    <contour>
      <point x="72" y="501" type="line"/>
      <point x="111" y="538"/>
      <point x="148" y="617"/>
      <point x="148" y="671" type="curve" smooth="yes"/>
      <point x="148" y="711" type="line"/>
      <point x="148" y="721"/>
      <point x="116" y="750"/>
      <point x="109" y="750" type="curve" smooth="yes"/>
      <point x="83" y="750"/>
      <point x="33" y="743"/>
      <point x="5" y="736" type="curve"/>
      <point x="0" y="659" type="line" smooth="yes"/>
      <point x="-1" y="650"/>
      <point x="22" y="633"/>
      <point x="30" y="626" type="curve"/>
      <point x="26" y="594"/>
      <point x="21" y="573"/>
      <point x="13" y="542" type="curve"/>
    </contour>
  </outline>
</glyph>
<glyph name="horncomb" format="2">
  <unicode hex="031B"/>
  <anchor x="0" y="432" name="_topright"/>
  <outline>
    <contour>
      <point x="9" y="376" type="line"/>
      <point x="99" y="376"/>
      <point x="172" y="443"/>
      <point x="191" y="532" type="curve"/>
      <point x="103" y="565" type="line"/>
      <point x="86" y="493"/>
      <point x="46" y="438"/>
      <point x="0" y="432" type="curve"/>
    </contour>
  </outline>
</glyph>
<glyph name="dotbelowcomb" format="2">
  <unicode hex="0323"/>
  <anchor x="86" y="0" name="_bottom"/>
  <anchor x="86" y="-196" name="bottom"/>
  <outline>
    <contour>
      <point x="11" y="-196" type="line"/>
      <point x="157" y="-196" type="line"/>
      <point x="169" y="-92" type="line"/>
      <point x="143" y="-62" type="line"/>
      <point x="0" y="-69" type="line"/>
    </contour>
  </outline>
</glyph>
<glyph name="ogonekcomb" format="2">
  <unicode hex="0328"/>
  <anchor x="159" y="0" name="_ogonek"/>
  <outline>
    <contour>
      <point x="92" y="-239" type="curve" smooth="yes"/>
      <point x="105" y="-239"/>
      <point x="169" y="-229"/>
      <point x="200" y="-224" type="curve"/>
      <point x="200" y="-152" type="line"/>
      <point x="146" y="-152" type="line" smooth="yes"/>
      <point x="129" y="-152"/>
      <point x="118" y="-145"/>
      <point x="118" y="-111" type="curve" smooth="yes"/>
      <point x="118" y="-103"/>
      <point x="170" y="-43"/>
      <point x="209" y="0" type="curve"/>
      <point x="154" y="48" type="line"/>
      <point x="108" y="9"/>
      <point x="43" y="-44"/>
      <point x="10" y="-81" type="curve"/>
      <point x="3" y="-97"/>
      <point x="0" y="-114"/>
      <point x="0" y="-130" type="curve" smooth="yes"/>
      <point x="0" y="-182"/>
      <point x="51" y="-239"/>
    </contour>
  </outline>
</glyph>
<glyph name="brevebelowcomb" format="2">
  <unicode hex="032E"/>
  <anchor x="165" y="0" name="_bottom"/>
  <anchor x="165" y="-211" name="bottom"/>
  <outline>
    <contour>
      <point x="161" y="-211" type="curve" smooth="yes"/>
      <point x="244" y="-211"/>
      <point x="305" y="-153"/>
      <point x="329" y="-106" type="curve"/>
      <point x="279" y="-56" type="line"/>
      <point x="247" y="-90"/>
      <point x="206" y="-110"/>
      <point x="161" y="-110" type="curve" smooth="yes"/>
      <point x="122" y="-110"/>
      <point x="79" y="-90"/>
      <point x="50" y="-56" type="curve"/>
      <point x="0" y="-106" type="line"/>
      <point x="24" y="-153"/>
      <point x="85" y="-211"/>
    </contour>
  </outline>
</glyph>
<glyph name="strokeshortcomb" format="2">
  <unicode hex="0335"/>
  <anchor x="175" y="302" name="_center"/>
  <outline>
    <contour>
      <point x="0" y="271" type="line"/>
      <point x="350" y="271" type="line"/>
      <point x="350" y="332" type="line"/>
      <point x="0" y="332" type="line"/>
    </contour>
  </outline>
</glyph>
<glyph name="strokelongcomb" format="2">
  <unicode hex="0336"/>
  <anchor x="307" y="308" name="_center"/>
  <outline>
    <contour>
      <point x="0" y="266" type="line"/>
      <point x="616" y="266" type="line"/>
      <point x="616" y="341" type="line"/>
      <point x="0" y="341" type="line"/>
    </contour>
  </outline>
</glyph>
<glyph name="slashshortcomb" format="2">
  <unicode hex="0337"/>
  <anchor x="151" y="333" name="_center"/>
  <outline>
    <contour>
      <point x="26" y="215" type="line"/>
      <point x="301" y="338" type="line"/>
      <point x="301" y="438" type="line"/>
      <point x="276" y="451" type="line"/>
      <point x="0" y="329" type="line"/>
      <point x="0" y="228" type="line"/>
    </contour>
  </outline>
</glyph>
<glyph name="slashlongcomb" format="2">
  <unicode hex="0338"/>
  <anchor x="182" y="208" name="_center"/>
  <outline>
    <contour>
      <point x="24" y="-110" type="line"/>
      <point x="83" y="-103" type="line"/>
      <point x="363" y="501" type="line"/>
      <point x="342" y="525" type="line"/>
      <point x="280" y="518" type="line"/>
      <point x="0" y="-86" type="line"/>
    </contour>
  </outline>
</glyph>
<glyph name="Delta" format="2">
  <advance width="610"/>
  <unicode hex="0394"/>
  <outline>
    <contour>
      <point x="607" y="0" type="line"/>
      <point x="420" y="603" type="line"/>
      <point x="291" y="582" type="line"/>
      <point x="437" y="29" type="line"/>
    </contour>
    <contour>
      <point x="3" y="0" type="line"/>
      <point x="607" y="0" type="line"/>
      <point x="504" y="113" type="line"/>
      <point x="106" y="113" type="line"/>
    </contour>
    <contour>
      <point x="3" y="0" type="line"/>
      <point x="173" y="29" type="line"/>
      <point x="319" y="582" type="line"/>
      <point x="190" y="603" type="line"/>
    </contour>
    <contour>
      <point x="235" y="495" type="line"/>
      <point x="379" y="495" type="line"/>
      <point x="420" y="603" type="line"/>
      <point x="190" y="603" type="line"/>
    </contour>
  </outline>
</glyph>
